<svg width="861" height="535" viewBox="0 0 861 535" fill="none" xmlns="http://www.w3.org/2000/svg">
<path d="M270.952 114.511H11.093C10.274 114.511 9.60999 115.174 9.60999 115.993V456.607C9.60999 457.425 10.274 458.089 11.093 458.089H270.952C271.771 458.089 272.435 457.425 272.435 456.607V115.993C272.435 115.174 271.771 114.511 270.952 114.511Z" fill="#33691E"/>
<path d="M270.952 114.511H25.9126C25.0936 114.511 24.4296 115.174 24.4296 115.993V456.607C24.4296 457.425 25.0936 458.089 25.9126 458.089H270.952C271.771 458.089 272.435 457.425 272.435 456.607V115.993C272.435 115.174 271.771 114.511 270.952 114.511Z" fill="#689F38"/>
<path d="M17.4914 81.7942C17.4914 76.6547 13.5758 72.4883 8.74569 72.4883C3.91557 72.4883 0 76.6547 0 81.7942V448.445C0 453.584 3.91557 457.75 8.74569 457.75C13.5758 457.75 17.4914 453.584 17.4914 448.445V81.7942Z" fill="#33691E"/>
<path d="M265.89 115.023H16.175C15.3719 115.023 14.7208 115.674 14.7208 116.476V450.454C14.7208 451.257 15.3719 451.907 16.175 451.907H265.89C266.693 451.907 267.344 451.257 267.344 450.454V116.476C267.344 115.674 266.693 115.023 265.89 115.023Z" fill="white"/>
<path d="M18.7663 118.481C17.9972 118.481 17.3774 119.121 17.3774 119.915V449.336C17.3774 450.13 17.9972 450.768 18.7663 450.768H260.872C254.218 437.19 255.963 429.134 267.348 418.321V119.917C267.348 119.123 266.728 118.483 265.959 118.483L18.7663 118.481Z" fill="url(#paint0_linear_141_167)"/>
<path d="M17.3552 451.858C21.0835 451.858 24.1058 443.637 24.1058 433.495C24.1058 423.354 21.0835 415.133 17.3552 415.133C13.627 415.133 10.6046 423.354 10.6046 433.495C10.6046 443.637 13.627 451.858 17.3552 451.858Z" fill="#F5F5F5"/>
<path d="M276.517 72.4082H11.093C10.274 72.4082 9.60999 73.0717 9.60999 73.8901V414.504C9.60999 415.323 10.274 415.986 11.093 415.986H276.517C277.336 415.986 278 415.323 278 414.504V73.8901C278 73.0717 277.336 72.4082 276.517 72.4082Z" fill="#33691E"/>
<path d="M220.261 137.918H71.0589C64.4436 137.918 59.0809 143.277 59.0809 149.887V197.63C59.0809 204.241 64.4436 209.599 71.0589 209.599H220.261C226.876 209.599 232.239 204.241 232.239 197.63V149.887C232.239 143.277 226.876 137.918 220.261 137.918Z" fill="white"/>
<path d="M219.715 191.683H72.8385C72.4115 191.683 72.0654 192.028 72.0654 192.455V194.618C72.0654 195.044 72.4115 195.39 72.8385 195.39H219.715C220.142 195.39 220.488 195.044 220.488 194.618V192.455C220.488 192.028 220.142 191.683 219.715 191.683Z" fill="#4DD0E1"/>
<path d="M90.2205 189.642C88.243 189.642 86.2326 188.768 84.1893 187.022L83.7938 188.999H76.675L83.3983 157.558L90.7148 156.569L84.7825 184.303C85.7053 184.962 86.6446 185.291 87.6004 185.291C89.4789 185.291 91.1268 184.204 92.544 182.029C93.9941 179.853 95.1147 177.085 95.9056 173.723C96.6966 170.362 97.0921 166.967 97.0921 163.539C97.0921 160.31 96.4494 157.953 95.1641 156.47C93.9117 154.954 92.1485 154.196 89.8744 154.196C87.4026 154.196 85.178 154.69 83.2005 155.679C81.256 156.635 79.7235 158.019 78.603 159.832C77.4824 161.644 76.9221 163.77 76.9221 166.209C76.9221 167.428 77.0375 168.285 77.2682 168.78C77.4989 169.241 77.6142 169.505 77.6142 169.571C75.9005 169.571 74.5822 169.208 73.6593 168.483C72.7695 167.758 72.3246 166.588 72.3246 164.973C72.3246 162.732 73.165 160.606 74.8458 158.596C76.5266 156.585 78.7678 154.97 81.5691 153.751C84.4035 152.532 87.4521 151.922 90.7148 151.922C95.23 151.922 98.5587 153.257 100.701 155.926C102.843 158.596 103.914 162.007 103.914 166.159C103.914 169.917 103.272 173.624 101.986 177.283C100.734 180.908 99.0531 183.874 96.9438 186.181C94.8345 188.488 92.5934 189.642 90.2205 189.642ZM116.624 155.432C114.416 156.322 112.702 157.689 111.482 159.535C110.296 161.348 109.703 163.572 109.703 166.209C109.703 167.428 109.818 168.285 110.049 168.78C110.279 169.241 110.395 169.505 110.395 169.571C108.615 169.571 107.28 169.208 106.39 168.483C105.533 167.725 105.105 166.489 105.105 164.775C105.105 162.666 105.962 160.623 107.676 158.645C109.422 156.635 111.647 155.02 114.35 153.8C117.052 152.548 119.755 151.922 122.457 151.922C122.919 151.922 123.578 151.955 124.435 152.021L116.574 188.999H109.455L116.624 155.432ZM134.124 194.635C132.905 194.635 131.834 194.536 130.911 194.338C129.988 194.14 129.18 193.663 128.488 192.904C127.829 192.146 127.5 190.976 127.5 189.395C127.5 187.186 128.159 184.22 129.477 180.496C130.828 176.772 132.592 173.031 134.767 169.274C133.119 169.373 131.817 169.62 130.861 170.016C129.906 170.411 129.279 171.021 128.983 171.845C129.115 171.845 129.246 172.009 129.378 172.339C129.543 172.669 129.625 173.015 129.625 173.377C129.625 173.97 129.362 174.448 128.834 174.811C128.307 175.14 127.648 175.305 126.857 175.305C125.934 175.305 125.193 175.058 124.632 174.564C124.072 174.069 123.792 173.361 123.792 172.438C123.792 171.317 124.22 170.296 125.077 169.373C125.967 168.45 127.187 167.725 128.736 167.198C130.285 166.637 131.998 166.357 133.877 166.357C134.569 166.357 135.426 166.407 136.448 166.506C139.15 162.221 142.001 158.728 145 156.025C148.032 153.29 150.916 151.922 153.651 151.922C155.233 151.922 156.535 152.153 157.557 152.614L149.795 188.999H142.677L146.483 171.054C145.264 170.493 144.143 170.081 143.121 169.818C142.1 169.554 141.012 169.373 139.859 169.274C137.98 173.328 136.431 177.48 135.212 181.732C134.025 185.95 133.432 189.329 133.432 191.866C133.432 193.119 133.663 194.042 134.124 194.635ZM149.795 155.432C148.378 156.19 146.895 157.607 145.346 159.683C143.83 161.727 142.347 164.215 140.897 167.148C143.27 167.61 145.28 168.186 146.928 168.878L149.795 155.432ZM177.923 189.839C175.352 189.839 174.067 188.735 174.067 186.527C174.067 185.802 174.166 184.978 174.364 184.055C174.594 183.1 174.907 181.88 175.303 180.397C175.764 178.848 176.11 177.53 176.341 176.442C176.572 175.355 176.687 174.382 176.687 173.525C176.687 171.284 175.698 170.164 173.721 170.164C173.194 170.164 172.65 170.23 172.09 170.362L168.135 188.999H161.016L167.739 157.558L175.056 156.569L172.633 167.989H173.029C174.314 167.989 175.501 167.544 176.588 166.654C177.676 165.764 178.516 164.66 179.109 163.342C179.736 161.99 180.049 160.672 180.049 159.387C180.049 157.871 179.587 156.635 178.665 155.679C177.775 154.69 176.423 154.196 174.611 154.196C171.941 154.196 169.601 154.674 167.591 155.63C165.58 156.585 164.015 157.97 162.894 159.782C161.807 161.595 161.263 163.737 161.263 166.209C161.263 167.428 161.378 168.285 161.609 168.78C161.84 169.241 161.955 169.505 161.955 169.571C160.175 169.571 158.841 169.208 157.951 168.483C157.094 167.725 156.665 166.489 156.665 164.775C156.665 162.666 157.522 160.623 159.236 158.645C160.983 156.635 163.207 155.02 165.91 153.8C168.613 152.548 171.315 151.922 174.018 151.922C176.489 151.922 178.566 152.284 180.247 153.009C181.927 153.735 183.18 154.707 184.004 155.926C184.828 157.113 185.24 158.414 185.24 159.832C185.24 161.381 184.762 162.93 183.806 164.479C182.85 166.028 181.548 167.297 179.9 168.285C181.153 168.648 182.026 169.257 182.521 170.114C183.048 170.938 183.312 171.976 183.312 173.229C183.312 174.185 183.196 175.206 182.965 176.294C182.735 177.349 182.405 178.667 181.977 180.249C181.713 181.27 181.466 182.276 181.235 183.264C181.005 184.253 180.889 185.077 180.889 185.736C180.889 186.494 181.054 187.17 181.384 187.763C181.746 188.356 182.224 188.768 182.817 188.999C180.807 189.559 179.175 189.839 177.923 189.839ZM89.034 235.773L84.2881 217.234C81.9482 218.124 80.1355 219.508 78.8502 221.387C77.5648 223.232 76.9221 225.506 76.9221 228.209C76.9221 229.428 77.0375 230.285 77.2682 230.78C77.4989 231.241 77.6142 231.505 77.6142 231.571C75.8345 231.571 74.4998 231.208 73.6099 230.483C72.753 229.725 72.3246 228.489 72.3246 226.775C72.3246 224.666 73.1815 222.623 74.8953 220.645C76.642 218.635 78.8666 217.02 81.5691 215.8C84.2717 214.548 86.9742 213.922 89.6767 213.922C90.1381 213.922 90.7972 213.955 91.6541 214.021L95.9551 231.719L103.272 214.169H106.534L96.9438 235.773L93.681 250.999H85.7712L89.034 235.773Z" fill="#4DD0E1"/>
<path d="M276.517 72.4082H26.8894C26.0703 72.4082 25.4064 73.0717 25.4064 73.8901V414.504C25.4064 415.323 26.0703 415.986 26.8894 415.986H276.517C277.336 415.986 278 415.323 278 414.504V73.8901C278 73.0717 277.336 72.4082 276.517 72.4082Z" fill="#9CCC65"/>
<path d="M259.383 430.083H17.6601C17.0613 430.083 16.5759 430.568 16.5759 431.166C16.5759 431.765 17.0613 432.25 17.6601 432.25H259.383C259.982 432.25 260.467 431.765 260.467 431.166C260.467 430.568 259.982 430.083 259.383 430.083Z" fill="white"/>
<path d="M259.383 435.95H17.6601C17.0613 435.95 16.5759 436.435 16.5759 437.033C16.5759 437.632 17.0613 438.117 17.6601 438.117H259.383C259.982 438.117 260.467 437.632 260.467 437.033C260.467 436.435 259.982 435.95 259.383 435.95Z" fill="white"/>
<path d="M259.383 443.354H17.6601C17.0613 443.354 16.5759 443.839 16.5759 444.437C16.5759 445.035 17.0613 445.52 17.6601 445.52H259.383C259.982 445.52 260.467 445.035 260.467 444.437C260.467 443.839 259.982 443.354 259.383 443.354Z" fill="white"/>
<path d="M259.383 446.421H17.6601C17.0613 446.421 16.5759 446.906 16.5759 447.504C16.5759 448.102 17.0613 448.588 17.6601 448.588H259.383C259.982 448.588 260.467 448.102 260.467 447.504C260.467 446.906 259.982 446.421 259.383 446.421Z" fill="white"/>
<path d="M144.989 72.4072V415.985H276.51C277.332 415.985 277.994 415.325 277.994 414.504V73.8933C277.994 73.0723 277.332 72.4104 276.51 72.4104H144.989V72.4072Z" fill="#8BC34A"/>
<path d="M246.242 102.708H45.551C42.8279 102.708 40.6205 104.914 40.6205 107.635V112.854C40.6205 115.575 42.8279 117.781 45.551 117.781H246.242C248.965 117.781 251.173 115.575 251.173 112.854V107.635C251.173 104.914 248.965 102.708 246.242 102.708Z" fill="white"/>
<path d="M208.112 129.771H92.5713C90.695 129.771 89.174 131.291 89.174 133.166V141.449C89.174 143.324 90.695 144.844 92.5713 144.844H208.112C209.988 144.844 211.509 143.324 211.509 141.449V133.166C211.509 131.291 209.988 129.771 208.112 129.771Z" fill="white"/>
<path d="M209.738 369.489H87.9455C87.7956 369.489 87.6741 369.611 87.6741 369.76V374.077C87.6741 374.227 87.7956 374.348 87.9455 374.348H209.738C209.888 374.348 210.009 374.227 210.009 374.077V369.76C210.009 369.611 209.888 369.489 209.738 369.489Z" fill="white"/>
<path d="M183.157 381.755H114.516C114.366 381.755 114.245 381.876 114.245 382.026V386.342C114.245 386.492 114.366 386.614 114.516 386.614H183.157C183.306 386.614 183.428 386.492 183.428 386.342V382.026C183.428 381.876 183.306 381.755 183.157 381.755Z" fill="white"/>
<path d="M234.523 396.563H63.1608C63.0109 396.563 62.8894 396.685 62.8894 396.835V401.151C62.8894 401.301 63.0109 401.422 63.1608 401.422H234.523C234.673 401.422 234.794 401.301 234.794 401.151V396.835C234.794 396.685 234.673 396.563 234.523 396.563Z" fill="white"/>
<path d="M145.226 307.967C169.566 307.967 189.298 288.251 189.298 263.929C189.298 239.607 169.566 219.891 145.226 219.891C120.886 219.891 101.154 239.607 101.154 263.929C101.154 288.251 120.886 307.967 145.226 307.967Z" fill="#8BC34A"/>
<path d="M146.252 219.771C161.842 219.771 174.481 207.142 174.481 191.563C174.481 175.985 161.842 163.355 146.252 163.355C130.661 163.355 118.022 175.985 118.022 191.563C118.022 207.142 130.661 219.771 146.252 219.771Z" fill="#9CCC65"/>
<path d="M470.482 216.419H237.578C236.822 216.419 236.21 217.031 236.21 217.786V532.106C236.21 532.861 236.822 533.474 237.578 533.474H470.482C471.238 533.474 471.851 532.861 471.851 532.106V217.786C471.851 217.031 471.238 216.419 470.482 216.419Z" fill="#26C6DA"/>
<path d="M471.687 494.937H243.972C243.879 494.937 243.803 495.012 243.803 495.105V533.873C243.803 533.967 243.879 534.042 243.972 534.042H471.687C471.78 534.042 471.856 533.967 471.856 533.873V495.105C471.856 495.012 471.78 494.937 471.687 494.937Z" fill="#BCAAA4"/>
<path d="M465.992 216.893H234.761C234.122 216.893 233.604 217.41 233.604 218.048V483.556C233.604 484.194 234.122 484.711 234.761 484.711H465.992C466.63 484.711 467.148 484.194 467.148 483.556V218.048C467.148 217.41 466.63 216.893 465.992 216.893Z" fill="white"/>
<path d="M237.346 220.092C236.635 220.092 236.062 220.683 236.062 221.417V525.958C236.062 526.692 236.635 527.282 237.346 527.282H461.166C455.015 514.73 456.629 507.282 467.153 497.286V221.419C467.153 220.685 466.58 220.094 465.869 220.094L237.346 220.092Z" fill="white"/>
<path d="M236.061 490.171V508.4H458.786C460.235 504.778 462.995 501.228 467.149 497.283V490.171H236.059L236.061 490.171Z" fill="#EEEEEE"/>
<path d="M260.276 197.694C260.276 186.581 251.26 177.571 240.138 177.571C229.016 177.571 220 186.581 220 197.694V513.613C220 524.727 229.016 533.736 240.138 533.736C251.26 533.736 260.276 524.727 260.276 513.613V197.694Z" fill="#757575"/>
<path d="M259.042 525.781H243.975V533.634H259.042V525.781Z" fill="#BCAAA4"/>
<path d="M254.368 527.715C267.485 527.715 278.118 520.242 278.118 511.024C278.118 501.807 267.485 494.334 254.368 494.334C241.252 494.334 230.619 501.807 230.619 511.024C230.619 520.242 241.252 527.715 254.368 527.715Z" fill="white"/>
<path d="M423.624 238.065H285.691C279.576 238.065 274.618 243.019 274.618 249.13V293.268C274.618 299.379 279.576 304.333 285.691 304.333H423.624C429.74 304.333 434.698 299.379 434.698 293.268V249.13C434.698 243.019 429.74 238.065 423.624 238.065Z" fill="white"/>
<path d="M423.12 287.767H287.336C286.942 287.767 286.622 288.086 286.622 288.481V290.48C286.622 290.875 286.942 291.194 287.336 291.194H423.12C423.514 291.194 423.834 290.875 423.834 290.48V288.481C423.834 288.086 423.514 287.767 423.12 287.767Z" fill="#4DD0E1"/>
<path d="M304.781 289.7C302.803 289.7 300.793 288.827 298.75 287.08L298.354 289.058H291.235L297.959 257.616L305.275 256.627L299.343 284.361C300.266 285.02 301.205 285.35 302.161 285.35C304.039 285.35 305.687 284.262 307.104 282.087C308.554 279.912 309.675 277.143 310.466 273.782C311.257 270.42 311.652 267.026 311.652 263.598C311.652 260.368 311.01 258.012 309.724 256.529C308.472 255.013 306.709 254.255 304.435 254.255C301.963 254.255 299.738 254.749 297.761 255.738C295.816 256.693 294.284 258.078 293.163 259.89C292.043 261.703 291.482 263.829 291.482 266.268C291.482 267.487 291.598 268.344 291.828 268.838C292.059 269.3 292.175 269.563 292.175 269.629C290.461 269.629 289.142 269.267 288.22 268.542C287.33 267.817 286.885 266.647 286.885 265.032C286.885 262.791 287.725 260.665 289.406 258.654C291.087 256.644 293.328 255.029 296.129 253.81C298.964 252.59 302.012 251.98 305.275 251.98C309.79 251.98 313.119 253.315 315.261 255.985C317.403 258.654 318.475 262.065 318.475 266.218C318.475 269.975 317.832 273.683 316.547 277.341C315.294 280.967 313.613 283.933 311.504 286.24C309.395 288.547 307.154 289.7 304.781 289.7ZM331.184 255.49C328.976 256.38 327.262 257.748 326.043 259.594C324.856 261.406 324.263 263.631 324.263 266.268C324.263 267.487 324.378 268.344 324.609 268.838C324.84 269.3 324.955 269.563 324.955 269.629C323.175 269.629 321.841 269.267 320.951 268.542C320.094 267.784 319.665 266.548 319.665 264.834C319.665 262.725 320.522 260.681 322.236 258.704C323.983 256.693 326.207 255.078 328.91 253.859C331.612 252.607 334.315 251.98 337.017 251.98C337.479 251.98 338.138 252.013 338.995 252.079L331.135 289.058H324.016L331.184 255.49ZM348.684 294.693C347.465 294.693 346.394 294.594 345.471 294.397C344.548 294.199 343.741 293.721 343.049 292.963C342.39 292.205 342.06 291.035 342.06 289.453C342.06 287.245 342.719 284.279 344.037 280.555C345.389 276.83 347.152 273.09 349.327 269.333C347.679 269.431 346.377 269.679 345.422 270.074C344.466 270.47 343.84 271.079 343.543 271.903C343.675 271.903 343.807 272.068 343.939 272.398C344.103 272.727 344.186 273.073 344.186 273.436C344.186 274.029 343.922 274.507 343.395 274.869C342.867 275.199 342.208 275.364 341.417 275.364C340.494 275.364 339.753 275.117 339.193 274.622C338.632 274.128 338.352 273.419 338.352 272.496C338.352 271.376 338.781 270.354 339.638 269.431C340.527 268.509 341.747 267.784 343.296 267.256C344.845 266.696 346.559 266.416 348.437 266.416C349.129 266.416 349.986 266.465 351.008 266.564C353.71 262.28 356.561 258.786 359.56 256.084C362.592 253.348 365.476 251.98 368.212 251.98C369.794 251.98 371.095 252.211 372.117 252.673L364.356 289.058H357.237L361.043 271.112C359.824 270.552 358.703 270.14 357.682 269.876C356.66 269.613 355.572 269.431 354.419 269.333C352.54 273.386 350.991 277.539 349.772 281.79C348.586 286.009 347.992 289.387 347.992 291.925C347.992 293.177 348.223 294.1 348.684 294.693ZM364.356 255.49C362.938 256.248 361.455 257.666 359.906 259.742C358.39 261.785 356.907 264.274 355.457 267.207C357.83 267.668 359.84 268.245 361.488 268.937L364.356 255.49ZM392.483 289.898C389.913 289.898 388.627 288.794 388.627 286.586C388.627 285.861 388.726 285.037 388.924 284.114C389.155 283.158 389.468 281.939 389.863 280.456C390.325 278.907 390.671 277.588 390.901 276.501C391.132 275.413 391.247 274.441 391.247 273.584C391.247 271.343 390.259 270.222 388.281 270.222C387.754 270.222 387.21 270.288 386.65 270.42L382.695 289.058H375.576L382.299 257.616L389.616 256.627L387.194 268.047H387.589C388.874 268.047 390.061 267.602 391.149 266.712C392.236 265.823 393.077 264.719 393.67 263.4C394.296 262.049 394.609 260.731 394.609 259.445C394.609 257.929 394.148 256.693 393.225 255.738C392.335 254.749 390.984 254.255 389.171 254.255C386.502 254.255 384.162 254.732 382.151 255.688C380.141 256.644 378.575 258.028 377.455 259.841C376.367 261.653 375.823 263.796 375.823 266.268C375.823 267.487 375.939 268.344 376.169 268.838C376.4 269.3 376.515 269.563 376.515 269.629C374.736 269.629 373.401 269.267 372.511 268.542C371.654 267.784 371.226 266.548 371.226 264.834C371.226 262.725 372.083 260.681 373.796 258.704C375.543 256.693 377.768 255.078 380.47 253.859C383.173 252.607 385.875 251.98 388.578 251.98C391.05 251.98 393.126 252.343 394.807 253.068C396.488 253.793 397.74 254.765 398.564 255.985C399.388 257.171 399.8 258.473 399.8 259.89C399.8 261.439 399.322 262.988 398.366 264.537C397.41 266.086 396.109 267.355 394.461 268.344C395.713 268.706 396.587 269.316 397.081 270.173C397.608 270.997 397.872 272.035 397.872 273.287C397.872 274.243 397.757 275.265 397.526 276.353C397.295 277.407 396.966 278.725 396.537 280.307C396.273 281.329 396.026 282.334 395.796 283.323C395.565 284.312 395.449 285.136 395.449 285.795C395.449 286.553 395.614 287.228 395.944 287.822C396.306 288.415 396.784 288.827 397.377 289.058C395.367 289.618 393.736 289.898 392.483 289.898ZM303.594 335.831L298.848 317.293C296.508 318.183 294.696 319.567 293.41 321.445C292.125 323.291 291.482 325.565 291.482 328.268C291.482 329.487 291.598 330.344 291.828 330.838C292.059 331.3 292.175 331.563 292.175 331.629C290.395 331.629 289.06 331.267 288.17 330.542C287.313 329.784 286.885 328.548 286.885 326.834C286.885 324.725 287.742 322.681 289.456 320.704C291.202 318.693 293.427 317.078 296.129 315.859C298.832 314.607 301.534 313.98 304.237 313.98C304.698 313.98 305.358 314.013 306.214 314.079L310.515 331.777L317.832 314.228H321.095L311.504 335.831L308.241 351.058H300.332L303.594 335.831Z" fill="#4DD0E1"/>
<path d="M475.629 177.5H244.855C244.098 177.5 243.484 178.113 243.484 178.87V493.759C243.484 494.516 244.098 495.129 244.855 495.129H475.629C476.386 495.129 477 494.516 477 493.759V178.87C477 178.113 476.386 177.5 475.629 177.5Z" fill="#EEEEEE"/>
<path d="M470.551 183.022H243.484V495.119H470.551V183.022Z" fill="white"/>
<path d="M451.426 205.508H258.333C257.903 205.508 257.555 205.856 257.555 206.286V218.664C257.555 219.094 257.903 219.442 258.333 219.442H451.426C451.856 219.442 452.205 219.094 452.205 218.664V206.286C452.205 205.856 451.856 205.508 451.426 205.508Z" fill="#B2DFDB"/>
<path d="M369.872 230.527H258.333C257.903 230.527 257.555 230.876 257.555 231.305V243.684C257.555 244.113 257.903 244.462 258.333 244.462H369.872C370.302 244.462 370.65 244.113 370.65 243.684V231.305C370.65 230.876 370.302 230.527 369.872 230.527Z" fill="#B2DFDB"/>
<path d="M413.897 452.144H301.303C301.164 452.144 301.052 452.256 301.052 452.394V456.385C301.052 456.523 301.164 456.635 301.303 456.635H413.897C414.035 456.635 414.147 456.523 414.147 456.385V452.394C414.147 452.256 414.035 452.144 413.897 452.144Z" fill="#B2DFDB"/>
<path d="M389.323 463.475H325.866C325.728 463.475 325.615 463.587 325.615 463.725V467.716C325.615 467.854 325.728 467.966 325.866 467.966H389.323C389.461 467.966 389.574 467.854 389.574 467.716V463.725C389.574 463.587 389.461 463.475 389.323 463.475Z" fill="#B2DFDB"/>
<path d="M436.809 477.163H278.39C278.251 477.163 278.139 477.275 278.139 477.414V481.404C278.139 481.543 278.251 481.655 278.39 481.655H436.809C436.948 481.655 437.06 481.543 437.06 481.404V477.414C437.06 477.275 436.948 477.163 436.809 477.163Z" fill="#B2DFDB"/>
<path d="M254.368 494.335C248.78 494.339 243.372 495.752 239.097 498.324C234.822 500.897 231.953 504.465 230.995 508.4H277.765C276.806 504.462 273.934 500.892 269.654 498.319C265.374 495.746 259.961 494.335 254.368 494.335Z" fill="#EEEEEE"/>
<path fill-rule="evenodd" clip-rule="evenodd" d="M231.034 508.126C229.679 513.856 231.831 518.019 236.151 521.911C234.729 513.806 247.025 508.358 252.485 506.198L231.034 508.126Z" fill="#EEEEEE"/>
<path d="M385.629 279.042L382.67 277.304C380.944 276.29 378.668 276.96 377.586 278.8L365.797 298.842C364.715 300.682 365.237 302.995 366.963 304.008L369.922 305.746C371.647 306.76 373.924 306.09 375.006 304.251L386.795 284.208C387.877 282.368 387.355 280.055 385.629 279.042Z" fill="#4D4D4D"/>
<path fill-rule="evenodd" clip-rule="evenodd" d="M368.149 294.957L365.847 298.87C364.762 300.715 365.282 303.018 367.013 304.035L369.972 305.773C371.703 306.79 373.97 306.123 375.056 304.278L377.34 300.394C376.684 299.714 375.894 299.077 374.986 298.531L371.161 296.229C370.16 295.626 369.134 295.206 368.149 294.957Z" fill="#333333"/>
<path fill-rule="evenodd" clip-rule="evenodd" d="M379.368 314.636L363.073 345.776L371.017 350.254L375.701 349.236C380.501 351.188 381.688 354.343 380.794 358.192C379 364.476 375.933 369.615 371.424 373.457C368.024 375.82 362.197 375.319 361.469 369.1L358.031 367.147L341.889 396.863L348 400.323C372.498 391.916 396.275 379.487 393.219 334.581C391.96 328.544 389.501 322.987 386.905 317.485L379.368 314.636Z" fill="#808080" stroke="#808080" stroke-width="0.471602"/>
<path fill-rule="evenodd" clip-rule="evenodd" d="M354.922 411.723V379.003C356.952 374.03 363.459 372.502 366.533 377.123L385.884 411.316L354.922 411.723Z" fill="#E6E6E6"/>
<path d="M390.731 406.117H306.593C304.822 406.117 303.387 407.552 303.387 409.321V414.703C303.387 416.472 304.822 417.907 306.593 417.907H390.731C392.502 417.907 393.937 416.472 393.937 414.703V409.321C393.937 407.552 392.502 406.117 390.731 406.117Z" fill="#4D4D4D"/>
<path d="M361.581 385.308C363.838 385.308 365.668 383.48 365.668 381.224C365.668 378.969 363.838 377.141 361.581 377.141C359.324 377.141 357.494 378.969 357.494 381.224C357.494 383.48 359.324 385.308 361.581 385.308Z" fill="#808080"/>
<path d="M361.846 360.378L323.297 338.507C321.855 337.689 320.022 338.194 319.203 339.635L318.146 341.496C317.327 342.937 317.832 344.768 319.274 345.587L357.823 367.457C359.265 368.276 361.098 367.771 361.917 366.33L362.974 364.468C363.793 363.027 363.288 361.196 361.846 360.378Z" fill="#808080"/>
<path d="M346.933 360.5L327.967 349.739C327.385 349.409 326.644 349.613 326.313 350.195L325.713 351.251C325.382 351.833 325.586 352.573 326.169 352.904L345.135 363.664C345.718 363.995 346.458 363.791 346.789 363.209L347.389 362.152C347.72 361.57 347.516 360.83 346.933 360.5Z" fill="#808080"/>
<path d="M342.039 361.496L329.266 354.249C328.735 353.948 328.061 354.134 327.76 354.664L327.424 355.255C327.123 355.785 327.309 356.459 327.839 356.76L340.613 364.007C341.143 364.308 341.818 364.122 342.119 363.592L342.454 363.001C342.756 362.471 342.57 361.797 342.039 361.496Z" fill="#808080"/>
<path d="M327.661 389.487L319.392 381.811C318.99 381.438 318.361 381.461 317.987 381.863L316.845 383.091C316.471 383.493 316.495 384.122 316.897 384.495L325.165 392.171C325.567 392.544 326.196 392.521 326.57 392.119L327.712 390.891C328.086 390.489 328.063 389.86 327.661 389.487Z" fill="#808080"/>
<path d="M334.649 380.579H310.785C310.175 380.579 309.681 381.073 309.681 381.683V383.546C309.681 384.156 310.175 384.65 310.785 384.65H334.649C335.259 384.65 335.753 384.156 335.753 383.546V381.683C335.753 381.073 335.259 380.579 334.649 380.579Z" fill="#4D4D4D"/>
<path d="M356.334 337.151L346.118 331.267C346.045 331.225 345.553 331.911 345.02 332.8L343.162 335.899C342.629 336.788 342.256 337.542 342.329 337.584L352.545 343.469C352.618 343.511 353.109 342.824 353.642 341.935L355.501 338.837C356.034 337.948 356.407 337.193 356.334 337.151Z" fill="#333333"/>
<path d="M378.134 303.264L364.83 295.257C363.979 294.744 362.829 295.13 362.261 296.119L343.622 328.593C343.055 329.582 343.285 330.798 344.136 331.311L357.44 339.318C358.292 339.83 359.441 339.444 360.009 338.456L378.648 305.981C379.215 304.993 378.985 303.776 378.134 303.264Z" fill="#4D4D4D"/>
<path d="M388.144 279.034L381.459 275.183C380.206 274.461 378.797 274.53 378.313 275.337L377.814 276.169C377.33 276.977 377.954 278.216 379.207 278.938L385.892 282.789C387.145 283.511 388.554 283.442 389.038 282.634L389.537 281.802C390.021 280.995 389.397 279.756 388.144 279.034Z" fill="#4D4D4D"/>
<path d="M377.635 320.434C381.6 320.434 384.815 317.222 384.815 313.26C384.815 309.297 381.6 306.085 377.635 306.085C373.669 306.085 370.455 309.297 370.455 313.26C370.455 317.222 373.669 320.434 377.635 320.434Z" fill="#CCCCCC"/>
<path d="M377.635 318.196C380.328 318.196 382.51 316.015 382.51 313.324C382.51 310.633 380.328 308.452 377.635 308.452C374.942 308.452 372.759 310.633 372.759 313.324C372.759 316.015 374.942 318.196 377.635 318.196Z" fill="#808080"/>
<path d="M346.304 389.648H327.549C327 389.648 326.555 390.093 326.555 390.642V392.319C326.555 392.867 327 393.312 327.549 393.312H346.304C346.853 393.312 347.298 392.867 347.298 392.319V390.642C347.298 390.093 346.853 389.648 346.304 389.648Z" fill="#808080"/>
<path d="M327.011 394.236C328.59 394.236 329.87 392.956 329.87 391.379C329.87 389.801 328.59 388.521 327.011 388.521C325.432 388.521 324.152 389.801 324.152 391.379C324.152 392.956 325.432 394.236 327.011 394.236Z" fill="#E6E6E6"/>
<path d="M326.92 393.347C327.992 393.347 328.861 392.478 328.861 391.407C328.861 390.335 327.992 389.467 326.92 389.467C325.848 389.467 324.978 390.335 324.978 391.407C324.978 392.478 325.848 393.347 326.92 393.347Z" fill="#808080"/>
<path d="M361.672 383.727C363.054 383.727 364.175 382.607 364.175 381.226C364.175 379.845 363.054 378.726 361.672 378.726C360.29 378.726 359.17 379.845 359.17 381.226C359.17 382.607 360.29 383.727 361.672 383.727Z" fill="#E6E6E6"/>
<path d="M854.656 147.858H628.098C627.363 147.858 626.767 148.454 626.767 149.189V454.943C626.767 455.678 627.363 456.273 628.098 456.273H854.656C855.391 456.273 855.987 455.678 855.987 454.943V149.189C855.987 148.454 855.391 147.858 854.656 147.858Z" fill="#26C6DA"/>
<path d="M855.832 418.785H634.322C634.231 418.785 634.158 418.859 634.158 418.949V456.661C634.158 456.752 634.231 456.825 634.322 456.825H855.832C855.922 456.825 855.996 456.752 855.996 456.661V418.949C855.996 418.859 855.922 418.785 855.832 418.785Z" fill="#00695C"/>
<path d="M850.293 148.318H625.363C624.742 148.318 624.238 148.821 624.238 149.442V407.715C624.238 408.336 624.742 408.839 625.363 408.839H850.293C850.914 408.839 851.418 408.336 851.418 407.715V149.442C851.418 148.821 850.914 148.318 850.293 148.318Z" fill="white"/>
<path d="M627.876 151.431C627.184 151.431 626.627 152.006 626.627 152.72V448.962C626.627 449.676 627.184 450.25 627.876 450.25H845.597C839.613 438.04 841.183 430.795 851.421 421.071V152.722C851.421 152.008 850.864 151.432 850.172 151.432L627.876 151.431Z" fill="white"/>
<path d="M626.625 414.151V431.883H843.281C844.69 428.36 847.375 424.907 851.416 421.07V414.152H626.623L626.625 414.151Z" fill="#EEEEEE"/>
<path d="M650.179 129.645C650.179 118.834 641.408 110.07 630.589 110.07C619.77 110.07 611 118.834 611 129.645V436.955C611 447.766 619.77 456.529 630.589 456.529C641.408 456.529 650.179 447.766 650.179 436.955V129.645Z" fill="#263238"/>
<path d="M648.983 448.789H634.327V456.428H648.983V448.789Z" fill="#00695C"/>
<path d="M644.433 450.672C657.192 450.672 667.535 443.403 667.535 434.437C667.535 425.47 657.192 418.201 644.433 418.201C631.674 418.201 621.331 425.47 621.331 434.437C621.331 443.403 631.674 450.672 644.433 450.672Z" fill="white"/>
<path d="M809.076 168.913H674.902C668.953 168.913 664.13 173.732 664.13 179.676V222.611C664.13 228.556 668.953 233.375 674.902 233.375H809.076C815.025 233.375 819.848 228.556 819.848 222.611V179.676C819.848 173.732 815.025 168.913 809.076 168.913Z" fill="white"/>
<path d="M693.967 220.523C691.989 220.523 689.979 219.649 687.935 217.902L687.54 219.88H680.421L687.144 188.438L694.461 187.45L688.529 215.183C689.451 215.843 690.391 216.172 691.346 216.172C693.225 216.172 694.873 215.085 696.29 212.909C697.74 210.734 698.861 207.966 699.652 204.604C700.443 201.242 700.838 197.848 700.838 194.42C700.838 191.19 700.196 188.834 698.91 187.351C697.658 185.835 695.895 185.077 693.621 185.077C691.149 185.077 688.924 185.571 686.947 186.56C685.002 187.516 683.47 188.9 682.349 190.713C681.229 192.525 680.668 194.651 680.668 197.09C680.668 198.309 680.784 199.166 681.014 199.66C681.245 200.122 681.36 200.386 681.36 200.451C679.647 200.451 678.328 200.089 677.405 199.364C676.516 198.639 676.071 197.469 676.071 195.854C676.071 193.613 676.911 191.487 678.592 189.477C680.273 187.466 682.514 185.851 685.315 184.632C688.15 183.412 691.198 182.803 694.461 182.803C698.976 182.803 702.305 184.138 704.447 186.807C706.589 189.477 707.66 192.888 707.66 197.04C707.66 200.798 707.018 204.505 705.732 208.164C704.48 211.789 702.799 214.755 700.69 217.062C698.581 219.369 696.34 220.523 693.967 220.523ZM720.37 186.313C718.162 187.203 716.448 188.57 715.228 190.416C714.042 192.229 713.449 194.453 713.449 197.09C713.449 198.309 713.564 199.166 713.795 199.66C714.025 200.122 714.141 200.386 714.141 200.451C712.361 200.451 711.026 200.089 710.136 199.364C709.28 198.606 708.851 197.37 708.851 195.656C708.851 193.547 709.708 191.504 711.422 189.526C713.169 187.516 715.393 185.901 718.096 184.681C720.798 183.429 723.501 182.803 726.203 182.803C726.665 182.803 727.324 182.836 728.181 182.902L720.32 219.88H713.202L720.37 186.313ZM737.87 225.516C736.651 225.516 735.58 225.417 734.657 225.219C733.734 225.021 732.927 224.543 732.234 223.785C731.575 223.027 731.246 221.857 731.246 220.275C731.246 218.067 731.905 215.101 733.223 211.377C734.574 207.653 736.338 203.912 738.513 200.155C736.865 200.254 735.563 200.501 734.607 200.896C733.652 201.292 733.025 201.902 732.729 202.726C732.861 202.726 732.992 202.89 733.124 203.22C733.289 203.549 733.371 203.896 733.371 204.258C733.371 204.851 733.108 205.329 732.58 205.692C732.053 206.021 731.394 206.186 730.603 206.186C729.68 206.186 728.939 205.939 728.378 205.445C727.818 204.95 727.538 204.242 727.538 203.319C727.538 202.198 727.966 201.177 728.823 200.254C729.713 199.331 730.933 198.606 732.482 198.079C734.031 197.518 735.744 197.238 737.623 197.238C738.315 197.238 739.172 197.288 740.194 197.386C742.896 193.102 745.747 189.608 748.746 186.906C751.778 184.17 754.662 182.803 757.397 182.803C758.979 182.803 760.281 183.033 761.303 183.495L753.541 219.88H746.423L750.229 201.935C749.01 201.374 747.889 200.962 746.868 200.699C745.846 200.435 744.758 200.254 743.605 200.155C741.726 204.209 740.177 208.361 738.958 212.613C737.771 216.831 737.178 220.209 737.178 222.747C737.178 224 737.409 224.922 737.87 225.516ZM753.541 186.313C752.124 187.071 750.641 188.488 749.092 190.564C747.576 192.608 746.093 195.096 744.643 198.029C747.016 198.49 749.026 199.067 750.674 199.759L753.541 186.313ZM781.669 220.72C779.098 220.72 777.813 219.616 777.813 217.408C777.813 216.683 777.912 215.859 778.11 214.936C778.34 213.98 778.653 212.761 779.049 211.278C779.51 209.729 779.856 208.411 780.087 207.323C780.318 206.235 780.433 205.263 780.433 204.406C780.433 202.165 779.444 201.045 777.467 201.045C776.94 201.045 776.396 201.111 775.836 201.242L771.881 219.88H764.762L771.485 188.438L778.802 187.45L776.379 198.869H776.775C778.06 198.869 779.247 198.425 780.334 197.535C781.422 196.645 782.262 195.541 782.856 194.222C783.482 192.871 783.795 191.553 783.795 190.268C783.795 188.752 783.333 187.516 782.411 186.56C781.521 185.571 780.17 185.077 778.357 185.077C775.687 185.077 773.347 185.555 771.337 186.51C769.327 187.466 767.761 188.85 766.64 190.663C765.553 192.476 765.009 194.618 765.009 197.09C765.009 198.309 765.124 199.166 765.355 199.66C765.586 200.122 765.701 200.386 765.701 200.451C763.922 200.451 762.587 200.089 761.697 199.364C760.84 198.606 760.412 197.37 760.412 195.656C760.412 193.547 761.268 191.504 762.982 189.526C764.729 187.516 766.954 185.901 769.656 184.681C772.359 183.429 775.061 182.803 777.764 182.803C780.235 182.803 782.312 183.165 783.993 183.89C785.673 184.615 786.926 185.588 787.75 186.807C788.574 187.994 788.986 189.295 788.986 190.713C788.986 192.262 788.508 193.811 787.552 195.36C786.596 196.909 785.294 198.177 783.647 199.166C784.899 199.529 785.772 200.138 786.267 200.995C786.794 201.819 787.058 202.857 787.058 204.11C787.058 205.065 786.942 206.087 786.712 207.175C786.481 208.229 786.151 209.548 785.723 211.13C785.459 212.151 785.212 213.157 784.981 214.145C784.751 215.134 784.635 215.958 784.635 216.617C784.635 217.375 784.8 218.051 785.13 218.644C785.492 219.237 785.97 219.649 786.563 219.88C784.553 220.44 782.921 220.72 781.669 220.72ZM692.78 266.654L688.034 248.115C685.694 249.005 683.882 250.389 682.596 252.268C681.311 254.113 680.668 256.387 680.668 259.09C680.668 260.309 680.784 261.166 681.014 261.66C681.245 262.122 681.36 262.386 681.36 262.451C679.581 262.451 678.246 262.089 677.356 261.364C676.499 260.606 676.071 259.37 676.071 257.656C676.071 255.547 676.928 253.504 678.641 251.526C680.388 249.516 682.613 247.901 685.315 246.681C688.018 245.429 690.72 244.803 693.423 244.803C693.884 244.803 694.543 244.836 695.4 244.902L699.701 262.6L707.018 245.05H710.281L700.69 266.654L697.427 281.88H689.517L692.78 266.654Z" fill="#4DD0E1"/>
<path d="M859.666 110H635.181C634.444 110 633.847 110.597 633.847 111.333V417.641C633.847 418.377 634.444 418.973 635.181 418.973H859.666C860.403 418.973 861 418.377 861 417.641V111.333C861 110.597 860.403 110 859.666 110Z" fill="#009688"/>
<path d="M639.145 140.1L633.844 149.276V185.527L639.145 194.701H670.694L686.467 167.402L670.694 140.1L639.145 140.1Z" fill="#26A69A"/>
<path d="M774.535 194.856L742.986 194.856L727.212 167.555L742.986 140.255H774.535L790.309 167.555L774.535 194.856Z" fill="#26A69A"/>
<path d="M790.485 137.245H648.287C647.868 137.245 647.529 137.584 647.529 138.002V150.043C647.529 150.461 647.868 150.8 648.287 150.8H790.485C790.903 150.8 791.242 150.461 791.242 150.043V138.002C791.242 137.584 790.903 137.245 790.485 137.245Z" fill="white"/>
<path d="M806.095 339.01L794.138 359.703L806.095 380.398H830.01L841.967 359.703L830.01 339.01H806.095ZM766.821 361.092L754.864 381.785L766.821 402.48H790.736L802.693 381.785L790.736 361.092H766.821ZM845.535 361.21L833.578 381.903L845.535 402.598H860.998V361.21H845.535ZM766.821 405.898L759.271 418.967H798.286L790.736 405.898H766.821Z" fill="#26A69A"/>
<path d="M799.614 377.16H690.088C689.953 377.16 689.844 377.269 689.844 377.404V381.286C689.844 381.42 689.953 381.53 690.088 381.53H799.614C799.748 381.53 799.858 381.42 799.858 381.286V377.404C799.858 377.269 799.748 377.16 799.614 377.16Z" fill="#FFEBEE"/>
<path d="M775.709 388.182H713.982C713.847 388.182 713.738 388.291 713.738 388.426V392.307C713.738 392.442 713.847 392.551 713.982 392.551H775.709C775.844 392.551 775.953 392.442 775.953 392.307V388.426C775.953 388.291 775.844 388.182 775.709 388.182Z" fill="#FFEBEE"/>
<path d="M821.902 401.496H667.799C667.664 401.496 667.555 401.605 667.555 401.74V405.622C667.555 405.756 667.664 405.866 667.799 405.866H821.902C822.037 405.866 822.146 405.756 822.146 405.622V401.74C822.146 401.605 822.037 401.496 821.902 401.496Z" fill="#FFEBEE"/>
<path d="M644.433 418.201C638.997 418.205 633.736 419.579 629.578 422.082C625.419 424.584 622.628 428.055 621.696 431.883H667.192C666.259 428.052 663.465 424.58 659.302 422.077C655.138 419.574 649.873 418.201 644.433 418.201Z" fill="#EEEEEE"/>
<path fill-rule="evenodd" clip-rule="evenodd" d="M621.736 431.616C620.418 437.191 622.512 441.24 626.713 445.025C625.331 437.142 637.292 431.842 642.603 429.741L621.736 431.616Z" fill="#EEEEEE"/>
<path d="M694.6 247.229L690.494 261.264C694.342 255.526 697.285 251.753 699.323 249.943C701.381 248.134 703.356 247.229 705.25 247.229C706.279 247.229 707.123 247.568 707.781 248.247C708.46 248.925 708.8 249.81 708.8 250.9C708.8 252.133 708.501 253.779 707.904 255.835L704.138 268.821C703.706 270.322 703.49 271.237 703.49 271.566C703.49 271.854 703.572 272.101 703.737 272.307C703.902 272.492 704.077 272.584 704.262 272.584C704.509 272.584 704.807 272.451 705.157 272.183C706.248 271.32 707.441 270.004 708.738 268.235L709.695 268.821C707.781 271.556 705.97 273.51 704.262 274.682C703.068 275.484 701.998 275.885 701.051 275.885C700.29 275.885 699.683 275.648 699.23 275.175C698.777 274.723 698.551 274.106 698.551 273.325C698.551 272.338 698.901 270.641 699.6 268.235L703.181 255.835C703.634 254.293 703.86 253.09 703.86 252.226C703.86 251.815 703.727 251.486 703.459 251.239C703.192 250.972 702.862 250.838 702.471 250.838C701.895 250.838 701.206 251.085 700.403 251.578C698.88 252.504 697.296 254.036 695.649 256.174C694.003 258.292 692.264 261.007 690.432 264.318C689.465 266.066 688.662 267.978 688.024 270.055L686.481 275.145H681.85L687.469 255.835C688.127 253.512 688.456 252.113 688.456 251.64C688.456 251.188 688.271 250.797 687.901 250.468C687.551 250.119 687.108 249.944 686.573 249.944C686.326 249.944 685.894 249.985 685.277 250.067L684.104 250.252L683.919 249.142L694.6 247.229Z" fill="white"/>
<path d="M782.556 293.767L793.289 309.763C796.264 314.186 798.465 316.987 799.891 318.166C801.342 319.321 803.174 319.96 805.387 320.083V321.446H783.92V320.083C785.347 320.058 786.404 319.911 787.093 319.64C787.609 319.419 788.027 319.088 788.347 318.645C788.691 318.178 788.863 317.712 788.863 317.245C788.863 316.68 788.752 316.114 788.531 315.549C788.359 315.132 787.683 314.05 786.502 312.306L778.019 299.479L767.544 312.896C766.437 314.321 765.773 315.279 765.552 315.77C765.331 316.237 765.22 316.729 765.22 317.245C765.22 318.031 765.552 318.682 766.216 319.198C766.88 319.714 768.146 320.009 770.015 320.083V321.446H752.274V320.083C753.528 319.96 754.61 319.702 755.52 319.309C757.044 318.67 758.495 317.81 759.872 316.728C761.249 315.647 762.823 313.989 764.593 311.753L776.397 296.862L766.549 282.451C763.868 278.545 761.594 275.989 759.725 274.785C757.856 273.557 755.705 272.906 753.27 272.832V271.468H776.397V272.832C774.43 272.906 773.078 273.225 772.34 273.79C771.627 274.355 771.27 274.982 771.27 275.67C771.27 276.579 771.86 277.906 773.041 279.65L780.713 291.112L789.602 279.871C790.635 278.544 791.262 277.635 791.483 277.144C791.729 276.652 791.852 276.148 791.852 275.633C791.852 275.117 791.705 274.662 791.41 274.269C791.041 273.753 790.574 273.397 790.008 273.2C789.442 272.979 788.274 272.856 786.504 272.831V271.468H804.245V272.831C802.844 272.905 801.7 273.126 800.815 273.495C799.487 274.06 798.27 274.822 797.163 275.78C796.057 276.738 794.495 278.507 792.479 281.087L782.557 293.766L782.556 293.767Z" fill="white"/>
<path d="M694.247 292.783H689.303C687.606 292.783 686.892 293.988 687.71 295.475L700.594 318.907C701.412 320.393 703.45 321.598 705.148 321.598H710.092C711.789 321.598 712.503 320.393 711.685 318.907L698.801 295.475C697.983 293.988 695.945 292.783 694.247 292.783Z" fill="white"/>
<path d="M736.22 243.381H742.382C743.743 243.381 744.421 244.398 743.896 245.653L713.475 318.37C712.95 319.625 711.421 320.643 710.06 320.643H703.898C702.537 320.643 701.859 319.625 702.384 318.37L732.805 245.653C733.33 244.398 734.859 243.381 736.22 243.381Z" fill="white"/>
<path d="M816.867 243.326H738.676C737.254 243.326 735.767 244.429 735.354 245.789L734.159 249.729C733.747 251.09 734.565 252.192 735.987 252.192H814.178C815.601 252.192 817.088 251.09 817.5 249.729L818.696 245.789C819.108 244.429 818.289 243.326 816.867 243.326Z" fill="white"/>
<path d="M791.01 156.502H647.761C647.633 156.502 647.529 156.606 647.529 156.734V160.421C647.529 160.548 647.633 160.652 647.761 160.652H791.01C791.138 160.652 791.242 160.548 791.242 160.421V156.734C791.242 156.606 791.138 156.502 791.01 156.502Z" fill="white"/>
<path d="M722.726 223.99H691.178L675.404 196.69L691.178 169.39H722.726L738.5 196.69L722.726 223.99Z" fill="#26A69A"/>
<path d="M728.112 110L742.99 135.748H774.539L789.417 110H728.113H728.112Z" fill="#26A69A"/>
<path d="M657.94 36.1973H434.533C433.829 36.1973 433.258 36.7677 433.258 37.4713V330.306C433.258 331.009 433.829 331.58 434.533 331.58H657.94C658.644 331.58 659.215 331.009 659.215 330.306V37.4713C659.215 36.7677 658.644 36.1973 657.94 36.1973Z" fill="#26C6DA"/>
<path d="M657.941 36.1973H447.274C446.57 36.1973 445.999 36.7677 445.999 37.4713V330.306C445.999 331.009 446.57 331.58 447.274 331.58H657.941C658.645 331.58 659.216 331.009 659.216 330.306V37.4713C659.216 36.7677 658.645 36.1973 657.941 36.1973Z" fill="#00ACC1"/>
<path d="M440.038 8.07087C440.038 3.65229 436.671 0.0703125 432.519 0.0703125C428.366 0.0703125 425 3.65229 425 8.07087V323.289C425 327.708 428.366 331.29 432.519 331.29C436.671 331.29 440.038 327.708 440.038 323.289V8.07087Z" fill="#26C6DA"/>
<path d="M653.588 36.6357H438.902C438.211 36.6357 437.652 37.195 437.652 37.8849V325.014C437.652 325.704 438.211 326.263 438.902 326.263H653.588C654.278 326.263 654.838 325.704 654.838 325.014V37.8849C654.838 37.195 654.278 36.6357 653.588 36.6357Z" fill="white"/>
<path d="M441.131 39.6104C440.47 39.6104 439.937 40.1604 439.937 40.843V324.054C439.937 324.736 440.47 325.285 441.131 325.285H649.275C643.555 313.612 645.055 306.686 654.843 297.39V40.8446C654.843 40.162 654.31 39.612 653.649 39.612L441.131 39.6104Z" fill="url(#paint1_linear_141_167)"/>
<path d="M439.922 326.221C443.127 326.221 445.725 319.153 445.725 310.434C445.725 301.715 443.127 294.647 439.922 294.647C436.716 294.647 434.118 301.715 434.118 310.434C434.118 319.153 436.716 326.221 439.922 326.221Z" fill="#F5F5F5"/>
<path d="M662.724 0H434.533C433.829 0 433.258 0.570407 433.258 1.27404V294.108C433.258 294.812 433.829 295.383 434.533 295.383H662.724C663.428 295.383 663.999 294.812 663.999 294.108V1.27404C663.999 0.570407 663.428 0 662.724 0Z" fill="#26C6DA"/>
<path d="M614.363 56.3213H486.09C480.403 56.3213 475.792 60.9283 475.792 66.6112V107.657C475.792 113.34 480.403 117.947 486.09 117.947H614.363C620.05 117.947 624.66 113.34 624.66 107.657V66.6112C624.66 60.9283 620.05 56.3213 614.363 56.3213Z" fill="white"/>
<path d="M613.893 102.542H487.62C487.253 102.542 486.955 102.839 486.955 103.206V105.065C486.955 105.432 487.253 105.73 487.62 105.73H613.893C614.26 105.73 614.558 105.432 614.558 105.065V103.206C614.558 102.839 614.26 102.542 613.893 102.542Z" fill="#4DD0E1"/>
<path d="M505.117 107.893C503.14 107.893 501.129 107.019 499.086 105.273L498.69 107.25H491.572L498.295 75.8086L505.611 74.8198L499.679 102.554C500.602 103.213 501.541 103.542 502.497 103.542C504.376 103.542 506.023 102.455 507.441 100.279C508.891 98.1043 510.011 95.3359 510.802 91.9742C511.593 88.6126 511.989 85.2179 511.989 81.7904C511.989 78.5605 511.346 76.2041 510.061 74.721C508.808 73.2049 507.045 72.4469 504.771 72.4469C502.299 72.4469 500.075 72.9413 498.097 73.93C496.153 74.8858 494.62 76.27 493.5 78.0826C492.379 79.8953 491.819 82.0211 491.819 84.4599C491.819 85.6793 491.934 86.5362 492.165 87.0306C492.396 87.492 492.511 87.7557 492.511 87.8216C490.797 87.8216 489.479 87.459 488.556 86.734C487.666 86.0089 487.221 84.8389 487.221 83.224C487.221 80.9829 488.062 78.8571 489.742 76.8467C491.423 74.8363 493.664 73.2214 496.466 72.002C499.3 70.7826 502.349 70.1728 505.611 70.1728C510.127 70.1728 513.455 71.5076 515.598 74.1772C517.74 76.8467 518.811 80.2578 518.811 84.4105C518.811 88.1676 518.168 91.8753 516.883 95.5336C515.631 99.1589 513.95 102.125 511.84 104.432C509.731 106.739 507.49 107.893 505.117 107.893ZM531.52 73.6828C529.312 74.5727 527.598 75.9404 526.379 77.786C525.192 79.5987 524.599 81.8233 524.599 84.4599C524.599 85.6793 524.715 86.5362 524.945 87.0306C525.176 87.492 525.291 87.7557 525.291 87.8216C523.512 87.8216 522.177 87.459 521.287 86.734C520.43 85.976 520.002 84.74 520.002 83.0263C520.002 80.917 520.859 78.8736 522.572 76.8962C524.319 74.8858 526.544 73.2708 529.246 72.0514C531.949 70.799 534.651 70.1728 537.354 70.1728C537.815 70.1728 538.474 70.2058 539.331 70.2717L531.471 107.25H524.352L531.52 73.6828ZM549.021 112.886C547.801 112.886 546.73 112.787 545.807 112.589C544.885 112.391 544.077 111.913 543.385 111.155C542.726 110.397 542.396 109.227 542.396 107.645C542.396 105.437 543.055 102.471 544.374 98.747C545.725 95.0228 547.488 91.2821 549.663 87.525C548.015 87.6238 546.714 87.871 545.758 88.2665C544.802 88.662 544.176 89.2717 543.879 90.0956C544.011 90.0956 544.143 90.2604 544.275 90.59C544.44 90.9196 544.522 91.2656 544.522 91.6282C544.522 92.2214 544.258 92.6993 543.731 93.0618C543.204 93.3914 542.545 93.5562 541.754 93.5562C540.831 93.5562 540.089 93.309 539.529 92.8146C538.969 92.3203 538.689 91.6117 538.689 90.6889C538.689 89.5683 539.117 88.5466 539.974 87.6238C540.864 86.701 542.083 85.976 543.632 85.4486C545.181 84.8884 546.895 84.6082 548.774 84.6082C549.466 84.6082 550.323 84.6577 551.344 84.7565C554.047 80.4721 556.898 76.9786 559.897 74.276C562.929 71.5406 565.813 70.1728 568.548 70.1728C570.13 70.1728 571.432 70.4035 572.453 70.865L564.692 107.25H557.573L561.38 89.3047C560.16 88.7444 559.04 88.3324 558.018 88.0688C556.996 87.8051 555.909 87.6238 554.755 87.525C552.877 91.5787 551.328 95.7314 550.108 99.9829C548.922 104.201 548.329 107.58 548.329 110.117C548.329 111.37 548.559 112.292 549.021 112.886ZM564.692 73.6828C563.275 74.4408 561.792 75.858 560.243 77.9343C558.727 79.9777 557.244 82.466 555.793 85.3992C558.166 85.8606 560.177 86.4374 561.825 87.1295L564.692 73.6828ZM592.82 108.09C590.249 108.09 588.964 106.986 588.964 104.778C588.964 104.053 589.062 103.229 589.26 102.306C589.491 101.351 589.804 100.131 590.199 98.6481C590.661 97.0991 591.007 95.7808 591.238 94.6932C591.468 93.6056 591.584 92.6334 591.584 91.7765C591.584 89.5354 590.595 88.4148 588.618 88.4148C588.09 88.4148 587.546 88.4807 586.986 88.6126L583.031 107.25H575.912L582.636 75.8086L589.952 74.8198L587.53 86.2396H587.925C589.211 86.2396 590.397 85.7947 591.485 84.9048C592.572 84.015 593.413 82.9109 594.006 81.5926C594.632 80.2414 594.945 78.9231 594.945 77.6377C594.945 76.1217 594.484 74.8858 593.561 73.93C592.671 72.9413 591.32 72.4469 589.507 72.4469C586.838 72.4469 584.498 72.9248 582.487 73.8806C580.477 74.8363 578.912 76.2205 577.791 78.0332C576.703 79.8459 576.16 81.9881 576.16 84.4599C576.16 85.6793 576.275 86.5362 576.506 87.0306C576.736 87.492 576.852 87.7557 576.852 87.8216C575.072 87.8216 573.737 87.459 572.847 86.734C571.99 85.976 571.562 84.74 571.562 83.0263C571.562 80.917 572.419 78.8736 574.133 76.8962C575.879 74.8858 578.104 73.2708 580.807 72.0514C583.509 70.799 586.212 70.1728 588.914 70.1728C591.386 70.1728 593.462 70.5354 595.143 71.2604C596.824 71.9855 598.076 72.9578 598.9 74.1772C599.724 75.3636 600.136 76.6655 600.136 78.0826C600.136 79.6316 599.658 81.1806 598.703 82.7296C597.747 84.2786 596.445 85.5475 594.797 86.5362C596.049 86.8988 596.923 87.5085 597.417 88.3654C597.944 89.1893 598.208 90.2275 598.208 91.4799C598.208 92.4356 598.093 93.4573 597.862 94.5449C597.631 95.5995 597.302 96.9178 596.873 98.4998C596.61 99.5215 596.363 100.527 596.132 101.515C595.901 102.504 595.786 103.328 595.786 103.987C595.786 104.745 595.951 105.421 596.28 106.014C596.643 106.607 597.121 107.019 597.714 107.25C595.703 107.81 594.072 108.09 592.82 108.09ZM503.931 154.024L499.185 135.485C496.845 136.375 495.032 137.759 493.747 139.638C492.461 141.483 491.819 143.757 491.819 146.46C491.819 147.679 491.934 148.536 492.165 149.031C492.396 149.492 492.511 149.756 492.511 149.822C490.731 149.822 489.396 149.459 488.507 148.734C487.65 147.976 487.221 146.74 487.221 145.026C487.221 142.917 488.078 140.874 489.792 138.896C491.539 136.886 493.763 135.271 496.466 134.051C499.168 132.799 501.871 132.173 504.573 132.173C505.035 132.173 505.694 132.206 506.551 132.272L510.852 149.97L518.168 132.42H521.431L511.84 154.024L508.578 169.25H500.668L503.931 154.024Z" fill="#4DD0E1"/>
<path d="M662.725 0H448.114C447.41 0 446.839 0.570407 446.839 1.27404V294.108C446.839 294.812 447.41 295.383 448.114 295.383H662.725C663.429 295.383 664 294.812 664 294.108V1.27404C664 0.570407 663.429 0 662.725 0Z" fill="#80DEEA"/>
<path d="M647.997 307.503H440.182C439.667 307.503 439.25 307.92 439.25 308.434C439.25 308.949 439.667 309.366 440.182 309.366H647.997C648.512 309.366 648.929 308.949 648.929 308.434C648.929 307.92 648.512 307.503 647.997 307.503Z" fill="white"/>
<path d="M647.997 312.546H440.182C439.667 312.546 439.25 312.963 439.25 313.477C439.25 313.992 439.667 314.409 440.182 314.409H647.997C648.512 314.409 648.929 313.992 648.929 313.477C648.929 312.963 648.512 312.546 647.997 312.546Z" fill="white"/>
<path d="M647.997 318.91H440.182C439.667 318.91 439.25 319.327 439.25 319.842C439.25 320.356 439.667 320.773 440.182 320.773H647.997C648.512 320.773 648.929 320.356 648.929 319.842C648.929 319.327 648.512 318.91 647.997 318.91Z" fill="white"/>
<path d="M647.997 321.547H440.182C439.667 321.547 439.25 321.964 439.25 322.478C439.25 322.993 439.667 323.41 440.182 323.41H647.997C648.512 323.41 648.929 322.993 648.929 322.478C648.929 321.964 648.512 321.547 647.997 321.547Z" fill="white"/>
<path d="M640.217 26.0479H460.648C460.248 26.0479 459.924 26.3717 459.924 26.7712V38.2827C459.924 38.6822 460.248 39.0061 460.648 39.0061H640.217C640.617 39.0061 640.941 38.6822 640.941 38.2827V26.7712C640.941 26.3717 640.617 26.0479 640.217 26.0479Z" fill="white"/>
<path d="M564.375 49.3164H460.648C460.248 49.3164 459.924 49.6403 459.924 50.0398V61.5512C459.924 61.9508 460.248 62.2746 460.648 62.2746H564.375C564.775 62.2746 565.099 61.9508 565.099 61.5512V50.0398C565.099 49.6403 564.775 49.3164 564.375 49.3164Z" fill="white"/>
<path d="M605.316 255.408H500.608C500.479 255.408 500.375 255.513 500.375 255.641V259.352C500.375 259.481 500.479 259.585 500.608 259.585H605.316C605.445 259.585 605.549 259.481 605.549 259.352V255.641C605.549 255.513 605.445 255.408 605.316 255.408Z" fill="white"/>
<path d="M582.463 265.953H523.451C523.323 265.953 523.218 266.058 523.218 266.186V269.897C523.218 270.026 523.323 270.13 523.451 270.13H582.463C582.592 270.13 582.697 270.026 582.697 269.897V266.186C582.697 266.058 582.592 265.953 582.463 265.953Z" fill="white"/>
<path d="M626.624 278.683H479.3C479.171 278.683 479.067 278.787 479.067 278.916V282.627C479.067 282.755 479.171 282.86 479.3 282.86H626.624C626.753 282.86 626.857 282.755 626.857 282.627V278.916C626.857 278.787 626.753 278.683 626.624 278.683Z" fill="white"/>
<path fill-rule="evenodd" clip-rule="evenodd" d="M561.644 110.519C556.117 109.039 549.448 112.726 543.102 120.769C536.757 128.812 531.256 140.552 527.809 153.406C524.362 166.26 523.252 179.175 524.723 189.311C526.193 199.447 530.124 205.972 535.651 207.452C541.178 208.931 547.847 205.244 554.192 197.201C560.537 189.158 566.038 177.418 569.485 164.564C572.932 151.71 574.042 138.795 572.572 128.66C571.101 118.524 567.171 111.999 561.644 110.519ZM560.412 115.111C565.272 116.413 568.693 122.283 569.923 131.431C571.153 140.579 570.091 152.255 566.971 163.891C563.85 175.527 558.927 186.169 553.285 193.477C547.642 200.785 541.742 204.16 536.882 202.859C532.023 201.558 528.601 195.687 527.371 186.539C526.141 177.391 527.203 165.715 530.324 154.079C533.444 142.443 538.367 131.801 544.009 124.493C549.652 117.185 555.553 113.81 560.412 115.111Z" fill="#E0F7FA"/>
<path d="M546.337 167.61C551.1 168.885 555.995 166.061 557.271 161.302C558.547 156.543 555.721 151.652 550.958 150.377C546.196 149.102 541.301 151.926 540.025 156.685C538.749 161.443 541.575 166.335 546.337 167.61Z" fill="#00BCD4"/>
<path fill-rule="evenodd" clip-rule="evenodd" d="M597.152 145.999C595.671 140.477 589.141 136.549 578.997 135.079C568.854 133.61 555.929 134.719 543.065 138.163C530.201 141.607 518.452 147.104 510.403 153.445C502.354 159.785 498.664 166.45 500.145 171.972C501.626 177.495 508.156 181.423 518.3 182.892C528.443 184.362 541.368 183.252 554.232 179.808C567.096 176.364 578.844 170.867 586.893 164.527C594.942 158.187 598.632 151.522 597.152 145.999ZM592.555 147.23C593.857 152.086 590.48 157.982 583.167 163.62C575.853 169.258 565.203 174.178 553.558 177.295C541.913 180.413 530.228 181.474 521.074 180.245C511.919 179.016 506.044 175.598 504.741 170.742C503.439 165.886 506.817 159.99 514.13 154.352C521.443 148.714 532.094 143.795 543.739 140.677C555.383 137.559 567.068 136.498 576.223 137.727C585.378 138.956 591.253 142.374 592.555 147.23Z" fill="#E0F7FA"/>
<path fill-rule="evenodd" clip-rule="evenodd" d="M513.141 123.513C515.144 121.511 518.046 120.447 521.681 120.38C525.317 120.314 529.614 121.247 534.327 123.126C539.041 125.005 544.079 127.794 549.154 131.332C554.228 134.871 559.24 139.09 563.903 143.75C568.566 148.409 572.788 153.417 576.33 158.488C579.871 163.558 582.661 168.592 584.542 173.303C586.423 178.013 587.356 182.306 587.29 185.939C587.223 189.571 586.158 192.471 584.155 194.473C580.109 198.515 572.488 198.654 562.968 194.859C553.448 191.064 542.81 183.645 533.393 174.235C523.976 164.826 516.552 154.195 512.754 144.683C508.955 135.17 509.094 127.555 513.14 123.512L513.141 123.513ZM516.506 126.875C512.949 130.43 512.924 137.224 516.436 145.76C519.949 154.297 526.711 163.878 535.235 172.396C543.759 180.914 553.348 187.67 561.891 191.18C570.434 194.69 577.232 194.664 580.79 191.11C584.348 187.555 584.373 180.762 580.861 172.225C577.349 163.688 570.586 154.107 562.062 145.589C553.537 137.07 543.948 130.313 535.405 126.804C526.862 123.294 520.063 123.319 516.506 126.874V126.875Z" fill="#E0F7FA"/>
<path d="M511.547 144.083C514.433 144.856 517.4 143.145 518.173 140.261C518.946 137.377 517.234 134.413 514.348 133.64C511.462 132.868 508.495 134.579 507.722 137.463C506.949 140.346 508.662 143.311 511.547 144.083Z" fill="#00BCD4"/>
<path d="M585.62 144.188C588.506 144.961 591.472 143.249 592.245 140.365C593.019 137.482 591.306 134.518 588.42 133.745C585.534 132.972 582.568 134.683 581.794 137.567C581.021 140.451 582.734 143.415 585.62 144.188Z" fill="#00BCD4"/>
<path d="M547.672 205.106C550.558 205.879 553.525 204.167 554.298 201.283C555.071 198.4 553.359 195.435 550.473 194.663C547.587 193.89 544.62 195.601 543.847 198.485C543.074 201.369 544.786 204.333 547.672 205.106Z" fill="#00BCD4"/>
<defs>
<linearGradient id="paint0_linear_141_167" x1="106.508" y1="416.142" x2="105.883" y2="466.502" gradientUnits="userSpaceOnUse">
<stop stop-color="#F5F5F5"/>
</linearGradient>
<linearGradient id="paint1_linear_141_167" x1="516.564" y1="295.516" x2="516.026" y2="338.812" gradientUnits="userSpaceOnUse">
<stop stop-color="#F5F5F5"/>
</linearGradient>
</defs>
</svg>
