<svg width="200" height="50" viewBox="0 0 90 20" fill="none" xmlns="http://www.w3.org/2000/svg">
<path d="M4.75547 11V5.3125H6.27891L7.55625 8.98047C7.5875 9.06641 7.61745 9.15365 7.6461 9.24219C7.67735 9.32812 7.70469 9.41927 7.72813 9.51562H7.75938C7.78281 9.41927 7.80886 9.32812 7.8375 9.24219C7.86615 9.15365 7.89479 9.06641 7.92344 8.98047L9.15391 5.3125H10.7438V11H9.56016V7.24609C9.56016 7.15755 9.56146 7.05859 9.56406 6.94922C9.56927 6.83724 9.57708 6.73828 9.5875 6.65234H9.54453C9.5211 6.73828 9.49375 6.83724 9.4625 6.94922C9.43125 7.05859 9.4013 7.15755 9.37266 7.24609L8.09531 11H7.13828L5.82969 7.23047C5.80104 7.14193 5.7724 7.04427 5.74375 6.9375C5.71771 6.82812 5.69818 6.72917 5.68516 6.64062H5.63828C5.6461 6.72917 5.65391 6.82812 5.66172 6.9375C5.66953 7.04427 5.67344 7.14193 5.67344 7.23047V11H4.75547ZM12.5044 11L14.4848 5.28906H15.813L17.8052 11H16.5278L15.2231 6.95312C15.1893 6.85677 15.1593 6.76432 15.1333 6.67578C15.1072 6.58724 15.0838 6.49609 15.063 6.40234H15.0278C15.007 6.49609 14.9835 6.58724 14.9575 6.67578C14.9315 6.76432 14.9015 6.85677 14.8677 6.95312L13.563 11H12.5044ZM13.4653 9.69531L13.77 8.85156L16.4302 8.85547L16.7388 9.69531H13.4653ZM22.428 8.31641V7.99609C22.428 7.11589 22.6858 6.42969 23.2014 5.9375C23.7196 5.44271 24.3655 5.19531 25.1389 5.19531C25.9254 5.19531 26.5282 5.38411 26.9475 5.76172C27.3668 6.13932 27.6011 6.61589 27.6506 7.19141V7.23828H26.4319L26.428 7.19141C26.4071 6.89974 26.2926 6.63932 26.0842 6.41016C25.8759 6.18099 25.5608 6.06641 25.1389 6.06641C24.704 6.06641 24.3472 6.23958 24.0686 6.58594C23.79 6.92969 23.6506 7.39974 23.6506 7.99609V8.31641C23.6506 8.92578 23.79 9.39974 24.0686 9.73828C24.3472 10.0768 24.704 10.2461 25.1389 10.2461C25.566 10.2461 25.8837 10.1315 26.092 9.90234C26.303 9.67057 26.415 9.41016 26.428 9.12109L26.4319 9.07422H27.6506V9.12109C27.6142 9.69141 27.3811 10.1667 26.9514 10.5469C26.5243 10.9271 25.9202 11.1172 25.1389 11.1172C24.3655 11.1172 23.7196 10.8711 23.2014 10.3789C22.6858 9.88411 22.428 9.19661 22.428 8.31641ZM29.7823 11V5.3125H30.9738V7.64844H33.6144V5.3125H34.8058V11H33.6144V8.48828H30.9738V11H29.7823ZM36.5625 11L38.543 5.28906H39.8711L41.8633 11H40.5859L39.2812 6.95312C39.2474 6.85677 39.2174 6.76432 39.1914 6.67578C39.1654 6.58724 39.1419 6.49609 39.1211 6.40234H39.0859C39.0651 6.49609 39.0417 6.58724 39.0156 6.67578C38.9896 6.76432 38.9596 6.85677 38.9258 6.95312L37.6211 11H36.5625ZM37.5234 9.69531L37.8281 8.85156L40.4883 8.85547L40.7969 9.69531H37.5234ZM43.6317 11V5.3125H45.1552L46.4325 8.98047C46.4638 9.06641 46.4937 9.15365 46.5223 9.24219C46.5536 9.32812 46.5809 9.41927 46.6044 9.51562H46.6356C46.6591 9.41927 46.6851 9.32812 46.7138 9.24219C46.7424 9.15365 46.771 9.06641 46.7997 8.98047L48.0302 5.3125H49.62V11H48.4364V7.24609C48.4364 7.15755 48.4377 7.05859 48.4403 6.94922C48.4455 6.83724 48.4533 6.73828 48.4638 6.65234H48.4208C48.3973 6.73828 48.37 6.83724 48.3388 6.94922C48.3075 7.05859 48.2776 7.15755 48.2489 7.24609L46.9716 11H46.0145L44.7059 7.23047C44.6773 7.14193 44.6486 7.04427 44.62 6.9375C44.594 6.82812 44.5744 6.72917 44.5614 6.64062H44.5145C44.5223 6.72917 44.5302 6.82812 44.538 6.9375C44.5458 7.04427 44.5497 7.14193 44.5497 7.23047V11H43.6317ZM52.0017 8.90234V5.3125H53.197V8.90234C53.197 9.35547 53.3051 9.69271 53.5213 9.91406C53.74 10.1354 54.033 10.2461 54.4002 10.2461C54.7673 10.2461 55.0603 10.1354 55.2791 9.91406C55.4978 9.69271 55.6072 9.35547 55.6072 8.90234V5.3125H56.7361V8.90234C56.7361 9.63932 56.5082 10.1927 56.0525 10.5625C55.5968 10.9323 55.0356 11.1172 54.3689 11.1172C53.7022 11.1172 53.141 10.9323 52.6853 10.5625C52.2296 10.1927 52.0017 9.63932 52.0017 8.90234ZM59.1139 11V5.3125H60.4616L62.5397 8.95312C62.5866 9.03125 62.6295 9.12109 62.6686 9.22266C62.7077 9.32161 62.7428 9.41016 62.7741 9.48828H62.8053C62.7975 9.40234 62.791 9.29167 62.7858 9.15625C62.7806 9.01823 62.778 8.90495 62.778 8.81641V5.3125H63.778V11H62.4381L60.3366 7.375C60.2871 7.29688 60.2454 7.21745 60.2116 7.13672C60.1777 7.05599 60.1465 6.97656 60.1178 6.89844H60.0866C60.0918 6.98438 60.097 7.07682 60.1022 7.17578C60.1074 7.27214 60.11 7.36458 60.11 7.45312V11H59.1139ZM66.2183 11V5.3125H68.2417C69.0725 5.3125 69.7652 5.55599 70.3198 6.04297C70.8771 6.52734 71.1558 7.17839 71.1558 7.99609V8.31641C71.1558 9.13411 70.8771 9.78646 70.3198 10.2734C69.7652 10.7578 69.0725 11 68.2417 11H66.2183ZM67.4097 10.1602H68.2417C68.7547 10.1602 69.1649 9.9974 69.4722 9.67188C69.7795 9.34375 69.9331 8.89193 69.9331 8.31641V7.99609C69.9331 7.42057 69.7795 6.97005 69.4722 6.64453C69.1649 6.31641 68.7547 6.15234 68.2417 6.15234H67.4097V10.1602ZM72.6156 11L74.5961 5.28906H75.9242L77.9164 11H76.6391L75.3344 6.95312C75.3005 6.85677 75.2706 6.76432 75.2445 6.67578C75.2185 6.58724 75.1951 6.49609 75.1742 6.40234H75.1391C75.1182 6.49609 75.0948 6.58724 75.0687 6.67578C75.0427 6.76432 75.0128 6.85677 74.9789 6.95312L73.6742 11H72.6156ZM73.5766 9.69531L73.8812 8.85156L76.5414 8.85547L76.85 9.69531H73.5766Z" fill="url(#paint0_radial_155_280)"/>
<path d="M38.5695 13.6582V13.498C38.5695 13.0579 38.6984 12.7148 38.9562 12.4688C39.2154 12.2214 39.5383 12.0977 39.925 12.0977C40.3182 12.0977 40.6197 12.1921 40.8293 12.3809C41.0389 12.5697 41.1561 12.8079 41.1809 13.0957V13.1191H40.5715L40.5695 13.0957C40.5591 12.9499 40.5018 12.8197 40.3977 12.7051C40.2935 12.5905 40.1359 12.5332 39.925 12.5332C39.7076 12.5332 39.5292 12.6198 39.3898 12.793C39.2505 12.9648 39.1809 13.1999 39.1809 13.498V13.6582C39.1809 13.9629 39.2505 14.1999 39.3898 14.3691C39.5292 14.5384 39.7076 14.623 39.925 14.623C40.1385 14.623 40.2974 14.5658 40.4016 14.4512C40.507 14.3353 40.563 14.2051 40.5695 14.0605L40.5715 14.0371H41.1809V14.0605C41.1626 14.3457 41.0461 14.5833 40.8312 14.7734C40.6177 14.9635 40.3156 15.0586 39.925 15.0586C39.5383 15.0586 39.2154 14.9355 38.9562 14.6895C38.6984 14.4421 38.5695 14.0983 38.5695 13.6582ZM42.2467 15V12.1562H42.8424V13.3242H44.1627V12.1562H44.7584V15H44.1627V13.7441H42.8424V15H42.2467ZM45.6368 15L46.627 12.1445H47.2911L48.2872 15H47.6485L46.9962 12.9766C46.9792 12.9284 46.9643 12.8822 46.9512 12.8379C46.9382 12.7936 46.9265 12.748 46.9161 12.7012H46.8985C46.8881 12.748 46.8764 12.7936 46.8634 12.8379C46.8503 12.8822 46.8354 12.9284 46.8184 12.9766L46.1661 15H45.6368ZM46.1173 14.3477L46.2696 13.9258L47.5997 13.9277L47.754 14.3477H46.1173ZM49.1714 15V12.1562H50.2554C50.6187 12.1562 50.8993 12.237 51.0972 12.3984C51.2964 12.5599 51.396 12.7754 51.396 13.0449C51.396 13.3158 51.2971 13.5339 51.0991 13.6992C50.9012 13.8646 50.62 13.9473 50.2554 13.9473H49.7671V15H49.1714ZM49.7671 13.5293H50.2554C50.4585 13.5293 50.5998 13.4824 50.6792 13.3887C50.7586 13.2936 50.7984 13.179 50.7984 13.0449C50.7984 12.9121 50.7586 12.8008 50.6792 12.7109C50.5998 12.6198 50.4585 12.5742 50.2554 12.5742H49.7671V13.5293ZM50.7964 15L50.1343 13.6875L50.7925 13.6777L51.48 15H50.7964ZM52.4716 15V12.1562H53.0673V15H52.4716ZM54.016 12.5762V12.1562H56.4477V12.5762H55.5297V15H54.934V12.5762H54.016ZM56.9002 15L57.8905 12.1445H58.5545L59.5506 15H58.912L58.2596 12.9766C58.2427 12.9284 58.2277 12.8822 58.2147 12.8379C58.2017 12.7936 58.1899 12.748 58.1795 12.7012H58.162C58.1515 12.748 58.1398 12.7936 58.1268 12.8379C58.1138 12.8822 58.0988 12.9284 58.0819 12.9766L57.4295 15H56.9002ZM57.3807 14.3477L57.533 13.9258L58.8631 13.9277L59.0174 14.3477H57.3807ZM60.4348 15V12.1562H61.5364C61.8802 12.1562 62.1503 12.2168 62.347 12.3379C62.5436 12.459 62.6419 12.6497 62.6419 12.9102C62.6419 13.0664 62.6048 13.1947 62.5305 13.2949C62.4563 13.3939 62.3626 13.4622 62.2493 13.5V13.5078C62.3886 13.5469 62.5019 13.623 62.5891 13.7363C62.6764 13.8496 62.72 13.9974 62.72 14.1797C62.72 14.4401 62.6171 14.6419 62.4114 14.7852C62.207 14.9284 61.9355 15 61.597 15H60.4348ZM61.0266 14.5996H61.597C61.7792 14.5996 61.9127 14.5599 61.9973 14.4805C62.082 14.401 62.1243 14.293 62.1243 14.1562C62.1243 14.0195 62.082 13.9121 61.9973 13.834C61.9127 13.7546 61.7792 13.7148 61.597 13.7148H61.0266V14.5996ZM61.0266 13.3242H61.5364C61.7174 13.3242 61.8476 13.2904 61.927 13.2227C62.0078 13.1549 62.0481 13.0599 62.0481 12.9375C62.0481 12.8151 62.0078 12.7214 61.927 12.6562C61.8476 12.5898 61.7174 12.5566 61.5364 12.5566H61.0266V13.3242ZM63.8034 15V12.1562H64.3991V14.5801H65.7761V15H63.8034ZM66.715 15V12.1562H68.7658V12.5762H67.3107V13.3223H68.5783V13.7441H67.3107V14.5801H68.7853V15H66.715ZM70.9893 12.5762V12.1562H73.4209V12.5762H72.503V15H71.9073V12.5762H70.9893ZM74.3598 15V12.1562H75.4438C75.8071 12.1562 76.0877 12.237 76.2856 12.3984C76.4848 12.5599 76.5845 12.7754 76.5845 13.0449C76.5845 13.3158 76.4855 13.5339 76.2876 13.6992C76.0897 13.8646 75.8084 13.9473 75.4438 13.9473H74.9555V15H74.3598ZM74.9555 13.5293H75.4438C75.647 13.5293 75.7882 13.4824 75.8677 13.3887C75.9471 13.2936 75.9868 13.179 75.9868 13.0449C75.9868 12.9121 75.9471 12.8008 75.8677 12.7109C75.7882 12.6198 75.647 12.5742 75.4438 12.5742H74.9555V13.5293ZM75.9848 15L75.3227 13.6875L75.9809 13.6777L76.6684 15H75.9848ZM77.623 13.9512V12.1562H78.2206V13.9512C78.2206 14.1777 78.2747 14.3464 78.3827 14.457C78.4921 14.5677 78.6386 14.623 78.8222 14.623C79.0058 14.623 79.1523 14.5677 79.2616 14.457C79.371 14.3464 79.4257 14.1777 79.4257 13.9512V12.1562H79.9902V13.9512C79.9902 14.3197 79.8762 14.5964 79.6484 14.7812C79.4205 14.9661 79.1399 15.0586 78.8066 15.0586C78.4732 15.0586 78.1926 14.9661 77.9648 14.7812C77.7369 14.5964 77.623 14.3197 77.623 13.9512ZM81.0209 14.1875V14.1504H81.6224V14.1875C81.6224 14.3333 81.6752 14.4434 81.7806 14.5176C81.8861 14.5918 82.0332 14.6289 82.222 14.6289C82.4121 14.6289 82.5573 14.5938 82.6576 14.5234C82.7591 14.4518 82.8099 14.3587 82.8099 14.2441C82.8125 14.1309 82.7715 14.0462 82.6869 13.9902C82.6022 13.9329 82.39 13.8665 82.0502 13.791C81.7116 13.7168 81.4636 13.6139 81.306 13.4824C81.1498 13.3496 81.0716 13.1621 81.0716 12.9199C81.0716 12.6829 81.1719 12.487 81.3724 12.332C81.5742 12.1758 81.8516 12.0977 82.2045 12.0977C82.5573 12.0977 82.8373 12.1816 83.0443 12.3496C83.2526 12.5176 83.3568 12.7201 83.3568 12.957V12.9941H82.7591V12.957C82.7591 12.8281 82.7129 12.7246 82.6205 12.6465C82.528 12.5671 82.3893 12.5273 82.2045 12.5273C82.0235 12.5273 81.8893 12.5586 81.8021 12.6211C81.7149 12.6823 81.6712 12.7585 81.6712 12.8496C81.6712 12.9681 81.711 13.0534 81.7904 13.1055C81.8711 13.1576 82.0606 13.2161 82.3587 13.2812C82.7038 13.3581 82.9649 13.4681 83.142 13.6113C83.3203 13.7533 83.4095 13.9525 83.4095 14.209C83.4095 14.4603 83.3028 14.6647 83.0892 14.8223C82.8757 14.9798 82.5866 15.0586 82.222 15.0586C81.8614 15.0586 81.571 14.9811 81.3509 14.8262C81.1309 14.6699 81.0209 14.457 81.0209 14.1875ZM84.1707 12.5762V12.1562H86.6023V12.5762H85.6844V15H85.0887V12.5762H84.1707Z" fill="url(#paint1_radial_155_280)" fill-opacity="0.6"/>
<defs>
<radialGradient id="paint0_radial_155_280" cx="0" cy="0" r="1" gradientUnits="userSpaceOnUse" gradientTransform="translate(41 8) scale(38 2.12845)">
<stop stop-color="#FF2A2A" stop-opacity="0.3"/>
<stop offset="0.150261" stop-color="#FF2A2A" stop-opacity="0.5"/>
<stop offset="0.571804" stop-color="#FF2A2A" stop-opacity="0.7"/>
<stop offset="0.716346" stop-color="#991919"/>
</radialGradient>
<radialGradient id="paint1_radial_155_280" cx="0" cy="0" r="1" gradientUnits="userSpaceOnUse" gradientTransform="translate(62.5 13.5) scale(24.5 1.06423)">
<stop stop-color="#FF2A2A" stop-opacity="0.3"/>
<stop offset="0.150261" stop-color="#FF2A2A" stop-opacity="0.5"/>
<stop offset="0.571804" stop-color="#FF2A2A" stop-opacity="0.7"/>
<stop offset="0.716346" stop-color="#991919"/>
</radialGradient>
</defs>
</svg>
