<svg width="500" height="500" viewBox="0 0 500 500" fill="none" xmlns="http://www.w3.org/2000/svg">
<g id="Clipboard">
<path id="Icon" d="M333.333 83.3327H375C386.051 83.3327 396.649 87.7225 404.463 95.5366C412.277 103.351 416.667 113.949 416.667 124.999V416.666C416.667 427.717 412.277 438.315 404.463 446.129C396.649 453.943 386.051 458.333 375 458.333H125C113.949 458.333 103.351 453.943 95.5373 446.129C87.7232 438.315 83.3334 427.717 83.3334 416.666V124.999C83.3334 113.949 87.7232 103.351 95.5373 95.5366C103.351 87.7225 113.949 83.3327 125 83.3327H166.667M187.5 41.666H312.5C324.006 41.666 333.333 50.9934 333.333 62.4993V104.166C333.333 115.672 324.006 124.999 312.5 124.999H187.5C175.994 124.999 166.667 115.672 166.667 104.166V62.4993C166.667 50.9934 175.994 41.666 187.5 41.666Z" stroke="#1E1E1E" stroke-width="4" stroke-linecap="round" stroke-linejoin="round"/>
</g>
</svg>
