<?xml version='1.0' encoding='utf-8'?>
<svg xmlns="http://www.w3.org/2000/svg" clip-rule="evenodd" fill-rule="evenodd" stroke-linejoin="round" stroke-miterlimit="2" version="1.1" viewBox="0 0 1024 1024"><g fill-rule="nonzero"><path d="m520.24 36.422c4.26-9.866 18.224-14.406 26.884-7.515 5.787 4.42 6.43 12.397 5.566 19.108-2.632 20.736-5.465 41.451-7.093 62.307-1.386 18.747-0.663 37.593-2.291 56.34-1.547 18.787-4.963 37.372-5.807 56.219 0.121 3.536-0.543 7.736 2.09 10.609 2.311 2.311 7.173 1.025 7.153-2.572 2.652-20.173 4.762-40.487 9.825-60.278 7.414-29.175 12.337-58.892 16.777-88.649 1.226-6.289 1.909-13.261 6.309-18.284 7.133-7.233 20.796-4.581 25.437 4.24 3.315 5.485 2.351 12.156 1.748 18.224-3.757 30.842-8.218 61.604-10.951 92.547-2.029 24.553-11.332 47.901-13.261 72.434-1.105 5.525 4.682 9.182 9.424 9.906 3.195-2.572 4.139-6.912 5.867-10.468 6.048-15.612 13.141-30.802 20.314-45.912 7.495-15.592 10.689-32.811 17.621-48.624 2.813-5.988 7.294-13.04 14.688-13.221 6.168-0.824 12.076 3.838 13.221 9.845 1.005 6.108-0.603 12.257-1.828 18.224-4.782 22.845-12.638 44.887-20.394 66.869-7.294 18.606-14.587 37.453-17.762 57.284-0.985 10.87-0.221 21.841-1.969 32.651-2.934 19.912-5.626 39.864-8.499 59.796-3.757 27.246-11.714 53.768-22.946 78.844-3.978 8.459-6.952 17.702-13.241 24.794-4.862 5.465-12.337 6.389-19.108 7.675 7.756 1.527 15.411-1.186 21.539-5.927-0.06 24.674-7.113 48.865-5.365 73.62 1.487 35.504 4.199 70.927 6.711 106.37 1.527 40.989 6.188 81.878 6.912 122.87-26.904 57.324-44.485 118.63-56.862 180.61-0.502 2.833-3.556 4.059-5.425 5.867-6.711 4.641-11.995 10.91-18.164 16.175-3.657-0.723-5.706-4.662-8.559-6.811-4.762-5.164-11.674-8.318-15.632-14.105-12.297-59.957-29.094-119.35-54.27-175.27-2.15-6.068 0.02-12.578 0.422-18.787 6.269-56.802 11.794-113.72 15.451-170.77 1.808-44.807 4.802-90.96-8.278-134.44 17.903 8.56 39.462 11.192 57.927 2.793-16.878 3.014-34.72 3.355-50.674-3.777-11.674-4.461-20.454-13.743-28.09-23.287-10.368-13.06-20.756-26.161-32.47-38.076-7.937-8.6-17.3-16.797-20.716-28.431-4.32-13.1-7.977-26.502-14.346-38.799-4.722-9.725-11.151-18.465-16.818-27.648-4.963-7.937-5.847-17.561-10.046-25.839-4.621-10.308-12.538-18.546-18.284-28.15-3.456-4.802 1.105-10.428 5.606-12.377 8.56-4.3 18.465-1.286 26.462 2.813 14.768 8.037 26.623 21.117 33.495 36.448 5.646 12.94 13.543 24.875 23.066 35.303 5.907 6.249 15.13 11.071 23.729 7.454 7.856-2.974 16.235-3.617 24.533-4.36-7.093-2.512-14.648-2.13-21.901-0.542 7.374-8.7 15.311-16.878 23.709-24.593-8.338 3.335-14.427 10.267-21.258 15.813 9.845-25.498 13.542-52.703 16.155-79.748 1.226-20.836-1.085-41.672-0.784-62.528-0.362-18.083 1.266-36.107 2.592-54.11 0.764-18.887 1.346-38.297 7.997-56.199 2.25-6.49 7.916-12.558 15.311-12.015 8.559-0.402 13.784 8.238 14.246 15.873 2.09 24.774-1.366 49.629 0.824 74.403 2.652 26.181 1.648 52.623 4.883 78.743 0.402 5.485 7.374 7.675 11.694 5.043 4.983-2.391 5.164-8.72 5.586-13.442 0.984-23.107 0.382-46.294 2.572-69.32 3.014-24.593 6.852-49.066 9.765-73.66 2.371-13.283 3.616-27.066 8.981-39.584m-7.253 55.496c8.961 1.326 18.083 1.326 27.105 2.21-8.078-4.963-18.365-6.088-27.105-2.21m-69.541 29.597c8.881-0.563 17.702-1.949 26.603-2.21-8.56-3.838-18.647-2.492-26.603 2.21m130.04 0.542c5.988 3.918 14.226 3.657 21.238 5.304-5.526-5.445-13.904-6.228-21.238-5.304m-64.618 37.774c8.68 0.462 17.34 0.864 26.02 1.467-7.314-5.706-17.943-5.184-26.02-1.467m-64.418 14.427c8.7-1.065 17.4-2.15 26.181-2.512-8.198-4.4-18.666-2.391-26.181 2.512m181.28 21.117c4.38 5.164 11.533 6.53 17.541 9.062-4.582-5.003-10.911-7.936-17.541-9.062m-121.56 89.453c19.309 22.062 45.912 38.056 74.685 43.903-12.437-5.325-25.216-10.006-36.81-17.059-13.623-7.495-25.639-17.38-37.875-26.844m-36.77 22.223c24.433 26.884 35.243 63.312 38.457 98.836 1.829-36.067-9.825-75.207-38.457-98.836m9.805 212.98c0.844 26.362 1.085 52.763 1.427 79.145 2.492-26.221 4.501-53.245-1.427-79.145z"/><path d="m70.805 228.91c8.138-5.807 19.51-1.346 25.678 5.425 11.011 13.02 13.764 30.42 19.731 45.912 2.25-13-1.306-26.482 2.592-39.201 11.794 0.141 20.294 11.212 22.805 21.861 3.516 15.974 3.275 32.47 5.083 48.665 0.844 15.23 3.697 30.34 3.114 45.63-0.101 4.059 2.672 7.334 4.862 10.509 8.097 10.83 14.869 22.604 20.856 34.72-6.128-4.24-12.658-7.816-19.369-11.031-2.612-15.17-10.609-28.491-18.365-41.491-5.104-14.165-10.589-28.21-15.431-42.476-3.476-10.006-8.138-19.631-14.326-28.25 4.601 13.402 10.308 26.402 14.929 39.784-8.58-7.756-18.606-18.224-31.325-15.934-6.47 0.944-7.153 7.776-9.464 12.618-2.27-15.13-5.606-30.139-10.609-44.606-1.326-3.918-1.808-8.037-2.291-12.096 2.07-1.246 4.139-2.451 6.229-3.657-1.605-8.761-5.061-17.38-4.699-26.382z"/><path d="m920.64 235.9c6.028-7.314 16.818-12.397 25.9-7.695 2.954 1.989 1.628 5.586 1.125 8.459-1.447 6.249-3.295 12.397-4.883 18.626 1.487 0.402 4.461 1.226 5.947 1.648 0.623 11.172-4.883 21.379-7.153 32.088-6.852 30.601-12.457 61.524-16.014 92.668-1.728 13.321-13.301 21.941-21.58 31.425-1.105-0.08-2.19-0.181-3.235-0.321 6.831-25.94 12.518-52.341 22.062-77.498 3.396-8.881 9.444-16.697 11.332-26.141-2.049-6.892-10.709-7.776-16.617-6.068-8.178 2.833-14.326 9.223-20.595 14.869 3.235-13.442 8.7-26.141 13.763-38.94-10.81 12.498-14.688 28.974-19.892 44.244-3.416 8.037-6.49 16.215-8.821 24.654-6.952 13.161-13.442 26.703-17.28 41.15-6.631 3.396-12.679 7.756-18.505 12.377 5.505-9.966 10.187-20.454 16.797-29.777 3.315-4.702 6.731-9.745 7.133-15.672 1.125-26.362 3.034-52.703 5.023-79.025 1.125-10.549 2.25-22.243 10.167-30.139 3.717-4.42 9.122-6.892 14.828-7.434 3.657 12.377 0.944 25.397 2.753 38.035 5.85-13.825 7.438-29.899 17.745-41.533z"/><path d="m854.96 290.98c2.773-3.757 7.233-5.304 11.674-6.048 2.974 16.637 3.195 33.716 0.904 50.433-1.266 8.66-0.02 17.561-1.869 26.121-3.134 6.55-8.158 11.975-11.654 18.345-4.662 7.073-7.354 15.331-12.458 22.102-8.198 1.648-16.918 0.301-25.096 2.652 7.093-12.317 15.07-24.091 24.312-34.901-0.261-12.317 2.451-24.553 6.57-36.087-1.786-14.306-2.449-31.023 7.617-42.617z"/><path d="m151.8 287.28c9.423-0.08 15.311 8.539 18.505 16.355 4.26 9.986 3.938 21.077 2.612 31.646 2.592 11.553 6.872 22.966 6.791 34.981 8.781 11.634 16.295 24.091 23.991 36.448-2.592-0.542-7.756-1.648-10.348-2.19 0.201 0.884 0.583 2.632 0.784 3.516 11.131-0.221 20.394 6.771 28.612 13.422 8.921 7.073 14.185 17.682 23.227 24.634-2.672-5.445-6.389-10.267-9.845-15.21 12.658 2.833 25.819 8.178 38.839 4.079 8.781-2.632 17.903-3.114 26.985-3.777-12.397-4.219-25.337-0.201-37.553 2.492-9.283-13.764-22.383-24.372-31.606-38.156-7.274-10.709-13.623-22.263-17.139-34.78-1.768-7.796-1.969-17.883 5.284-23.026 8.097-5.546 18.405-1.286 25.357 4.139 24.031 17.601 32.229 48.644 54.954 67.491 12.678 10.709 28.853 16.014 41.933 26.181 19.369 14.668 35.926 33.836 45.209 56.481 5.867 14.487 7.856 30.099 10.348 45.43 3.014 15.933 8.76 31.184 12.92 46.836 6.852 24.654 12.216 49.689 16.516 74.906 1.708 11.252 5.405 22.464 3.798 33.957-3.034 30.983-5.947 61.986-10.066 92.828-10.107-17.621-17.802-36.468-26.402-54.833-14.226-28.552-41.471-48.222-70.787-59.213-1.648-34.539-7.937-72.394-33.535-97.811-24.111-24.071-53.346-42.014-81.797-60.399-12.196-8.017-25.417-14.386-37.171-23.066-8.921-6.269-11.413-17.44-15.773-26.784-5.445-14.125-16.637-24.754-27.045-35.263-9.845-9.665-19.168-19.791-28.652-29.777-3.938-4.079-6.55-9.363-6.992-15.049-2.451-21.941-6.53-43.661-10.589-65.362 0.643-1.849 1.407-3.677 2.25-5.445 2.793 10.127 9.383 18.586 12.699 28.512 5.947 17.32 11.815 34.7 16.436 52.422 2.391 8.419 1.286 18.666 8.62 24.835 15.351 14.205 30.882 28.23 44.927 43.762 7.133 8.057 11.312 18.646 20.253 25.076 9.624 7.113 19.771 13.462 29.757 20.053-0.1-0.502-0.301-1.507-0.422-1.989-9.263-7.093-18.827-13.804-28.311-20.595-9.524-6.892-12.859-18.947-21.117-27.005-12.578-12.859-25.136-25.819-38.638-37.734-3.777-3.456-8.117-7.133-8.801-12.518-4.079-22.022-11.774-43.119-18.686-64.337-3.918-12.136-11.714-22.524-15.572-34.66 5.646-3.376 12.739-3.516 18.465-0.221 14.467 7.595 22.725 22.725 27.808 37.654-0.764 0.643-2.25 1.949-2.994 2.592 2.632 1.567 5.646 2.954 7.213 5.807 7.334 11.754 13.201 24.513 16.657 37.955 16.014 8.58 30.561 20.093 41.853 34.439 2.19 3.717 7.053 3.074 10.689 4.139 9.524 1.447 18.023 6.369 25.819 11.815-0.06-0.563-0.141-1.708-0.181-2.27-8.117-7.394-18.505-11.473-29.195-13.342-4.3-0.342-6.289-4.38-8.76-7.294-4.32-5.485-10.066-9.524-14.909-14.467 3.838 0.322 7.655 0.723 11.493 1.266 0.944-1.065 1.909-2.11 2.873-3.134-5.043 0.08-10.046-0.241-14.989-1.145-5.887-13.603-14.045-26.08-22.906-37.895-3.074-3.717-1.909-8.76-2.27-13.161 0-12.156-2.572-24.111-3.054-36.227 0.583-9.348 0.182-18.751 1.628-28.014m100.91 112.32c7.756-4.842 16.195-9.062 22.805-15.411-9.283 1.969-16.818 8.359-22.805 15.411m-10.609 52.583c30.32 12.538 63.694 16.737 93.13 31.746 16.215 8.499 30.581 21.439 38.598 38.116 3.074 5.867 4.682 12.417 7.977 18.204-2.934-21.921-16.677-41.712-34.981-53.788-23.93-15.853-52.743-20.796-79.889-28.471-8.299-1.849-16.296-5.305-24.835-5.807z"/><path d="m886.11 346.57c4.923-16.034 14.567-31.726 29.878-39.583 4.661-1.989 12.156-2.733 15.13 2.371-2.09 10.79-10.589 19.189-13.522 29.838-6.711 22.745-14.085 45.369-18.345 68.737-0.603 5.606-5.566 8.801-9.504 12.116-9.363 7.274-17.3 16.094-25.859 24.232-7.193 7.575-15.592 14.427-20.354 23.93-2.692 4.983-5.465 10.167-10.066 13.663-10.729 8.278-22.544 15.21-32.41 24.593 7.113-3.617 13.563-8.339 20.274-12.638 8.117-5.586 17.641-10.388 22.042-19.751 6.691-13.462 18.485-23.066 28.974-33.414 7.896-7.535 15.491-15.411 23.79-22.504 1.507-0.583 4.22-3.074 5.465-0.784-1.768 1.768-4.079 2.913-6.028 4.461-9.243 9.504-19.088 18.566-26.643 29.536-7.173 10.87-8.037 25.116-17.119 34.861-8.017 7.756-18.244 12.618-27.587 18.526-25.196 15.491-50.855 30.46-74.122 48.845-14.145 11.272-27.487 24.151-36.127 40.246-12.176 22.544-16.476 48.423-18.405 73.7-30.983 10.167-59.494 30.862-74.725 60.198-8.861 17.581-15.994 36.127-26.502 52.844-1.909-33.253-4.863-66.406-6.811-99.66-0.422-5.385 1.005-10.649 1.969-15.893 5.124-29.114 11.031-58.128 19.148-86.559 4.481-16.054 10.107-31.867 12.759-48.383 3.275-19.189 6.811-39.06 17.38-55.797 15.873-25.377 40.226-44.204 66.426-58.028 31.445-17.099 40.005-56.059 68.335-76.493 5.887-4.219 13.382-7.213 20.675-5.325 6.55 1.788 10.529 8.559 10.388 15.13-0.121 7.515-2.753 14.728-5.827 21.479-5.807 12.357-12.839 24.252-22.022 34.419-7.575 8.7-17.461 15.712-22.062 26.643-12.859-2.954-26.141-6.289-39.342-3.376 9.966 0.422 19.791 2.271 29.396 5.023 13.02 4.24 25.779-2.974 38.236-5.947-3.677 5.726-8.117 11.031-10.971 17.26 8.981-5.827 13.402-16.155 21.479-22.966 6.209-5.305 12.879-10.247 20.454-13.462 8.278-3.034 17.239-3.516 25.98-3.014-7.374 5.586-12.839 13.06-19.188 19.651-12.156 3.195-24.794 7.133-33.836 16.396 9.343-3.958 18.003-9.845 28.23-11.453 3.054-0.944 7.133-0.342 9.042-3.476 11.393-15.572 28.09-25.859 43.682-36.589 4.159-11.634 8.097-23.448 14.005-34.358 1.889-3.938 5.927-5.907 9.403-8.198-1.285-0.264-3.877-0.786-5.163-1.047m-142.32 35.001c6.229 6.992 15.009 11.232 22.906 16.134-6.349-6.911-13.723-13.461-22.906-16.134m12.156 73.741c-28.351 8.399-58.61 13.422-83.425 30.541-18.244 11.493-31.445 30.943-34.499 52.382 3.697-6.711 5.827-14.165 9.705-20.776 8.178-16.074 22.845-27.949 38.839-35.725 29.014-13.864 61.082-19.369 90.839-31.345-7.414 0.241-14.366 3.134-21.459 4.923z"/><path d="m971.16 527.49c6.631-5.184 17.139-9.584 24.453-3.295-0.583 8.961-6.269 16.998-10.267 24.895-7.595 2.471-15.873 3.737-22.283 8.881-14.467 11.071-25.056 26.482-32.872 42.777-4.802 10.408-12.839 18.827-17.822 29.114-3.074 6.47-9.263 10.569-13.141 16.476-4.762 6.249-8.037 13.422-12.337 19.952-6.389 4.802-14.346 6.992-21.66 10.066 7.475-10.328 16.516-19.369 25.498-28.391 2.612-2.793 5.445-5.586 6.952-9.162 6.45-22.403 13.804-44.545 19.51-67.17 3.074-10.368 5.465-21.298 11.694-30.34 5.144-7.213 13.583-13.482 22.946-11.794 0.703 13.763-5.646 26.482-6.389 40.045 8.78-13.743 12.357-31.424 25.718-42.054z"/><path d="m28.389 527.73c9.685-8.981 23.649-0.663 29.938 8.359 9.825 11.493 11.593 27.286 19.872 39.583 0.723-14.005-7.193-27.266-4.541-41.311 9.564-0.703 18.244 5.767 22.202 14.206 4.722 10.026 6.731 21.037 9.323 31.767 4.983 20.052 9.685 40.206 13.743 60.479 0.985 4.139 4.179 7.193 7.093 10.107 9.223 8.76 17.882 18.184 25.136 28.672-7.515-2.954-17.24-4.661-20.695-12.98-5.606-11.774-14.467-21.419-23.328-30.762-10.508-17.44-18.144-36.468-28.391-54.049-4.039-7.073-10.066-12.678-15.994-18.124-6.852-6.289-15.954-8.801-24.553-11.654-3.777-7.878-7.655-15.794-9.805-24.293z"/><path d="m982.11 552.66c4.24-0.784 8.258 0.764 11.674 3.235-3.315 11.573-11.594 20.675-16.255 31.626-1.989 4.36-3.898 8.74-5.767 13.161-3.556-2.934-7.274-6.389-12.156-6.41-9.946-0.663-18.244 5.686-26.563 10.066 5.043-11.855 12.216-22.665 19.952-32.892 7.596-8.8 16.778-18.003 29.115-18.786z"/><path d="m30.559 560.38c5.043-7.253 15.009-3.677 21.298-0.241 18.807 10.247 27.045 31.204 36.87 49.026-8.62-4.44-16.677-11.855-26.964-11.393-4.722-0.221-8.459 3.054-12.236 5.385-3.195-7.655-5.807-15.572-9.866-22.825-3.396-6.47-7.454-12.759-9.102-19.952z"/><path d="m902.66 569.78c2.411-1.386 6.872-2.17 8.298 0.884-0.522 6.751-2.311 13.342-3.094 20.073-1.628 13.06-7.354 25.056-10.649 37.714-1.628 5.807-2.612 12.417-7.454 16.597-10.428 9.685-20.213 20.073-28.813 31.425-7.776-0.563-15.552-1.266-23.328-1.828 8.861-10.488 18.887-19.892 29.436-28.652 3.777-9.464 6.369-19.49 11.634-28.331 5.445-7.314 4.24-16.918 7.213-25.176 2.552-9.284 8.318-17.864 16.757-22.706z"/><path d="m110.51 576.63c-0.422-5.063 6.189-2.23 8.439-0.884 13.743 8.68 15.773 26.121 17.842 40.768 4.581 9.162 8.278 18.706 11.433 28.451 1.226 4.822 5.345 7.896 8.76 11.151 8.017 7.053 14.668 15.411 21.821 23.287-7.695 0.141-15.351 0.643-23.006 1.266-8.057-10.328-15.733-21.117-25.678-29.757-4.26-3.476-7.314-8.278-8.218-13.723-3.818-20.152-11.614-39.823-11.393-60.559z"/><path d="m915.06 631.29c9.062-14.828 21.76-28.954 39.12-33.615 5.505-1.607 11.252 0.201 14.567 4.903-6.55 10.187-15.592 18.485-21.62 29.014-9.484 15.853-18.204 32.188-26.342 48.765-3.195 5.907-4.32 13.643-10.569 17.28-17.702 10.971-35.444 21.881-52.763 33.434-9.042 5.606-13.944 16.215-24.011 20.334-12.779 5.546-26.141 9.665-38.719 15.632 9.182-1.909 17.882-5.505 26.804-8.298 7.394-2.512 15.371-4.461 21.298-9.865 6.329-5.807 11.875-12.618 19.309-17.139 15.21-9.504 30.26-19.249 45.389-28.873 4.661-3.215 10.086-6.229 12.216-11.815 8.559-20.615 19.45-40.185 31.104-59.213 4.481-6.912 9.363-13.623 15.11-19.55-8.138 18.907-15.21 38.236-21.258 57.907-1.608 5.023-3.657 10.247-7.816 13.743-12.337 9.946-25.176 19.249-38.578 27.728-11.091 8.238-23.368 15.672-31.083 27.487-5.244 6.731-9.223 14.708-16.114 19.972-6.972 4.722-15.351 6.53-23.308 8.901-30.681 8.861-61.926 15.954-91.904 27.125-21.66 7.937-42.416 21.178-54.612 41.271-15.009 24.292-20.957 52.643-27.668 80.029-41.853 12.739-82.28 31.345-117.66 57.264 9.363-46.515 21.62-92.587 38.98-136.81 10.569-28.049 24.352-54.672 37.674-81.476 7.314-15.049 13.321-31.023 24.172-44.023 16.436-20.052 39.864-33.314 64.136-41.632 14.145-5.083 29.516-6.611 42.858-13.824 22.242-11.754 36.388-34.178 58.51-46.113 7.173-3.757 15.009-7.736 23.408-6.51 6.731 0.844 13 6.51 13.04 13.603 0.221 7.756-4.38 14.547-8.519 20.736-10.729 14.688-24.654 26.904-40.145 36.368-6.751 4.159-13.623 8.278-19.289 13.904-11.212-5.706-22.966-11.794-35.926-11.252 6.349 2.371 13 3.978 19.148 6.892 5.586 2.532 10.79 6.128 16.918 7.273 8.781 1.668 17.682-0.442 26.543-0.241-4.561 4.4-9.725 8.158-13.964 12.879 10.488-4.159 18.204-12.98 28.25-17.943 6.912-3.456 14.206-6.41 21.881-7.595 8.017-0.804 16.074 0.703 23.93 2.371-7.475 3.958-14.487 8.6-21.097 13.844-12.277 0.201-25.116 1.447-35.845 7.977 12.076-2.833 24.192-5.586 36.709-5.104 11.473-7.434 22.906-15.19 35.685-20.334 5.063-2.512 10.85-3.617 15.512-6.872 7.314-10.669 12.96-22.725 22.343-31.807 2.351-2.552 5.847-3.115 8.982-4.199-1.187-0.643-3.598-1.909-4.783-2.532m-142.18 6.651c4.702 8.178 11.714 14.808 18.465 21.318-4.441-8.318-10.087-16.596-18.465-21.318m-19.993 71.691c-25.638 0.623-52.02-1.266-76.674 7.213-19.631 6.209-37.212 20.173-45.148 39.462 5.325-4.943 8.74-11.513 13.904-16.617 10.026-10.569 23.468-17.059 37.332-20.937 34.499-9.283 70.947-2.049 105.69-9.946-11.714-0.582-23.408 0.704-35.102 0.825z"/><path d="m52.48 604.3c9.243-7.334 21.318-1.427 29.576 4.561 8.017 6.631 15.552 14.768 19.49 24.533-0.482 0.804-1.427 2.431-1.889 3.235 9.343 2.512 14.748 11.111 20.153 18.425 4.742 6.249 7.655 13.663 12.357 19.892 17.481 7.856 35.564 15.572 50.031 28.532 11.935-2.492 23.468 1.547 35.062 3.657-10.348-6.45-22.805-7.615-34.7-7.414-7.515-5.646-15.331-10.85-23.187-16.014 8.961-1.386 18.264-2.15 27.246-0.281 16.295 4.159 29.576 14.909 43.541 23.709-3.637-4.26-7.776-8.017-11.855-11.774 8.158 0.301 16.355 0.924 24.493-0.1 7.575-1.286 13.864-5.988 20.655-9.243 5.184-2.592 10.93-3.737 16.114-6.349-12.719-0.1-23.689 6.671-34.519 12.377-11.131-10.448-25.417-16.637-36.87-26.683-10.83-9.444-21.238-20.113-27.206-33.374-2.873-6.048-3.134-13.844 1.467-19.088 4.44-4.702 11.714-5.646 17.702-3.798 16.054 4.601 29.114 15.813 40.406 27.688 10.709 11.553 23.75 21.158 38.437 26.944 15.351 4.862 31.485 7.032 46.515 12.92 14.206 5.566 27.869 12.879 39.482 22.845 14.648 11.935 24.895 28.391 32.249 45.61 5.907 14.447 13.301 28.23 20.354 42.154 29.014 59.213 46.655 123.17 61.142 187.26-35.845-24.513-74.906-44.646-116.54-57.304-6.329-28.733-12.297-58.691-29.456-83.244-11.413-18.244-31.264-28.733-50.955-35.725-32.691-11.091-66.226-19.309-99.198-29.476-9.202-3.014-19.57-5.867-25.337-14.326-7.434-10.549-14.366-21.861-25.076-29.436-12.377-10.488-26.502-18.586-39.08-28.793-7.334-5.103-16.838-9.484-18.646-19.269-5.063-20.535-13.1-40.165-18.746-60.499 10.448 11.774 17.621 25.9 25.176 39.603 6.168 11.533 12.638 22.966 17.039 35.323 1.708 5.104 4.4 10.066 9.062 13.06 15.793 10.247 31.566 20.494 47.298 30.822 10.448 6.811 17.601 18.063 29.516 22.745 12.839 5.264 25.98 10.207 39.583 13.141-11.995-5.927-24.794-10.006-37.212-14.909-13.06-4.903-20.133-17.943-31.807-24.915-15.23-9.685-30.44-19.39-45.59-29.134-5.606-4.3-7.193-11.674-10.227-17.722-7.334-17.461-17.702-33.354-26.301-50.192-5.686-10.609-15.29-18.646-19.751-29.978m172.62 59.434c6.269-6.349 12.719-12.739 17.722-20.153-8.72 3.536-13.482 12.277-17.722 20.153m4.461 49.87c18.947 3.215 38.236 2.491 57.385 2.833 25.357-0.04 52.442 2.13 73.881 17.139 10.328 6.45 16.757 16.998 24.553 26.02-8.158-19.61-26.1-34.439-46.273-40.467-27.848-9.283-57.566-5.747-86.358-6.229-7.717 0.262-15.573-1.024-23.188 0.704z"/><path d="m658.62 914.69c7.093-29.476 14.145-60.318 32.51-85.133 1.125 25.458 2.893 50.875 5.003 76.292-12.658 2.21-25.135 5.425-37.513 8.841z"/><path d="m327.25 833.58c17.882 23.569 23.669 53.487 29.878 81.777-11.593-3.396-23.287-6.45-35.162-8.6 2.712-24.332 3.937-48.765 5.284-73.177z"/></g></svg>