<svg width="1120" height="220" viewBox="0 0 1120 220" fill="none" xmlns="http://www.w3.org/2000/svg">
<path opacity="0.98598" d="M12.0026 110H1108C1114.65 110 1120 111.965 1120 114.406V133.799C1120 136.24 1114.65 138.205 1108 138.205H12.0026C5.35308 138.205 0 136.24 0 133.799V114.406C0 111.965 5.35308 110 12.0026 110Z" fill="black"/>
<path d="M158.711 106.297C158.711 106.297 214.133 62.7894 217.678 59.3073C221.225 55.8267 236.3 47.9955 245.167 48.4304C254.035 48.8655 266.449 50.6058 271.77 46.6901C277.09 42.7744 290.391 31.8975 290.391 31.8975C290.391 31.8975 294.825 31.0273 296.155 31.0273C297.485 31.0273 278.42 57.1323 278.42 57.1323C278.42 57.1323 271.77 60.6129 269.553 61.048C267.336 61.4831 237.629 68.3351 226.988 74.8611C216.347 81.3871 204.377 112.387 204.377 112.387L155.164 112.822L158.711 106.297Z" fill="black" stroke="black"/>
<path d="M249.011 36.7215C249.011 36.7215 241.565 38.154 238.259 42.7612C235.151 47.0939 227.75 52.4178 225.313 54.4392C229.179 52.3062 233.23 50.5783 236.579 50.0822C238.899 49.7385 241.485 49.4235 244.11 49.0676C244.16 47.8906 244.76 46.1676 247.155 44.2665C251.558 40.7723 249.011 36.7215 249.011 36.7215Z" fill="black" stroke="black"/>
<path d="M126.606 136.702C122.998 139.096 105.863 157.437 105.863 157.437C105.863 157.437 89.883 166.728 85.2522 173.989C82.9236 177.641 87.9409 187.34 87.8193 191.454C87.6947 195.667 102.927 211.537 102.927 211.537C102.927 211.537 105.544 209.831 104.341 204.146C103.138 198.461 97.8327 191.604 97.4406 187.266C96.8647 180.89 105.172 175.776 108.146 179.432C110.731 181.23 112.415 183.834 112.173 188.163L105.859 201.926C105.859 201.926 107.062 206.115 109.768 204.918C112.474 203.721 117 196.848 118.326 194.501C120.027 191.49 121.315 184.926 120.714 182.233C120.112 179.541 117.585 174.699 120.592 169.015C123.599 163.33 178.622 136.103 174.713 135.505C170.804 134.907 126.605 136.702 126.605 136.702L126.606 136.702Z" fill="black" stroke="black"/>
<path opacity="0.98598" d="M100.102 188.975C99.6426 188.982 99.1834 189.007 98.7405 189.062C98.7892 189.061 98.8372 189.06 98.8862 189.06C104.197 189.06 108.501 195.972 108.501 204.497C108.501 212.799 104.417 219.569 99.2979 219.916C99.488 219.968 99.6896 219.998 99.9028 219.998H103.526C103.816 219.998 104.087 219.945 104.33 219.851C109.113 219.06 112.846 212.489 112.846 204.496C112.846 195.972 108.599 189.06 103.361 189.06C102.515 189.06 101.312 188.956 100.102 188.975Z" fill="#808000"/>
<path opacity="0.98598" d="M101.556 188.973C100.26 188.973 99.031 189.509 97.933 190.465C100.03 194.572 104.152 199.423 105.13 203.612C106.57 209.785 103.436 211.637 103.436 211.637C103.436 211.637 98.139 206.634 93.2764 201.303C93.1597 202.33 93.0981 203.396 93.0981 204.487C93.0981 213.054 96.886 219.998 101.557 219.998C106.2 219.998 109.968 213.135 110.012 204.637C110.11 199.067 109.629 200.065 109.007 197.138C107.579 192.278 104.777 188.973 101.556 188.973Z" fill="#FFFF00" stroke="white" stroke-width="1.4029"/>
<path d="M717.097 81.8978C717.097 88.8842 714.645 94.857 709.741 99.8152C704.837 104.773 698.918 107.252 691.984 107.252H666.871V1.27344H691.984C698.974 1.27354 704.893 3.75266 709.741 8.71057C714.645 13.6687 717.097 19.6129 717.097 26.5427V81.8988M682.852 91.4488H692.491C695.028 91.4488 697.17 90.5473 698.918 88.7443C700.665 86.885 701.539 84.7159 701.539 82.2368V26.7967C701.539 24.2615 700.637 22.0922 698.833 20.2892C697.085 18.4864 694.972 17.5849 692.491 17.5848H682.852V91.4498" fill="#FF0000"/>
<path d="M756.094 0.00442258C763.14 0.00452977 769.115 2.48364 774.02 7.44155C778.981 12.3997 781.461 18.372 781.461 25.3589V83.1663C781.461 90.2092 778.981 96.2095 774.02 101.168C769.06 106.069 763.084 108.52 756.094 108.52C749.048 108.52 743.073 106.041 738.168 101.083C733.264 96.1252 730.812 90.1529 730.812 83.1658V25.3584C730.812 18.3157 733.292 12.3437 738.252 7.44104C743.213 2.48299 749.16 0.0040354 756.093 0.00390625M764.802 25.0195C764.802 22.4842 763.9 20.3431 762.097 18.5965C760.349 16.7936 758.207 15.8921 755.67 15.892C753.134 15.8921 750.963 16.7936 749.16 18.5965C747.356 20.3431 746.454 22.4841 746.454 25.0195V82.9948C746.454 85.5302 747.356 87.6994 749.16 89.5023C750.964 91.249 753.134 92.1222 755.67 92.1222C758.207 92.1222 760.349 91.2489 762.097 89.5023C763.901 87.6994 764.802 85.5302 764.802 82.9948V25.0195Z" fill="#FF0000"/>
<path d="M594.496 140.164L606.839 181.714V140.164H616.17V202.045H606.148L593.311 162.42V202.045H583.98V140.164H594.496Z" fill="#FF0000"/>
<path d="M635.898 187.841L633.626 202.053H623.9L634.416 140.223H647.253L657.621 202.053H647.845L645.623 187.841H635.898ZM640.785 154.384L637.329 178.762H644.241L640.785 154.384Z" fill="#FF0000"/>
<path d="M666.676 149.537H656.753V140.211H685.882V149.537H676.008V202.042H666.677V149.537" fill="#FF0000"/>
<path d="M702.741 202.061H693.41V140.23H702.741V202.061Z" fill="#FF0000"/>
<path d="M725.754 139.43C729.868 139.43 733.357 140.877 736.221 143.772C739.117 146.667 740.565 150.154 740.565 154.234V187.986C740.565 192.099 739.117 195.602 736.221 198.497C733.324 201.359 729.835 202.79 725.754 202.79C721.64 202.79 718.151 201.343 715.288 198.448C712.424 195.553 710.992 192.066 710.992 187.986V154.234C710.992 150.121 712.44 146.634 715.337 143.772C718.233 140.877 721.706 139.43 725.754 139.43ZM730.839 154.037C730.839 152.557 730.313 151.306 729.259 150.287C728.239 149.234 726.988 148.708 725.507 148.708C724.026 148.708 722.759 149.234 721.706 150.287C720.652 151.306 720.126 152.557 720.126 154.037V187.889C720.126 189.369 720.652 190.636 721.706 191.689C722.759 192.709 724.026 193.218 725.507 193.218C726.988 193.218 728.239 192.709 729.259 191.689C730.313 190.636 730.839 189.369 730.839 187.889V154.037Z" fill="#FF0000"/>
<path d="M759.26 140.164L771.603 181.714V140.164H780.934V202.045H770.912L758.075 162.42V202.045H748.744V140.164H759.26Z" fill="#FF0000"/>
</svg>
