<?xml version='1.0' encoding='utf-8'?>
<svg xmlns="http://www.w3.org/2000/svg" version="1.1" viewBox="0 0 744.09 1052.4"> <path d="m164.1 711.03h528.95c3.2092 0 5.7927 2.5821 5.7927 5.7893v25.482c0 3.2073-2.5835 5.7894-5.7927 5.7894h-528.95c-3.2092 0-5.7927-2.5821-5.7927-5.7894v-25.482c0-3.2073 2.5835-5.7893 5.7927-5.7893z" color="#000000" opacity=".98598"/> <path d="m287.38 748.09c-8.5573 5.7016-49.196 49.391-49.196 49.391s-37.901 22.132-48.884 39.429c-5.5228 8.698 6.377 31.801 6.0885 41.603-0.29537 10.035 35.832 47.837 35.832 47.837s6.2054-4.0637 3.353-17.605c-2.8524-13.541-15.436-29.875-16.366-40.21-1.3658-15.186 18.336-27.37 25.391-18.66 6.1292 4.2831 10.124 10.486 9.5509 20.798l-14.975 32.784s2.8524 9.9778 9.2704 7.127 17.153-19.224 20.298-24.815c4.0339-7.1702 7.0878-22.806 5.6616-29.221-1.4262-6.4143-7.419-17.947-0.28796-31.488 7.1311-13.541 137.63-78.397 128.36-79.822-9.2704-1.4254-114.1 2.8508-114.1 2.8508z" stroke="#000" stroke-width="1px"/> <path d="m229.61 876.44c-0.80047 0.0155-1.6002 0.0719-2.3715 0.19292 0.0849-3e-3 0.16847-5e-3 0.25368-5e-3 9.2488 0 16.744 15.24 16.744 34.036 0 18.307-7.1117 33.233-16.027 33.998 0.33107 0.11509 0.68214 0.1819 1.0534 0.1819h6.3093c0.50515 0 0.9769-0.11842 1.4008-0.32519 8.3288-1.7428 14.83-16.233 14.83-33.855 0-18.796-7.3958-34.036-16.518-34.036-1.474 0-3.5686-0.22846-5.6751-0.18741z" color="#000000" fill="#808000" opacity=".98598"/> <path d="m227.5 876.62c-2.5667 0-5.001 1.1766-7.1752 3.2741 4.1519 9.0094 12.315 19.653 14.251 28.844 2.8524 13.541-3.3532 17.605-3.3532 17.605s-10.49-10.977-20.119-22.671c-0.23111 2.2531-0.35297 4.5912-0.35297 6.9837 0 18.796 7.5007 34.031 16.75 34.031 9.1943 0 16.656-15.057 16.744-33.7 0.19367-12.222-0.7597-10.031-1.991-16.453-2.8278-10.663-8.3747-17.914-14.753-17.914z" color="#000000" fill="#ff0" opacity=".98598" stroke="#fff" stroke-width="1.4029"/> <path d="m210.72 704.82s117.1-93.636 124.59-101.13c7.4943-7.4909 39.345-24.345 58.08-23.409 18.736 0.93636 44.965 4.6818 56.207-3.7454 11.241-8.4272 39.345-31.836 39.345-31.836s9.3678-1.8727 12.178-1.8727c2.8103 0-37.471 56.182-37.471 56.182s-14.052 7.4909-18.736 8.4273c-4.6839 0.93636-67.45 15.683-89.933 29.728s-47.774 80.762-47.774 80.762l-103.98 0.93635z" stroke="#000" stroke-width="1px"/> <path d="m423.28 549.36s-16.393 3e-3 -25.292 9.8344c-8.3689 9.2456-26.256 18.902-32.255 22.746 9.0797-3.44 18.386-5.7895 25.698-5.4241 5.0663 0.2532 10.685 0.704 16.403 1.0718 0.58598-2.8897 2.564-6.8689 8.426-10.435 10.773-6.5545 7.0205-17.793 7.0205-17.793z" stroke="#000" stroke-width="1px"/> <g transform="matrix(.17649 0 0 .17638 -366.54 484.07)" fill="#f00"> <path d="m5447.6 1072.7c-5e-4 54.094-18.977 100.34-56.93 138.73-37.954 38.389-83.759 57.584-137.42 57.584h-194.35v-820.57h194.35c54.094 8.2e-4 99.9 19.196 137.42 57.584 37.953 38.39 56.929 84.414 56.93 138.07v428.61m-265.02 73.943h74.598c19.631 1e-4 36.208-6.9798 49.732-20.94 13.523-14.396 20.285-31.191 20.285-50.386v-429.26c-3e-4 -19.63-6.9802-36.426-20.94-50.386-13.524-13.959-29.883-20.939-49.077-20.94h-74.598v571.92"/> <path d="m5749.4 438.65c54.53 8.3e-4 100.77 19.196 138.73 57.584 38.389 38.39 57.584 84.632 57.584 138.73v447.59c-4e-4 54.531-19.195 100.99-57.584 139.38-38.39 37.953-84.632 56.93-138.73 56.93-54.531 0-100.77-19.195-138.73-57.584-37.953-38.389-56.93-84.631-56.93-138.73v-447.59c0-54.53 19.195-100.77 57.584-138.73 38.389-38.389 84.413-57.583 138.07-57.584m67.4 193.69c-3e-4 -19.63-6.9802-36.208-20.94-49.732-13.524-13.959-30.101-20.939-49.732-20.94-19.631 7.1e-4 -36.427 6.9806-50.386 20.94-13.96 13.524-20.94 30.101-20.94 49.732v448.89c-1e-4 19.631 6.9798 36.426 20.94 50.386 13.96 13.524 30.755 20.285 50.386 20.285 19.631 1e-4 36.208-6.7616 49.732-20.285 13.96-13.96 20.939-30.755 20.94-50.386v-448.89"/> <path d="m4498.8 1523.9 95.52 321.71v-321.71h72.213v479.13h-77.562l-99.34-306.81v306.81h-72.213v-479.13h81.383"/> <path d="m4819.2 1893-17.576 110.04h-75.269l81.383-478.74h99.34l80.236 478.74h-75.652l-17.194-110.04h-75.269m37.826-259.05-26.745 188.75h53.491l-26.746-188.75"/> <path d="m5057.4 1596.5h-76.798v-72.213h225.43v72.213h-76.416v406.53h-72.213v-406.53"/> <path d="m5336.5 2003.1h-72.213v-478.74h72.213v478.74"/> <path d="m5514.6 1518.2c31.84 5e-4 58.84 11.208 81.001 33.623 22.415 22.416 33.623 49.416 33.623 81v261.34c-3e-4 31.84-11.208 58.968-33.623 81.383-22.415 22.16-49.416 33.241-81.001 33.241-31.84 0-58.84-11.208-81-33.623-22.161-22.415-33.241-49.415-33.241-81.001v-261.34c0-31.839 11.208-58.84 33.623-81 22.415-22.415 49.288-33.622 80.618-33.623m39.354 113.1c-2e-4 -11.462-4.0757-21.141-12.226-29.038-7.8965-8.1506-17.576-12.226-29.038-12.226-11.462 4e-4 -21.269 4.0759-29.42 12.226-8.1511 7.8967-12.227 17.576-12.226 29.038v262.11c-1e-4 11.462 4.0754 21.269 12.226 29.42 8.1509 7.8964 17.958 11.844 29.42 11.844 11.462 1e-4 21.142-3.948 29.038-11.844 8.1508-8.1509 12.226-17.958 12.226-29.42v-262.11"/> <path d="m5773.9 1523.9 95.52 321.71v-321.71h72.213v479.13h-77.562l-99.34-306.81v306.81h-72.213v-479.13h81.383"/> </g> </svg>