<?xml version='1.0' encoding='utf-8'?>
<svg xmlns:xlink="http://www.w3.org/1999/xlink" xmlns="http://www.w3.org/2000/svg" viewBox="0 0 244.93 232.27"> <defs> <filter id="h" x="-1.2704" y="-.02446" width="3.5408" height="1.0489"> <feGaussianBlur stdDeviation="4.7074"/> </filter> <filter id="g" x="-.06725" y="-.5568" width="1.1345" height="2.1136"> <feGaussianBlur stdDeviation="12.5171"/> </filter> <filter id="f" x="-.03815" y="-.1404" width="1.0763" height="1.2808"> <feGaussianBlur stdDeviation="3.4323"/> </filter> <linearGradient id="a"> <stop offset="0"/> <stop stop-opacity="0" offset="1"/> </linearGradient> <linearGradient id="c" x1="286.41" x2="624.71" y1="230.86" y2="230.48" gradientUnits="userSpaceOnUse"> <stop stop-opacity=".2019" offset="0"/> <stop stop-opacity="0" offset="1"/> </linearGradient> <linearGradient id="e" x1="-19.541" x2="623.68" y1="461.22" y2="458.46" gradientTransform="matrix(.15333 0 0 1 -710.7 0)" gradientUnits="userSpaceOnUse" xlink:href="#a"/> <linearGradient id="d" x1="-19.541" x2="623.68" y1="461.22" y2="458.46" gradientTransform="matrix(.15333 0 0 1 281.59 0)" gradientUnits="userSpaceOnUse" xlink:href="#a"/> <radialGradient id="b" cx="496.15" cy="465.49" r="163.56" gradientTransform="matrix(1 0 0 1.3768 .83252 -175.51)" gradientUnits="userSpaceOnUse"> <stop stop-color="#fff" offset="0"/> <stop stop-color="#fff" stop-opacity="0" offset="1"/> </radialGradient> </defs> <g transform="matrix(.46228 0 0 .46228 -122.92 -102.74)"> <path transform="matrix(1.0454 0 0 1 -14.05 -66.372)" d="m744.55 734.04c0 14.899-100 26.976-223.36 26.976s-223.36-12.078-223.36-26.976 100-26.976 223.36-26.976 223.36 12.078 223.36 26.976z" fill-rule="evenodd" filter="url(#g)" opacity=".5305"/> <path d="m309.91 222.25h331.59v462.13h-331.59z" fill="#ccc" fill-rule="evenodd"/> <path d="m332.58 240.3h327.13v450.38h-327.13z" fill="#803300" fill-rule="evenodd"/> <path d="m558.28 222.4 83.204 0.10489c0.76764 12.857 12.904 15.407 18.675 17.784l-101.88-0.54209z" fill="#ccc" fill-rule="evenodd"/> <g fill="none" stroke="url(#c)"> <path d="m314.24 224.02h325.1" stroke-width=".89572"/> <path d="m316.24 226.16h321.86" stroke-width=".89123"/> <path d="m318.24 228.29h317.67" stroke-width=".88541"/> <path d="m322.24 230.42h314.94" stroke-width=".88161"/> <path d="m324.79 232.55h314.32" stroke-width=".88073"/> <path d="m328.79 234.69h312.95" stroke-width=".87882"/> <path d="m330.79 236.82h314.94" stroke-width=".88161"/> <path d="m332.79 238.95h318.61" stroke-width=".88673"/> </g> <path d="m332.58 240.3h50.158v450.38h-50.158z" fill="url(#d)" fill-rule="evenodd"/> <path d="m309.86 222.5s13.878 13.693 23.983 17.821l-0.0881 450.48c-10.221 0.0669-18.504-2.4391-23.906-4.392z" fill="#1a1a1a" fill-rule="evenodd"/> <path transform="scale(-1,1)" d="m-659.71 240.3h50.158v450.38h-50.158z" fill="url(#e)" fill-rule="evenodd"/> <path d="m333.42 240.17h327.13v450.38h-327.13z" fill="url(#b)" fill-rule="evenodd" opacity=".1"/> <path transform="matrix(1 0 0 .96103 0 16.629)" d="m315.94 228.1s4.7235 3.6741 8.3915 6.7688c0.13842 151.98 0.36297-173.28 0.50139 455.08-3.2001-0.32118-5.6736-1.2124-8.2076-1.7222z" fill="#fff" fill-rule="evenodd" filter="url(#h)" opacity=".1"/> <g transform="translate(.97904 34.937)" fill="#2b1100" filter="url(#f)" font-family="Sans" font-size="29.244" letter-spacing="0" opacity=".7465" word-spacing="0"> <path d="m415.26 414.41v-1.7278h2.7273v-17.863h-2.7273v-1.7278h19.163v5.0262h-1.9705v-3.07h-8.9673v6.8397h5.5831v-2.713h1.9562v7.368h-1.9562v-2.713h-5.5831v8.6246h9.2386v-3.07h1.9562v5.0262h-19.42"/> <path d="m437.45 414.41v-1.7278h2.7273v-17.863h-2.7273v-1.7278h6.6683l12.865 15.093v-13.365h-2.713v-1.7278h7.4537v1.7278h-2.7273v19.591h-3.7411l-13.065-15.407v13.679h2.713v1.7278h-7.4537"/> <path d="m483.02 399.79c-0.42839-1.8848-1.1423-3.2461-2.1419-4.0838-0.99955-0.8472-2.4084-1.2708-4.2266-1.2708-2.2085 2e-5 -3.8316 0.75205-4.8692 2.2561-1.0281 1.4946-1.5422 3.8554-1.5421 7.0824-1e-5 3.1985 0.495 5.5546 1.485 7.0682 0.99001 1.5041 2.5322 2.2561 4.6264 2.2561 0.79961 0 1.5421-0.0904 2.2275-0.2713s1.3089-0.45217 1.8706-0.81391v-5.8544h-2.5702v-1.7135h7.6822v8.1819c-1.5993 0.74252-3.1985 1.2946-4.7978 1.6564-1.5898 0.36173-3.2176 0.5426-4.8834 0.5426-3.6555 0-6.5303-0.98525-8.6246-2.9558-2.0848-1.9705-3.1271-4.6692-3.1271-8.0962 0-3.4365 1.0424-6.14 3.1271-8.1105 2.0943-1.9705 4.9691-2.9558 8.6246-2.9558 1.5231 2e-5 3.0224 0.15233 4.4979 0.45693s2.9605 0.76633 4.4551 1.3851v5.2404h-1.8134"/> <path d="m489.23 414.41v-1.7278h2.7273v-17.863h-2.7273v-1.7278h10.966v1.7278h-2.7416v17.635h8.3961v-3.3699h1.9277v5.3261h-18.549"/> <path d="m509.79 414.41v-1.7278h2.7273v-17.863h-2.7273v-1.7278h10.966v1.7278h-2.7416v17.863h2.7416v1.7278h-10.966"/> <path d="m524.38 413.38v-5.0548h1.8134c0.27606 1.5993 0.92814 2.7939 1.9562 3.584s2.4512 1.1852 4.2694 1.1852c1.4755 0 2.5988-0.28082 3.3699-0.84246s1.1566-1.3851 1.1566-2.4703c-1e-5 -0.85674-0.26179-1.5231-0.78535-1.9991s-1.604-0.91861-3.2414-1.328l-3.1985-0.78535c-2.0848-0.53308-3.5507-1.2708-4.398-2.2133-0.84723-0.95193-1.2708-2.3037-1.2708-4.0553 0-2.1133 0.69967-3.7554 2.099-4.9263 1.4089-1.1804 3.3794-1.7706 5.9116-1.7706 1.247 2e-5 2.5417 0.10473 3.8839 0.31414 1.3517 0.20944 2.7511 0.52358 4.198 0.94242v4.7121h-1.8134c-0.27608-1.466-0.88056-2.5369-1.8134-3.2128-0.93291-0.68538-2.2609-1.0281-3.9839-1.0281-1.4089 2e-5 -2.475 0.24752-3.1985 0.74251-0.71396 0.48551-1.0709 1.2137-1.0709 2.1847-1e-5 0.88532 0.2475 1.5612 0.74251 2.0276 0.495 0.45694 1.7087 0.93291 3.6412 1.4279l3.1985 0.78535c1.98 0.49502 3.4127 1.2661 4.298 2.3132s1.3422 2.4893 1.3422 4.3266c-2e-5 2.1514-0.74253 3.7887-2.2275 4.912-1.485 1.1138-3.6697 1.6706-6.5541 1.6706-1.3898 0-2.7702-0.11899-4.1409-0.35698s-2.7654-0.59972-4.1838-1.0852"/> <path d="m544.63 414.41v-1.7278h2.7273v-17.863h-2.7273v-1.7278h10.966v1.7278h-2.7416v7.1681h8.4818v-7.1681h-2.7273v-1.7278h10.966v1.7278h-2.7416v17.863h2.7416v1.7278h-10.966v-1.7278h2.7273v-8.7388h-8.4818v8.7388h2.7416v1.7278h-10.966"/> <path d="m393.47 449.24h1.9848c2.2275 0 3.8553-0.71395 4.8834-2.1419 1.0376-1.4279 1.5564-3.6983 1.5564-6.8111-2e-5 -3.0938-0.51407-5.3499-1.5421-6.7683-1.0281-1.4279-2.6607-2.1418-4.8977-2.1419h-1.9848v17.863m-8.2248 1.7278v-1.7278h2.7273v-17.863h-2.7273v-1.7278h10.938c3.8268 3e-5 6.754 0.91389 8.7816 2.7416s3.0414 4.4598 3.0414 7.8963c-3e-5 3.4556-1.0186 6.1019-3.0557 7.9392-2.0276 1.8277-4.9501 2.7416-8.7674 2.7416h-10.938"/> <path d="m410.61 450.96v-1.7278h2.7273v-17.863h-2.7273v-1.7278h10.966v1.7278h-2.7416v17.863h2.7416v1.7278h-10.966"/> <path d="m444.73 444.88c-0.56167 2.199-1.5707 3.8316-3.0272 4.8977s-3.4127 1.5992-5.8687 1.5992c-3.5983 0-6.4446-0.99001-8.5389-2.97-2.0848-1.9895-3.1271-4.6835-3.1271-8.082 0-3.4079 1.0424-6.1019 3.1271-8.082 2.0943-1.9895 4.9406-2.9843 8.5389-2.9843 1.2661 2e-5 2.5845 0.15233 3.9553 0.45693s2.8225 0.76633 4.3551 1.3851v5.2404h-1.8134c-0.37127-1.7896-1.0472-3.1271-2.0276-4.0124s-2.2752-1.3422-3.8839-1.3422c-2.0752 2e-5 -3.6174 0.76633-4.6264 2.2989-1.0091 1.5231-1.5136 3.8696-1.5136 7.0396s0.50452 5.5165 1.5136 7.0396 2.5607 2.2847 4.655 2.2846c1.4184 1e-5 2.575-0.39505 3.4698-1.1852 0.90433-0.79011 1.5612-1.9848 1.9705-3.584h2.8415"/> <path d="m451.55 450.96v-1.7278h2.8273v-17.635h-5.8402v3.3699h-1.9562v-5.3261h21.133v5.3261h-1.9277v-3.3699h-5.883v17.635h2.8415v1.7278h-11.195"/> <path d="m469.38 450.96v-1.7278h2.7273v-17.863h-2.7273v-1.7278h10.966v1.7278h-2.7416v17.863h2.7416v1.7278h-10.966"/> <path d="m494.44 449.65c1.8182 1e-5 3.17-0.7663 4.0553-2.2989s1.3279-3.8744 1.328-7.0253c-2e-5 -3.1604-0.44267-5.507-1.328-7.0396s-2.2371-2.2989-4.0553-2.2989c-1.8087 2e-5 -3.1604 0.77585-4.0553 2.3275-0.88531 1.5422-1.328 3.8792-1.328 7.011-1e-5 3.1224 0.44264 5.4594 1.328 7.011 0.89482 1.5422 2.2466 2.3132 4.0553 2.3132m0 1.7278c-3.5888 0-6.4018-0.98049-8.4389-2.9415s-3.0557-4.6645-3.0557-8.1105 1.0186-6.1495 3.0557-8.1105c2.0467-1.9705 4.8596-2.9558 8.4389-2.9558 3.5888 2e-5 6.4018 0.98052 8.439 2.9415s3.0557 4.6693 3.0557 8.1248c-2e-5 3.446-1.0234 6.1495-3.07 8.1105-2.0372 1.961-4.8454 2.9415-8.4247 2.9415"/> <path d="m508.48 450.96v-1.7278h2.7273v-17.863h-2.7273v-1.7278h6.6683l12.865 15.093v-13.365h-2.713v-1.7278h7.4537v1.7278h-2.7273v19.591h-3.7411l-13.065-15.407v13.679h2.713v1.7278h-7.4537"/> <path d="m533.69 450.96v-1.7278h1.742l8.0248-19.591h3.4127l8.0391 19.591h2.0276v1.7278h-9.9811v-1.7278h2.0848l-1.7563-4.3551h-8.0106l-1.7849 4.3551h2.5417v1.7278h-6.3399m6.2828-7.8107h6.6112l-3.2842-8.1534-3.327 8.1534"/> <path d="m572.12 440.55c0.8472 0.12376 1.5612 0.40458 2.1419 0.84246s1.0852 1.0709 1.5136 1.8991l3.1128 5.9401h2.1847v1.7278h-7.011l-3.3984-6.4399c-0.65685-1.3327-1.2185-2.1799-1.6849-2.5417-0.45695-0.37125-1.0948-0.55688-1.9134-0.55689h-0.87103v7.8107h2.7416v1.7278h-10.966v-1.7278h2.7273v-17.863h-2.7273v-1.7278h12.166c2.475 3e-5 4.3837 0.49979 5.7259 1.4993 1.3517 0.99003 2.0276 2.3989 2.0276 4.2266-2e-5 1.485-0.48075 2.6607-1.4422 3.5269-0.95196 0.85676-2.3942 1.4089-4.3266 1.6564m-5.9258-0.84247h1.8706c1.3327 1e-5 2.356-0.36172 3.07-1.0852 0.72346-0.72346 1.0852-1.7563 1.0852-3.0986s-0.36175-2.3703-1.0852-3.0843c-0.71397-0.71393-1.7373-1.0709-3.07-1.0709h-1.8706v8.339"/> <path d="m585.04 450.96v-1.7278h2.8701v-7.0967l-6.3399-10.766h-1.8134v-1.7278h10.224v1.7278h-2.3703l4.7978 8.1248 4.7692-8.1248h-2.1276v-1.7278h6.1114v1.7278h-1.8134l-5.9116 10.024v7.8392h2.8701v1.7278h-11.266"/> </g> <g transform="translate(-1.9581 -40.449)" fill="#520" font-family="Sans" font-size="29.244" letter-spacing="0" opacity=".5915" stroke="#2b1100" word-spacing="0"> <path d="m418.2 489.8v-1.7278h2.7273v-17.863h-2.7273v-1.7278h19.163v5.0262h-1.9705v-3.07h-8.9673v6.8397h5.5831v-2.713h1.9562v7.368h-1.9562v-2.713h-5.5831v8.6246h9.2386v-3.07h1.9562v5.0262h-19.42"/> <path d="m440.39 489.8v-1.7278h2.7273v-17.863h-2.7273v-1.7278h6.6683l12.865 15.093v-13.365h-2.713v-1.7278h7.4537v1.7278h-2.7273v19.591h-3.7411l-13.065-15.407v13.679h2.713v1.7278h-7.4537"/> <path d="m485.95 475.17c-0.4284-1.8848-1.1424-3.2461-2.1419-4.0838-0.99955-0.84721-2.4084-1.2708-4.2266-1.2708-2.2085 2e-5 -3.8316 0.75205-4.8692 2.2561-1.0281 1.4946-1.5421 3.8554-1.5421 7.0824 0 3.1985 0.495 5.5546 1.485 7.0682 0.99001 1.5041 2.5322 2.2561 4.6264 2.2561 0.79962 0 1.5421-0.0904 2.2275-0.2713s1.3089-0.45217 1.8706-0.81391v-5.8544h-2.5702v-1.7135h7.6821v8.1819c-1.5993 0.74251-3.1985 1.2946-4.7978 1.6564-1.5898 0.36174-3.2176 0.54261-4.8834 0.54261-3.6554 0-6.5303-0.98526-8.6246-2.9558-2.0847-1.9705-3.1271-4.6693-3.1271-8.0962 0-3.4365 1.0424-6.14 3.1271-8.1105 2.0943-1.9705 4.9691-2.9558 8.6246-2.9558 1.5231 2e-5 3.0224 0.15233 4.4979 0.45693s2.9605 0.76633 4.4551 1.3851v5.2404h-1.8134"/> <path d="m492.17 489.8v-1.7278h2.7273v-17.863h-2.7273v-1.7278h10.966v1.7278h-2.7416v17.635h8.3961v-3.3699h1.9277v5.3261h-18.549"/> <path d="m512.73 489.8v-1.7278h2.7273v-17.863h-2.7273v-1.7278h10.966v1.7278h-2.7416v17.863h2.7416v1.7278h-10.966"/> <path d="m527.32 488.77v-5.0548h1.8134c0.27606 1.5993 0.92814 2.794 1.9562 3.584s2.4512 1.1852 4.2694 1.1852c1.4755 0 2.5988-0.28082 3.3699-0.84247s1.1566-1.3851 1.1566-2.4703c-2e-5 -0.85674-0.2618-1.5231-0.78535-1.9991s-1.604-0.91862-3.2414-1.328l-3.1985-0.78535c-2.0848-0.53307-3.5507-1.2708-4.398-2.2133-0.84723-0.95192-1.2708-2.3037-1.2708-4.0553 0-2.1133 0.69967-3.7554 2.099-4.9263 1.4089-1.1804 3.3794-1.7706 5.9115-1.7706 1.247 2e-5 2.5417 0.10474 3.8839 0.31414 1.3517 0.20945 2.7511 0.52359 4.198 0.94242v4.7121h-1.8134c-0.27608-1.466-0.88056-2.5369-1.8134-3.2128-0.93291-0.68538-2.2609-1.0281-3.9839-1.0281-1.4089 2e-5 -2.475 0.24753-3.1985 0.74251-0.71396 0.48551-1.0709 1.2137-1.0709 2.1847 0 0.88532 0.2475 1.5612 0.74252 2.0276 0.495 0.45694 1.7087 0.93291 3.6412 1.4279l3.1985 0.78535c1.98 0.49502 3.4127 1.2661 4.298 2.3132s1.3422 2.4893 1.3422 4.3266c-2e-5 2.1514-0.74253 3.7887-2.2275 4.912-1.485 1.1138-3.6697 1.6707-6.5541 1.6707-1.3898 0-2.7702-0.11899-4.1409-0.35698s-2.7654-0.59972-4.1838-1.0852"/> <path d="m547.57 489.8v-1.7278h2.7273v-17.863h-2.7273v-1.7278h10.966v1.7278h-2.7416v7.1681h8.4818v-7.1681h-2.7273v-1.7278h10.966v1.7278h-2.7416v17.863h2.7416v1.7278h-10.966v-1.7278h2.7273v-8.7388h-8.4818v8.7388h2.7416v1.7278h-10.966"/> <path d="m396.41 524.62h1.9848c2.2275 0 3.8553-0.71395 4.8834-2.1419 1.0376-1.4279 1.5564-3.6983 1.5564-6.8111-2e-5 -3.0938-0.51406-5.3499-1.5421-6.7683-1.0281-1.4279-2.6607-2.1418-4.8977-2.1419h-1.9848v17.863m-8.2248 1.7278v-1.7278h2.7273v-17.863h-2.7273v-1.7278h10.938c3.8268 2e-5 6.754 0.91388 8.7816 2.7416s3.0414 4.4598 3.0414 7.8963c-2e-5 3.4556-1.0186 6.1019-3.0557 7.9392-2.0276 1.8277-4.9501 2.7416-8.7674 2.7416h-10.938"/> <path d="m413.54 526.35v-1.7278h2.7273v-17.863h-2.7273v-1.7278h10.966v1.7278h-2.7416v17.863h2.7416v1.7278h-10.966"/> <path d="m447.67 520.27c-0.56166 2.199-1.5707 3.8316-3.0272 4.8977s-3.4127 1.5993-5.8687 1.5993c-3.5983 0-6.4446-0.99002-8.5389-2.97-2.0848-1.9896-3.1271-4.6835-3.1271-8.082-1e-5 -3.4079 1.0424-6.1019 3.1271-8.082 2.0943-1.9895 4.9406-2.9843 8.5389-2.9843 1.2661 2e-5 2.5845 0.15233 3.9553 0.45693s2.8225 0.76633 4.3551 1.3851v5.2404h-1.8134c-0.37127-1.7896-1.0472-3.1271-2.0276-4.0124s-2.2752-1.3422-3.8839-1.3422c-2.0752 2e-5 -3.6174 0.76633-4.6264 2.2989-1.0091 1.5231-1.5136 3.8696-1.5136 7.0396s0.50452 5.5165 1.5136 7.0396 2.5607 2.2846 4.655 2.2846c1.4184 0 2.575-0.39505 3.4698-1.1852 0.90432-0.79011 1.5612-1.9848 1.9705-3.584h2.8415"/> <path d="m454.48 526.35v-1.7278h2.8273v-17.635h-5.8402v3.3699h-1.9562v-5.3261h21.133v5.3261h-1.9277v-3.3699h-5.883v17.635h2.8415v1.7278h-11.195"/> <path d="m472.32 526.35v-1.7278h2.7273v-17.863h-2.7273v-1.7278h10.966v1.7278h-2.7416v17.863h2.7416v1.7278h-10.966"/> <path d="m497.38 525.04c1.8182 0 3.1699-0.76631 4.0553-2.2989s1.3279-3.8744 1.328-7.0253c-1e-5 -3.1604-0.44267-5.507-1.328-7.0396s-2.2371-2.2989-4.0553-2.2989c-1.8087 2e-5 -3.1604 0.77585-4.0553 2.3275-0.88531 1.5422-1.328 3.8792-1.328 7.011 0 3.1224 0.44265 5.4594 1.328 7.011 0.89481 1.5421 2.2466 2.3132 4.0553 2.3132m0 1.7278c-3.5888 0-6.4018-0.9805-8.4389-2.9415s-3.0557-4.6645-3.0557-8.1105 1.0186-6.1495 3.0557-8.1105c2.0467-1.9705 4.8596-2.9558 8.4389-2.9558 3.5888 2e-5 6.4018 0.98051 8.4389 2.9415s3.0557 4.6693 3.0557 8.1248c-2e-5 3.446-1.0234 6.1495-3.07 8.1105-2.0372 1.961-4.8454 2.9415-8.4247 2.9415"/> <path d="m511.41 526.35v-1.7278h2.7273v-17.863h-2.7273v-1.7278h6.6683l12.865 15.093v-13.365h-2.713v-1.7278h7.4537v1.7278h-2.7273v19.591h-3.7411l-13.065-15.407v13.679h2.713v1.7278h-7.4537"/> <path d="m536.63 526.35v-1.7278h1.742l8.0248-19.591h3.4127l8.0391 19.591h2.0276v1.7278h-9.9811v-1.7278h2.0847l-1.7563-4.3551h-8.0106l-1.7849 4.3551h2.5417v1.7278h-6.3399m6.2828-7.8107h6.6112l-3.2842-8.1534-3.327 8.1534"/> <path d="m575.06 515.94c0.84721 0.12377 1.5612 0.40459 2.1419 0.84247s1.0852 1.0709 1.5136 1.8991l3.1128 5.9401h2.1847v1.7278h-7.011l-3.3984-6.4399c-0.65685-1.3327-1.2185-2.1799-1.6849-2.5417-0.45694-0.37125-1.0947-0.55687-1.9134-0.55688h-0.87102v7.8107h2.7416v1.7278h-10.966v-1.7278h2.7273v-17.863h-2.7273v-1.7278h12.166c2.475 2e-5 4.3837 0.49979 5.7259 1.4993 1.3517 0.99004 2.0276 2.3989 2.0276 4.2266-2e-5 1.485-0.48075 2.6607-1.4422 3.5269-0.95196 0.85676-2.3941 1.4089-4.3266 1.6564m-5.9258-0.84246h1.8706c1.3327 1e-5 2.356-0.36173 3.07-1.0852 0.72346-0.72346 1.0852-1.7563 1.0852-3.0986s-0.36175-2.3703-1.0852-3.0843c-0.71397-0.71393-1.7373-1.0709-3.07-1.0709h-1.8706v8.339"/> <path d="m587.98 526.35v-1.7278h2.8701v-7.0967l-6.3399-10.766h-1.8134v-1.7278h10.224v1.7278h-2.3703l4.7978 8.1248 4.7692-8.1248h-2.1276v-1.7278h6.1114v1.7278h-1.8134l-5.9115 10.024v7.8392h2.8701v1.7278h-11.266"/> <path d="m418.2 489.8v-1.7278h2.7273v-17.863h-2.7273v-1.7278h19.163v5.0262h-1.9705v-3.07h-8.9673v6.8397h5.5831v-2.713h1.9562v7.368h-1.9562v-2.713h-5.5831v8.6246h9.2386v-3.07h1.9562v5.0262h-19.42"/> <path d="m440.39 489.8v-1.7278h2.7273v-17.863h-2.7273v-1.7278h6.6683l12.865 15.093v-13.365h-2.713v-1.7278h7.4537v1.7278h-2.7273v19.591h-3.7411l-13.065-15.407v13.679h2.713v1.7278h-7.4537"/> <path d="m485.95 475.17c-0.4284-1.8848-1.1424-3.2461-2.1419-4.0838-0.99955-0.84721-2.4084-1.2708-4.2266-1.2708-2.2085 2e-5 -3.8316 0.75205-4.8692 2.2561-1.0281 1.4946-1.5421 3.8554-1.5421 7.0824 0 3.1985 0.495 5.5546 1.485 7.0682 0.99001 1.5041 2.5322 2.2561 4.6264 2.2561 0.79962 0 1.5421-0.0904 2.2275-0.2713s1.3089-0.45217 1.8706-0.81391v-5.8544h-2.5702v-1.7135h7.6821v8.1819c-1.5993 0.74251-3.1985 1.2946-4.7978 1.6564-1.5898 0.36174-3.2176 0.54261-4.8834 0.54261-3.6554 0-6.5303-0.98526-8.6246-2.9558-2.0847-1.9705-3.1271-4.6693-3.1271-8.0962 0-3.4365 1.0424-6.14 3.1271-8.1105 2.0943-1.9705 4.9691-2.9558 8.6246-2.9558 1.5231 2e-5 3.0224 0.15233 4.4979 0.45693s2.9605 0.76633 4.4551 1.3851v5.2404h-1.8134"/> <path d="m492.17 489.8v-1.7278h2.7273v-17.863h-2.7273v-1.7278h10.966v1.7278h-2.7416v17.635h8.3961v-3.3699h1.9277v5.3261h-18.549"/> <path d="m512.73 489.8v-1.7278h2.7273v-17.863h-2.7273v-1.7278h10.966v1.7278h-2.7416v17.863h2.7416v1.7278h-10.966"/> <path d="m527.32 488.77v-5.0548h1.8134c0.27606 1.5993 0.92814 2.794 1.9562 3.584s2.4512 1.1852 4.2694 1.1852c1.4755 0 2.5988-0.28082 3.3699-0.84247s1.1566-1.3851 1.1566-2.4703c-2e-5 -0.85674-0.2618-1.5231-0.78535-1.9991s-1.604-0.91862-3.2414-1.328l-3.1985-0.78535c-2.0848-0.53307-3.5507-1.2708-4.398-2.2133-0.84723-0.95192-1.2708-2.3037-1.2708-4.0553 0-2.1133 0.69967-3.7554 2.099-4.9263 1.4089-1.1804 3.3794-1.7706 5.9115-1.7706 1.247 2e-5 2.5417 0.10474 3.8839 0.31414 1.3517 0.20945 2.7511 0.52359 4.198 0.94242v4.7121h-1.8134c-0.27608-1.466-0.88056-2.5369-1.8134-3.2128-0.93291-0.68538-2.2609-1.0281-3.9839-1.0281-1.4089 2e-5 -2.475 0.24753-3.1985 0.74251-0.71396 0.48551-1.0709 1.2137-1.0709 2.1847 0 0.88532 0.2475 1.5612 0.74252 2.0276 0.495 0.45694 1.7087 0.93291 3.6412 1.4279l3.1985 0.78535c1.98 0.49502 3.4127 1.2661 4.298 2.3132s1.3422 2.4893 1.3422 4.3266c-2e-5 2.1514-0.74253 3.7887-2.2275 4.912-1.485 1.1138-3.6697 1.6707-6.5541 1.6707-1.3898 0-2.7702-0.11899-4.1409-0.35698s-2.7654-0.59972-4.1838-1.0852"/> <path d="m547.57 489.8v-1.7278h2.7273v-17.863h-2.7273v-1.7278h10.966v1.7278h-2.7416v7.1681h8.4818v-7.1681h-2.7273v-1.7278h10.966v1.7278h-2.7416v17.863h2.7416v1.7278h-10.966v-1.7278h2.7273v-8.7388h-8.4818v8.7388h2.7416v1.7278h-10.966"/> <path d="m396.41 524.62h1.9848c2.2275 0 3.8553-0.71395 4.8834-2.1419 1.0376-1.4279 1.5564-3.6983 1.5564-6.8111-2e-5 -3.0938-0.51406-5.3499-1.5421-6.7683-1.0281-1.4279-2.6607-2.1418-4.8977-2.1419h-1.9848v17.863m-8.2248 1.7278v-1.7278h2.7273v-17.863h-2.7273v-1.7278h10.938c3.8268 2e-5 6.754 0.91388 8.7816 2.7416s3.0414 4.4598 3.0414 7.8963c-2e-5 3.4556-1.0186 6.1019-3.0557 7.9392-2.0276 1.8277-4.9501 2.7416-8.7674 2.7416h-10.938"/> <path d="m413.54 526.35v-1.7278h2.7273v-17.863h-2.7273v-1.7278h10.966v1.7278h-2.7416v17.863h2.7416v1.7278h-10.966"/> <path d="m447.67 520.27c-0.56166 2.199-1.5707 3.8316-3.0272 4.8977s-3.4127 1.5993-5.8687 1.5993c-3.5983 0-6.4446-0.99002-8.5389-2.97-2.0848-1.9896-3.1271-4.6835-3.1271-8.082-1e-5 -3.4079 1.0424-6.1019 3.1271-8.082 2.0943-1.9895 4.9406-2.9843 8.5389-2.9843 1.2661 2e-5 2.5845 0.15233 3.9553 0.45693s2.8225 0.76633 4.3551 1.3851v5.2404h-1.8134c-0.37127-1.7896-1.0472-3.1271-2.0276-4.0124s-2.2752-1.3422-3.8839-1.3422c-2.0752 2e-5 -3.6174 0.76633-4.6264 2.2989-1.0091 1.5231-1.5136 3.8696-1.5136 7.0396s0.50452 5.5165 1.5136 7.0396 2.5607 2.2846 4.655 2.2846c1.4184 0 2.575-0.39505 3.4698-1.1852 0.90432-0.79011 1.5612-1.9848 1.9705-3.584h2.8415"/> <path d="m454.48 526.35v-1.7278h2.8273v-17.635h-5.8402v3.3699h-1.9562v-5.3261h21.133v5.3261h-1.9277v-3.3699h-5.883v17.635h2.8415v1.7278h-11.195"/> <path d="m472.32 526.35v-1.7278h2.7273v-17.863h-2.7273v-1.7278h10.966v1.7278h-2.7416v17.863h2.7416v1.7278h-10.966"/> <path d="m497.38 525.04c1.8182 0 3.1699-0.76631 4.0553-2.2989s1.3279-3.8744 1.328-7.0253c-1e-5 -3.1604-0.44267-5.507-1.328-7.0396s-2.2371-2.2989-4.0553-2.2989c-1.8087 2e-5 -3.1604 0.77585-4.0553 2.3275-0.88531 1.5422-1.328 3.8792-1.328 7.011 0 3.1224 0.44265 5.4594 1.328 7.011 0.89481 1.5421 2.2466 2.3132 4.0553 2.3132m0 1.7278c-3.5888 0-6.4018-0.9805-8.4389-2.9415s-3.0557-4.6645-3.0557-8.1105 1.0186-6.1495 3.0557-8.1105c2.0467-1.9705 4.8596-2.9558 8.4389-2.9558 3.5888 2e-5 6.4018 0.98051 8.4389 2.9415s3.0557 4.6693 3.0557 8.1248c-2e-5 3.446-1.0234 6.1495-3.07 8.1105-2.0372 1.961-4.8454 2.9415-8.4247 2.9415"/> <path d="m511.41 526.35v-1.7278h2.7273v-17.863h-2.7273v-1.7278h6.6683l12.865 15.093v-13.365h-2.713v-1.7278h7.4537v1.7278h-2.7273v19.591h-3.7411l-13.065-15.407v13.679h2.713v1.7278h-7.4537"/> <path d="m536.63 526.35v-1.7278h1.742l8.0248-19.591h3.4127l8.0391 19.591h2.0276v1.7278h-9.9811v-1.7278h2.0847l-1.7563-4.3551h-8.0106l-1.7849 4.3551h2.5417v1.7278h-6.3399m6.2828-7.8107h6.6112l-3.2842-8.1534-3.327 8.1534"/> <path d="m575.06 515.94c0.84721 0.12377 1.5612 0.40459 2.1419 0.84247s1.0852 1.0709 1.5136 1.8991l3.1128 5.9401h2.1847v1.7278h-7.011l-3.3984-6.4399c-0.65685-1.3327-1.2185-2.1799-1.6849-2.5417-0.45694-0.37125-1.0947-0.55687-1.9134-0.55688h-0.87102v7.8107h2.7416v1.7278h-10.966v-1.7278h2.7273v-17.863h-2.7273v-1.7278h12.166c2.475 2e-5 4.3837 0.49979 5.7259 1.4993 1.3517 0.99004 2.0276 2.3989 2.0276 4.2266-2e-5 1.485-0.48075 2.6607-1.4422 3.5269-0.95196 0.85676-2.3941 1.4089-4.3266 1.6564m-5.9258-0.84246h1.8706c1.3327 1e-5 2.356-0.36173 3.07-1.0852 0.72346-0.72346 1.0852-1.7563 1.0852-3.0986s-0.36175-2.3703-1.0852-3.0843c-0.71397-0.71393-1.7373-1.0709-3.07-1.0709h-1.8706v8.339"/> <path d="m587.98 526.35v-1.7278h2.8701v-7.0967l-6.3399-10.766h-1.8134v-1.7278h10.224v1.7278h-2.3703l4.7978 8.1248 4.7692-8.1248h-2.1276v-1.7278h6.1114v1.7278h-1.8134l-5.9115 10.024v7.8392h2.8701v1.7278h-11.266"/> </g> </g> </svg>