<svg width="160" height="160" viewBox="0 0 160 160" fill="none" xmlns="http://www.w3.org/2000/svg">
<circle cx="80" cy="80" r="80" fill="#950101"/>
<path d="M80 0L81.6822 58.6261L92.5148 0.984932L85.0051 59.1524L104.721 3.91548L88.2047 60.192L116.319 8.71947L91.2024 61.7194L127.023 15.2786L93.9242 63.6969L136.569 23.4315L96.3031 66.0758L144.721 32.9772L98.2806 68.7976L151.281 43.6808L99.808 71.7953L156.085 55.2786L100.848 74.9949L159.015 67.4852L101.374 78.3178L160 80L101.374 81.6822L159.015 92.5148L100.848 85.0051L156.085 104.721L99.808 88.2047L151.281 116.319L98.2806 91.2024L144.721 127.023L96.3031 93.9242L136.569 136.569L93.9242 96.3031L127.023 144.721L91.2024 98.2806L116.319 151.281L88.2047 99.808L104.721 156.085L85.0051 100.848L92.5148 159.015L81.6822 101.374L80 160L78.3178 101.374L67.4852 159.015L74.9949 100.848L55.2786 156.085L71.7953 99.808L43.6808 151.281L68.7976 98.2806L32.9772 144.721L66.0758 96.3031L23.4315 136.569L63.6969 93.9242L15.2786 127.023L61.7194 91.2024L8.71947 116.319L60.192 88.2047L3.91548 104.721L59.1524 85.0051L0.984932 92.5148L58.6261 81.6822L0 80L58.6261 78.3178L0.984932 67.4852L59.1524 74.9949L3.91548 55.2786L60.192 71.7953L8.71947 43.6808L61.7194 68.7976L15.2786 32.9772L63.6969 66.0758L23.4315 23.4315L66.0758 63.6969L32.9772 15.2786L68.7976 61.7194L43.6808 8.71947L71.7953 60.192L55.2786 3.91548L74.9949 59.1524L67.4852 0.984932L78.3178 58.6261L80 0Z" fill="#FFF267"/>
</svg>
