<svg width="1120" height="753" viewBox="0 0 1120 753" fill="none" xmlns="http://www.w3.org/2000/svg">
<path d="M78.5453 101.944C77.9373 101.944 77.4253 101.656 77.0093 101.08C76.5933 100.504 76.3853 99.288 76.3853 97.432C76.3853 96.088 76.5613 94.424 76.9133 92.44C77.2653 90.456 77.7293 88.328 78.3053 86.056C78.9133 83.784 79.5533 81.512 80.2253 79.24C80.8973 76.968 81.5693 74.84 82.2413 72.856C82.9133 70.872 83.5053 69.192 84.0173 67.816C84.5293 66.408 84.8973 65.464 85.1213 64.984C85.2493 64.664 85.4733 64.376 85.7933 64.12C86.1133 63.864 86.4493 63.736 86.8013 63.736C87.5373 63.736 88.0013 63.928 88.1933 64.312C88.3853 64.696 88.4813 65.112 88.4813 65.56C88.4813 66.264 88.1613 67.88 87.5213 70.408C86.8813 72.904 85.8893 76.616 84.5453 81.544C85.7933 81.256 87.1693 80.984 88.6733 80.728C90.1773 80.472 91.6813 80.232 93.1853 80.008C94.7213 79.784 96.1293 79.592 97.4093 79.432C98.7213 79.24 99.8093 79.096 100.673 79C101.569 78.904 102.113 78.856 102.305 78.856C102.529 78.856 102.801 78.92 103.121 79.048C103.633 77.096 104.129 75.288 104.609 73.624C105.089 71.96 105.505 70.568 105.857 69.448C106.209 68.296 106.449 67.528 106.577 67.144C107.249 65.544 108.049 64.744 108.977 64.744C109.521 64.744 109.969 64.936 110.321 65.32C110.673 65.704 110.849 66.264 110.849 67C110.849 67.608 110.721 68.632 110.465 70.072C110.209 71.512 109.857 73.208 109.409 75.16C108.993 77.112 108.513 79.192 107.969 81.4C107.457 83.576 106.929 85.752 106.385 87.928C105.873 90.072 105.377 92.088 104.897 93.976C104.449 95.832 104.065 97.4 103.745 98.68C103.457 99.96 103.281 100.792 103.217 101.176C103.089 101.976 102.881 102.712 102.593 103.384C102.305 104.088 101.761 104.44 100.961 104.44C100.321 104.44 99.8893 104.024 99.6653 103.192C99.4733 102.36 99.3773 101.288 99.3773 99.976C99.3773 98.504 99.5053 96.824 99.7613 94.936C100.017 93.016 100.353 91 100.769 88.888C101.217 86.776 101.697 84.68 102.209 82.6C101.313 82.824 100.113 83.08 98.6093 83.368C97.1372 83.656 95.5052 83.96 93.7133 84.28C91.9213 84.6 90.1293 84.904 88.3373 85.192C86.5453 85.48 84.8973 85.72 83.3932 85.912C82.5293 89.368 81.8413 92.296 81.3293 94.696C80.8493 97.064 80.4173 98.872 80.0333 100.12C79.6493 101.336 79.1533 101.944 78.5453 101.944Z" fill="#FF5F5F"/>
<path d="M199.379 395.008C198.867 395.008 198.451 394.832 198.131 394.48C197.811 394.128 197.651 393.504 197.651 392.608C197.651 391.936 197.859 390.848 198.275 389.344C198.723 387.808 199.315 386.016 200.051 383.968C200.819 381.92 201.667 379.76 202.595 377.488C203.555 375.184 204.547 372.896 205.571 370.624C206.595 368.352 207.603 366.256 208.595 364.336C209.587 362.384 210.499 360.736 211.331 359.392C212.163 358.048 212.867 357.168 213.443 356.752C214.115 356.272 214.739 356.032 215.315 356.032C215.635 356.032 215.955 356.064 216.275 356.128C216.595 356.192 216.867 356.304 217.091 356.464C217.667 356.816 218.163 357.6 218.579 358.816C219.027 360 219.411 361.456 219.731 363.184C220.051 364.88 220.307 366.704 220.499 368.656C220.723 370.576 220.915 372.48 221.075 374.368C222.035 374.24 222.835 374.144 223.475 374.08C224.115 374.016 224.579 373.984 224.867 373.984C225.955 373.984 226.643 374.128 226.931 374.416C227.219 374.704 227.379 375.04 227.411 375.424C227.475 376 227.315 376.512 226.931 376.96C226.547 377.408 226.003 377.744 225.299 377.968C225.075 378.032 224.595 378.144 223.859 378.304C223.155 378.432 222.307 378.592 221.315 378.784C221.347 379.744 221.363 380.64 221.363 381.472C221.395 382.272 221.411 382.96 221.411 383.536C221.411 386.448 221.235 388.64 220.883 390.112C220.531 391.552 220.099 392.528 219.587 393.04C219.075 393.552 218.579 393.808 218.099 393.808C217.523 393.808 217.123 393.648 216.899 393.328C216.675 392.976 216.563 392.48 216.563 391.84V388.432C216.563 387.248 216.547 385.904 216.515 384.4C216.515 382.864 216.499 381.248 216.467 379.552C214.579 379.872 212.659 380.176 210.707 380.464C208.787 380.752 207.123 381.008 205.715 381.232C205.011 383.056 204.403 384.704 203.891 386.176C203.379 387.616 203.027 388.72 202.835 389.488C202.355 391.088 201.923 392.288 201.539 393.088C201.155 393.856 200.787 394.368 200.435 394.624C200.115 394.88 199.763 395.008 199.379 395.008ZM207.347 376.96C209.011 376.576 210.595 376.224 212.099 375.904C213.635 375.584 215.043 375.312 216.323 375.088C216.227 372.208 216.051 369.456 215.795 366.832C215.571 364.176 215.235 362.08 214.787 360.544C214.179 361.6 213.459 363.008 212.627 364.768C211.795 366.528 210.915 368.48 209.987 370.624C209.091 372.736 208.211 374.848 207.347 376.96Z" fill="#FF5F5F"/>
<path d="M437.971 117.656C437.971 119.736 437.843 121.944 437.587 124.28C437.331 126.616 436.915 128.968 436.339 131.336C435.763 133.672 435.011 135.896 434.083 138.008C433.187 140.088 432.083 141.96 430.771 143.624C429.459 145.256 427.923 146.552 426.163 147.512C424.435 148.472 422.451 148.952 420.211 148.952C417.139 148.952 414.707 147.976 412.915 146.024C411.123 144.072 410.227 141.144 410.227 137.24C410.227 135.032 410.451 132.872 410.899 130.76C411.347 128.616 411.875 126.664 412.483 124.904C413.091 123.144 413.619 121.688 414.067 120.536C413.939 120.28 413.875 119.976 413.875 119.624C413.875 118.664 414.099 117.768 414.547 116.936C414.995 116.072 415.539 115.368 416.179 114.824C416.851 114.28 417.491 114.008 418.099 114.008C418.579 114.008 418.963 114.184 419.251 114.536C419.571 114.888 419.731 115.432 419.731 116.168C419.731 116.968 419.459 118.056 418.915 119.432C418.403 120.808 417.811 122.44 417.139 124.328C416.467 126.184 415.859 128.28 415.315 130.616C414.803 132.92 414.547 135.4 414.547 138.056C414.547 140.104 415.091 141.672 416.179 142.76C417.267 143.816 418.883 144.344 421.027 144.344C422.787 144.344 424.323 143.784 425.635 142.664C426.947 141.544 428.051 140.024 428.947 138.104C429.875 136.152 430.627 133.944 431.203 131.48C431.811 129.016 432.275 126.44 432.595 123.752C432.947 121.064 433.203 118.424 433.363 115.832C433.427 115 433.667 114.392 434.083 114.008C434.531 113.592 435.075 113.384 435.715 113.384C436.195 113.384 436.595 113.48 436.915 113.672C437.267 113.832 437.523 114.216 437.683 114.824C437.875 115.432 437.971 116.376 437.971 117.656Z" fill="#FF5F5F"/>
<path d="M685.379 144.008C684.867 144.008 684.451 143.832 684.131 143.48C683.811 143.128 683.651 142.504 683.651 141.608C683.651 140.936 683.859 139.848 684.275 138.344C684.723 136.808 685.315 135.016 686.051 132.968C686.819 130.92 687.667 128.76 688.595 126.488C689.555 124.184 690.547 121.896 691.571 119.624C692.595 117.352 693.603 115.256 694.595 113.336C695.587 111.384 696.499 109.736 697.331 108.392C698.163 107.048 698.867 106.168 699.443 105.752C700.115 105.272 700.739 105.032 701.315 105.032C701.635 105.032 701.955 105.064 702.275 105.128C702.595 105.192 702.867 105.304 703.091 105.464C703.667 105.816 704.163 106.6 704.579 107.816C705.027 109 705.411 110.456 705.731 112.184C706.051 113.88 706.307 115.704 706.499 117.656C706.723 119.576 706.915 121.48 707.075 123.368C708.035 123.24 708.835 123.144 709.475 123.08C710.115 123.016 710.579 122.984 710.867 122.984C711.955 122.984 712.643 123.128 712.931 123.416C713.219 123.704 713.379 124.04 713.411 124.424C713.475 125 713.315 125.512 712.931 125.96C712.547 126.408 712.003 126.744 711.299 126.968C711.075 127.032 710.595 127.144 709.859 127.304C709.155 127.432 708.307 127.592 707.315 127.784C707.347 128.744 707.363 129.64 707.363 130.472C707.395 131.272 707.411 131.96 707.411 132.536C707.411 135.448 707.235 137.64 706.883 139.112C706.531 140.552 706.099 141.528 705.587 142.04C705.075 142.552 704.579 142.808 704.099 142.808C703.523 142.808 703.123 142.648 702.899 142.328C702.675 141.976 702.563 141.48 702.563 140.84V137.432C702.563 136.248 702.547 134.904 702.515 133.4C702.515 131.864 702.499 130.248 702.467 128.552C700.579 128.872 698.659 129.176 696.707 129.464C694.787 129.752 693.123 130.008 691.715 130.232C691.011 132.056 690.403 133.704 689.891 135.176C689.379 136.616 689.027 137.72 688.835 138.488C688.355 140.088 687.923 141.288 687.539 142.088C687.155 142.856 686.787 143.368 686.435 143.624C686.115 143.88 685.763 144.008 685.379 144.008ZM693.347 125.96C695.011 125.576 696.595 125.224 698.099 124.904C699.635 124.584 701.043 124.312 702.323 124.088C702.227 121.208 702.051 118.456 701.795 115.832C701.571 113.176 701.235 111.08 700.787 109.544C700.179 110.6 699.459 112.008 698.627 113.768C697.795 115.528 696.915 117.48 695.987 119.624C695.091 121.736 694.211 123.848 693.347 125.96Z" fill="#FF5F5F"/>
<path d="M108.379 339.008C107.867 339.008 107.451 338.832 107.131 338.48C106.811 338.128 106.651 337.504 106.651 336.608C106.651 335.936 106.859 334.848 107.275 333.344C107.723 331.808 108.315 330.016 109.051 327.968C109.819 325.92 110.667 323.76 111.595 321.488C112.555 319.184 113.547 316.896 114.571 314.624C115.595 312.352 116.603 310.256 117.595 308.336C118.587 306.384 119.499 304.736 120.331 303.392C121.163 302.048 121.867 301.168 122.443 300.752C123.115 300.272 123.739 300.032 124.315 300.032C124.635 300.032 124.955 300.064 125.275 300.128C125.595 300.192 125.867 300.304 126.091 300.464C126.667 300.816 127.163 301.6 127.579 302.816C128.027 304 128.411 305.456 128.731 307.184C129.051 308.88 129.307 310.704 129.499 312.656C129.723 314.576 129.915 316.48 130.075 318.368C131.035 318.24 131.835 318.144 132.475 318.08C133.115 318.016 133.579 317.984 133.867 317.984C134.955 317.984 135.643 318.128 135.931 318.416C136.219 318.704 136.379 319.04 136.411 319.424C136.475 320 136.315 320.512 135.931 320.96C135.547 321.408 135.003 321.744 134.299 321.968C134.075 322.032 133.595 322.144 132.859 322.304C132.155 322.432 131.307 322.592 130.315 322.784C130.347 323.744 130.363 324.64 130.363 325.472C130.395 326.272 130.411 326.96 130.411 327.536C130.411 330.448 130.235 332.64 129.883 334.112C129.531 335.552 129.099 336.528 128.587 337.04C128.075 337.552 127.579 337.808 127.099 337.808C126.523 337.808 126.123 337.648 125.899 337.328C125.675 336.976 125.563 336.48 125.563 335.84V332.432C125.563 331.248 125.547 329.904 125.515 328.4C125.515 326.864 125.499 325.248 125.467 323.552C123.579 323.872 121.659 324.176 119.707 324.464C117.787 324.752 116.123 325.008 114.715 325.232C114.011 327.056 113.403 328.704 112.891 330.176C112.379 331.616 112.027 332.72 111.835 333.488C111.355 335.088 110.923 336.288 110.539 337.088C110.155 337.856 109.787 338.368 109.435 338.624C109.115 338.88 108.763 339.008 108.379 339.008ZM116.347 320.96C118.011 320.576 119.595 320.224 121.099 319.904C122.635 319.584 124.043 319.312 125.323 319.088C125.227 316.208 125.051 313.456 124.795 310.832C124.571 308.176 124.235 306.08 123.787 304.544C123.179 305.6 122.459 307.008 121.627 308.768C120.795 310.528 119.915 312.48 118.987 314.624C118.091 316.736 117.211 318.848 116.347 320.96Z" fill="#FF5F5F"/>
<path d="M92.1179 459.336C91.5419 459.336 91.0459 459.08 90.6299 458.568C90.2459 458.056 90.0539 457.16 90.0539 455.88C90.0539 455.144 90.1979 454.28 90.4859 453.288C91.1259 451.272 91.7819 449.112 92.4539 446.808C93.1579 444.504 93.8139 442.152 94.4219 439.752C95.0619 437.352 95.5739 435.032 95.9579 432.792C96.3419 430.52 96.5339 428.44 96.5339 426.552C96.5339 425.912 96.5019 425.288 96.4379 424.68C96.4059 424.072 96.3259 423.496 96.1979 422.952C92.9659 426.024 89.9739 430.2 87.2219 435.48C84.5019 440.728 82.0219 446.84 79.7819 453.816C79.3979 454.872 78.9179 455.608 78.3419 456.024C77.7659 456.44 77.2219 456.648 76.7099 456.648C76.2619 456.648 75.8299 456.472 75.4139 456.12C74.9979 455.736 74.7899 455.16 74.7899 454.392C74.7899 453.88 74.9179 453.16 75.1739 452.232C75.4299 451.272 75.8779 450.392 76.5179 449.592C76.8699 447.48 77.1579 445.24 77.3819 442.872C77.6379 440.504 77.7659 438.312 77.7659 436.296C77.7659 435.368 77.7179 434.504 77.6219 433.704C77.5579 432.872 77.4459 432.152 77.2859 431.544C75.6219 433.304 74.0699 435.512 72.6299 438.168C71.2219 440.792 69.9739 443.624 68.8859 446.664C67.7979 449.672 66.8859 452.616 66.1499 455.496C65.5739 457.576 64.6459 458.616 63.3659 458.616C62.8539 458.616 62.4219 458.344 62.0699 457.8C61.7499 457.256 61.5899 456.44 61.5899 455.352C61.5899 454.296 61.8459 452.872 62.3579 451.08C62.8699 449.288 63.5579 447.32 64.4219 445.176C65.3179 443.032 66.3099 440.904 67.3979 438.792C68.5179 436.648 69.6699 434.696 70.8539 432.936C72.0699 431.144 73.2539 429.704 74.4059 428.616C75.5579 427.528 76.5979 426.984 77.5259 426.984C78.1339 426.984 78.6779 427.096 79.1579 427.32C79.6379 427.544 80.0539 428.008 80.4059 428.712C80.7579 429.384 81.0139 430.424 81.1739 431.832C81.3659 433.208 81.4619 435.048 81.4619 437.352C81.4619 437.768 81.4619 438.248 81.4619 438.792C82.3899 436.232 83.4619 433.752 84.6779 431.352C85.9259 428.92 87.2379 426.744 88.6139 424.824C89.9899 422.904 91.3659 421.384 92.7419 420.264C94.1179 419.144 95.4139 418.584 96.6299 418.584C98.0059 418.584 99.1259 419.336 99.9899 420.84C100.854 422.312 101.286 424.632 101.286 427.8C101.286 430.808 101.046 433.736 100.566 436.584C100.086 439.432 99.4779 442.12 98.7419 444.648C98.0379 447.176 97.3019 449.48 96.5339 451.56C95.7979 453.608 95.1579 455.368 94.6139 456.84C94.2619 457.736 93.8939 458.376 93.5099 458.76C93.1259 459.144 92.6619 459.336 92.1179 459.336Z" fill="#FF5F5F"/>
<path d="M277.379 161.008C276.867 161.008 276.451 160.832 276.131 160.48C275.811 160.128 275.651 159.504 275.651 158.608C275.651 157.936 275.859 156.848 276.275 155.344C276.723 153.808 277.315 152.016 278.051 149.968C278.819 147.92 279.667 145.76 280.595 143.488C281.555 141.184 282.547 138.896 283.571 136.624C284.595 134.352 285.603 132.256 286.595 130.336C287.587 128.384 288.499 126.736 289.331 125.392C290.163 124.048 290.867 123.168 291.443 122.752C292.115 122.272 292.739 122.032 293.315 122.032C293.635 122.032 293.955 122.064 294.275 122.128C294.595 122.192 294.867 122.304 295.091 122.464C295.667 122.816 296.163 123.6 296.579 124.816C297.027 126 297.411 127.456 297.731 129.184C298.051 130.88 298.307 132.704 298.499 134.656C298.723 136.576 298.915 138.48 299.075 140.368C300.035 140.24 300.835 140.144 301.475 140.08C302.115 140.016 302.579 139.984 302.867 139.984C303.955 139.984 304.643 140.128 304.931 140.416C305.219 140.704 305.379 141.04 305.411 141.424C305.475 142 305.315 142.512 304.931 142.96C304.547 143.408 304.003 143.744 303.299 143.968C303.075 144.032 302.595 144.144 301.859 144.304C301.155 144.432 300.307 144.592 299.315 144.784C299.347 145.744 299.363 146.64 299.363 147.472C299.395 148.272 299.411 148.96 299.411 149.536C299.411 152.448 299.235 154.64 298.883 156.112C298.531 157.552 298.099 158.528 297.587 159.04C297.075 159.552 296.579 159.808 296.099 159.808C295.523 159.808 295.123 159.648 294.899 159.328C294.675 158.976 294.563 158.48 294.563 157.84V154.432C294.563 153.248 294.547 151.904 294.515 150.4C294.515 148.864 294.499 147.248 294.467 145.552C292.579 145.872 290.659 146.176 288.707 146.464C286.787 146.752 285.123 147.008 283.715 147.232C283.011 149.056 282.403 150.704 281.891 152.176C281.379 153.616 281.027 154.72 280.835 155.488C280.355 157.088 279.923 158.288 279.539 159.088C279.155 159.856 278.787 160.368 278.435 160.624C278.115 160.88 277.763 161.008 277.379 161.008ZM285.347 142.96C287.011 142.576 288.595 142.224 290.099 141.904C291.635 141.584 293.043 141.312 294.323 141.088C294.227 138.208 294.051 135.456 293.795 132.832C293.571 130.176 293.235 128.08 292.787 126.544C292.179 127.6 291.459 129.008 290.627 130.768C289.795 132.528 288.915 134.48 287.987 136.624C287.091 138.736 286.211 140.848 285.347 142.96Z" fill="#FF5F5F"/>
<path d="M129.994 284.896C130.346 284.896 130.682 285.04 131.002 285.328C131.322 285.616 131.482 286.08 131.482 286.72C131.482 287.232 131.098 287.84 130.33 288.544C129.562 289.216 128.57 289.872 127.354 290.512C126.17 291.152 124.89 291.68 123.514 292.096C122.138 292.544 120.842 292.768 119.626 292.768C117.898 292.768 116.266 292.32 114.73 291.424C113.226 290.528 111.994 289.232 111.034 287.536C110.074 285.808 109.594 283.712 109.594 281.248C109.594 279.072 109.994 276.896 110.794 274.72C111.594 272.544 112.65 270.448 113.962 268.432C115.306 266.416 116.778 264.544 118.378 262.816C120.01 261.088 121.642 259.584 123.274 258.304C124.906 257.024 126.426 256.032 127.834 255.328C129.274 254.592 130.458 254.224 131.386 254.224C132.026 254.224 132.538 254.464 132.922 254.944C133.338 255.392 133.546 255.888 133.546 256.432C133.546 256.752 133.45 257.072 133.258 257.392C133.098 257.712 132.81 257.968 132.394 258.16C130.314 259.184 128.202 260.496 126.058 262.096C123.914 263.696 121.93 265.52 120.106 267.568C118.282 269.584 116.81 271.776 115.69 274.144C114.57 276.48 114.01 278.944 114.01 281.536C114.01 283.776 114.538 285.488 115.594 286.672C116.65 287.824 118.09 288.4 119.914 288.4C120.874 288.4 121.866 288.224 122.89 287.872C123.946 287.52 124.938 287.12 125.866 286.672C126.826 286.192 127.658 285.776 128.362 285.424C129.098 285.072 129.642 284.896 129.994 284.896Z" fill="#FF5F5F"/>
<path d="M69.3794 609.008C68.8674 609.008 68.4514 608.832 68.1314 608.48C67.8114 608.128 67.6514 607.504 67.6514 606.608C67.6514 605.936 67.8594 604.848 68.2754 603.344C68.7234 601.808 69.3154 600.016 70.0514 597.968C70.8194 595.92 71.6674 593.76 72.5954 591.488C73.5554 589.184 74.5474 586.896 75.5714 584.624C76.5954 582.352 77.6034 580.256 78.5954 578.336C79.5874 576.384 80.4994 574.736 81.3314 573.392C82.1634 572.048 82.8674 571.168 83.4434 570.752C84.1154 570.272 84.7394 570.032 85.3154 570.032C85.6354 570.032 85.9554 570.064 86.2754 570.128C86.5954 570.192 86.8674 570.304 87.0914 570.464C87.6674 570.816 88.1634 571.6 88.5794 572.816C89.0274 574 89.4114 575.456 89.7314 577.184C90.0514 578.88 90.3074 580.704 90.4994 582.656C90.7234 584.576 90.9154 586.48 91.0754 588.368C92.0354 588.24 92.8354 588.144 93.4754 588.08C94.1154 588.016 94.5794 587.984 94.8674 587.984C95.9554 587.984 96.6434 588.128 96.9314 588.416C97.2194 588.704 97.3794 589.04 97.4114 589.424C97.4754 590 97.3154 590.512 96.9314 590.96C96.5474 591.408 96.0034 591.744 95.2994 591.968C95.0754 592.032 94.5954 592.144 93.8594 592.304C93.1554 592.432 92.3074 592.592 91.3154 592.784C91.3474 593.744 91.3634 594.64 91.3634 595.472C91.3954 596.272 91.4114 596.96 91.4114 597.536C91.4114 600.448 91.2354 602.64 90.8834 604.112C90.5314 605.552 90.0994 606.528 89.5874 607.04C89.0754 607.552 88.5794 607.808 88.0994 607.808C87.5234 607.808 87.1234 607.648 86.8994 607.328C86.6754 606.976 86.5634 606.48 86.5634 605.84V602.432C86.5634 601.248 86.5474 599.904 86.5154 598.4C86.5154 596.864 86.4994 595.248 86.4674 593.552C84.5794 593.872 82.6594 594.176 80.7074 594.464C78.7874 594.752 77.1234 595.008 75.7154 595.232C75.0114 597.056 74.4034 598.704 73.8914 600.176C73.3794 601.616 73.0274 602.72 72.8354 603.488C72.3554 605.088 71.9234 606.288 71.5394 607.088C71.1554 607.856 70.7874 608.368 70.4354 608.624C70.1154 608.88 69.7634 609.008 69.3794 609.008ZM77.3474 590.96C79.0114 590.576 80.5954 590.224 82.0994 589.904C83.6354 589.584 85.0434 589.312 86.3234 589.088C86.2274 586.208 86.0514 583.456 85.7954 580.832C85.5714 578.176 85.2354 576.08 84.7874 574.544C84.1794 575.6 83.4594 577.008 82.6274 578.768C81.7954 580.528 80.9154 582.48 79.9874 584.624C79.0914 586.736 78.2114 588.848 77.3474 590.96Z" fill="#FF5F5F"/>
<path d="M380.523 223.736C378.667 223.736 376.795 223.496 374.907 223.016C373.019 222.504 371.307 221.864 369.771 221.096C369.259 222.92 368.779 224.92 368.331 227.096C367.883 229.272 367.467 231.608 367.083 234.104C366.731 235.896 366.379 237.064 366.027 237.608C365.675 238.152 365.227 238.424 364.683 238.424C364.139 238.424 363.707 238.168 363.387 237.656C363.067 237.112 362.907 236.104 362.907 234.632C362.907 234.344 362.987 233.672 363.147 232.616C363.307 231.56 363.515 230.264 363.771 228.728C364.059 227.16 364.363 225.48 364.683 223.688C365.003 221.864 365.323 220.04 365.643 218.216C364.875 217.384 364.491 216.6 364.491 215.864C364.491 215.512 364.587 215.176 364.779 214.856C364.971 214.504 365.371 214.328 365.979 214.328C366.075 214.328 366.187 214.344 366.315 214.376C366.667 212.456 366.955 210.744 367.179 209.24C367.435 207.704 367.579 206.6 367.611 205.928C367.675 204.776 367.899 203.976 368.283 203.528C368.667 203.048 369.115 202.808 369.627 202.808C370.043 202.808 370.379 202.984 370.635 203.336C370.891 203.656 371.019 204.472 371.019 205.784C371.019 206.616 370.955 207.736 370.827 209.144C372.395 205.944 374.027 203.672 375.723 202.328C377.451 200.984 379.371 200.312 381.483 200.312C383.403 200.312 385.051 200.84 386.427 201.896C387.803 202.92 388.859 204.376 389.595 206.264C390.331 208.152 390.699 210.376 390.699 212.936C390.699 216.552 389.819 219.256 388.059 221.048C386.299 222.84 383.787 223.736 380.523 223.736ZM371.019 217.112C372.235 217.816 373.595 218.472 375.099 219.08C376.603 219.656 378.155 219.944 379.755 219.944C382.347 219.944 384.235 219.368 385.419 218.216C386.635 217.032 387.243 215.128 387.243 212.504C387.243 209.464 386.763 207.304 385.803 206.024C384.843 204.744 383.531 204.104 381.867 204.104C379.979 204.104 378.091 205.16 376.203 207.272C374.315 209.352 372.587 212.632 371.019 217.112Z" fill="#FF5F5F"/>
<path d="M310.118 132.336C309.542 132.336 309.046 132.08 308.63 131.568C308.246 131.056 308.054 130.16 308.054 128.88C308.054 128.144 308.198 127.28 308.486 126.288C309.126 124.272 309.782 122.112 310.454 119.808C311.158 117.504 311.814 115.152 312.422 112.752C313.062 110.352 313.574 108.032 313.958 105.792C314.342 103.52 314.534 101.44 314.534 99.552C314.534 98.912 314.502 98.288 314.438 97.68C314.406 97.072 314.326 96.496 314.198 95.952C310.966 99.024 307.974 103.2 305.222 108.48C302.502 113.728 300.022 119.84 297.782 126.816C297.398 127.872 296.918 128.608 296.342 129.024C295.766 129.44 295.222 129.648 294.71 129.648C294.262 129.648 293.83 129.472 293.414 129.12C292.998 128.736 292.79 128.16 292.79 127.392C292.79 126.88 292.918 126.16 293.174 125.232C293.43 124.272 293.878 123.392 294.518 122.592C294.87 120.48 295.158 118.24 295.382 115.872C295.638 113.504 295.766 111.312 295.766 109.296C295.766 108.368 295.718 107.504 295.622 106.704C295.558 105.872 295.446 105.152 295.286 104.544C293.622 106.304 292.07 108.512 290.63 111.168C289.222 113.792 287.974 116.624 286.886 119.664C285.798 122.672 284.886 125.616 284.15 128.496C283.574 130.576 282.646 131.616 281.366 131.616C280.854 131.616 280.422 131.344 280.07 130.8C279.75 130.256 279.59 129.44 279.59 128.352C279.59 127.296 279.846 125.872 280.358 124.08C280.87 122.288 281.558 120.32 282.422 118.176C283.318 116.032 284.31 113.904 285.398 111.792C286.518 109.648 287.67 107.696 288.854 105.936C290.07 104.144 291.254 102.704 292.406 101.616C293.558 100.528 294.598 99.984 295.526 99.984C296.134 99.984 296.678 100.096 297.158 100.32C297.638 100.544 298.054 101.008 298.406 101.712C298.758 102.384 299.014 103.424 299.174 104.832C299.366 106.208 299.462 108.048 299.462 110.352C299.462 110.768 299.462 111.248 299.462 111.792C300.39 109.232 301.462 106.752 302.678 104.352C303.926 101.92 305.238 99.744 306.614 97.824C307.99 95.904 309.366 94.384 310.742 93.264C312.118 92.144 313.414 91.584 314.63 91.584C316.006 91.584 317.126 92.336 317.99 93.84C318.854 95.312 319.286 97.632 319.286 100.8C319.286 103.808 319.046 106.736 318.566 109.584C318.086 112.432 317.478 115.12 316.742 117.648C316.038 120.176 315.302 122.48 314.534 124.56C313.798 126.608 313.158 128.368 312.614 129.84C312.262 130.736 311.894 131.376 311.51 131.76C311.126 132.144 310.662 132.336 310.118 132.336Z" fill="#FF5F5F"/>
<path d="M419.379 500.008C418.867 500.008 418.451 499.832 418.131 499.48C417.811 499.128 417.651 498.504 417.651 497.608C417.651 496.936 417.859 495.848 418.275 494.344C418.723 492.808 419.315 491.016 420.051 488.968C420.819 486.92 421.667 484.76 422.595 482.488C423.555 480.184 424.547 477.896 425.571 475.624C426.595 473.352 427.603 471.256 428.595 469.336C429.587 467.384 430.499 465.736 431.331 464.392C432.163 463.048 432.867 462.168 433.443 461.752C434.115 461.272 434.739 461.032 435.315 461.032C435.635 461.032 435.955 461.064 436.275 461.128C436.595 461.192 436.867 461.304 437.091 461.464C437.667 461.816 438.163 462.6 438.579 463.816C439.027 465 439.411 466.456 439.731 468.184C440.051 469.88 440.307 471.704 440.499 473.656C440.723 475.576 440.915 477.48 441.075 479.368C442.035 479.24 442.835 479.144 443.475 479.08C444.115 479.016 444.579 478.984 444.867 478.984C445.955 478.984 446.643 479.128 446.931 479.416C447.219 479.704 447.379 480.04 447.411 480.424C447.475 481 447.315 481.512 446.931 481.96C446.547 482.408 446.003 482.744 445.299 482.968C445.075 483.032 444.595 483.144 443.859 483.304C443.155 483.432 442.307 483.592 441.315 483.784C441.347 484.744 441.363 485.64 441.363 486.472C441.395 487.272 441.411 487.96 441.411 488.536C441.411 491.448 441.235 493.64 440.883 495.112C440.531 496.552 440.099 497.528 439.587 498.04C439.075 498.552 438.579 498.808 438.099 498.808C437.523 498.808 437.123 498.648 436.899 498.328C436.675 497.976 436.563 497.48 436.563 496.84V493.432C436.563 492.248 436.547 490.904 436.515 489.4C436.515 487.864 436.499 486.248 436.467 484.552C434.579 484.872 432.659 485.176 430.707 485.464C428.787 485.752 427.123 486.008 425.715 486.232C425.011 488.056 424.403 489.704 423.891 491.176C423.379 492.616 423.027 493.72 422.835 494.488C422.355 496.088 421.923 497.288 421.539 498.088C421.155 498.856 420.787 499.368 420.435 499.624C420.115 499.88 419.763 500.008 419.379 500.008ZM427.347 481.96C429.011 481.576 430.595 481.224 432.099 480.904C433.635 480.584 435.043 480.312 436.323 480.088C436.227 477.208 436.051 474.456 435.795 471.832C435.571 469.176 435.235 467.08 434.787 465.544C434.179 466.6 433.459 468.008 432.627 469.768C431.795 471.528 430.915 473.48 429.987 475.624C429.091 477.736 428.211 479.848 427.347 481.96Z" fill="#FF5F5F"/>
<path d="M611.536 224.88C610.832 224.88 610.24 224.608 609.76 224.064C609.312 223.52 609.088 222.624 609.088 221.376C609.088 220.96 609.136 220.512 609.232 220.032C609.328 219.52 609.504 219.008 609.76 218.496C608.16 214.528 606.816 210.672 605.728 206.928C604.64 203.184 603.712 199.264 602.944 195.168C601.92 197.28 600.944 199.472 600.016 201.744C599.12 203.984 598.272 206.176 597.472 208.32C596.672 210.464 595.952 212.464 595.312 214.32C594.672 216.176 594.112 217.776 593.632 219.12C593.12 220.72 592.608 221.792 592.096 222.336C591.584 222.912 591.056 223.2 590.512 223.2C589.776 223.2 589.216 223.024 588.832 222.672C588.48 222.32 588.304 221.696 588.304 220.8C588.304 220.128 588.48 219.088 588.832 217.68C589.184 216.272 589.664 214.64 590.272 212.784C590.912 210.928 591.632 208.976 592.432 206.928C593.232 204.88 594.08 202.88 594.976 200.928C595.904 198.976 596.832 197.216 597.76 195.648C598.688 194.048 599.568 192.784 600.4 191.856C601.264 190.896 602.048 190.416 602.752 190.416C603.488 190.416 604.112 190.56 604.624 190.848C605.168 191.136 605.76 191.888 606.4 193.104C606.816 193.936 607.296 195.152 607.84 196.752C608.384 198.32 608.928 200.096 609.472 202.08C610.016 204.032 610.544 206.048 611.056 208.128C611.568 210.176 612.016 212.08 612.4 213.84C613.68 207.92 614.8 202.736 615.76 198.288C616.72 193.808 617.456 190.304 617.968 187.776C618.512 185.248 618.8 183.92 618.832 183.792C619.024 182.96 619.232 182.448 619.456 182.256C619.68 182.064 620 181.968 620.416 181.968C620.992 181.968 621.552 182.208 622.096 182.688C622.672 183.136 622.96 183.76 622.96 184.56C622.96 184.944 622.864 185.824 622.672 187.2C622.512 188.576 622.256 190.304 621.904 192.384C621.584 194.432 621.168 196.72 620.656 199.248C620.144 201.744 619.552 204.352 618.88 207.072C618.208 209.76 617.456 212.432 616.624 215.088C615.824 217.712 614.944 220.192 613.984 222.528C613.632 223.424 613.216 224.032 612.736 224.352C612.288 224.704 611.888 224.88 611.536 224.88Z" fill="#FF5F5F"/>
<path d="M515.545 152.944C514.937 152.944 514.425 152.656 514.009 152.08C513.593 151.504 513.385 150.288 513.385 148.432C513.385 147.088 513.561 145.424 513.913 143.44C514.265 141.456 514.729 139.328 515.305 137.056C515.913 134.784 516.553 132.512 517.225 130.24C517.897 127.968 518.569 125.84 519.241 123.856C519.913 121.872 520.505 120.192 521.017 118.816C521.529 117.408 521.897 116.464 522.121 115.984C522.249 115.664 522.473 115.376 522.793 115.12C523.113 114.864 523.449 114.736 523.801 114.736C524.537 114.736 525.001 114.928 525.193 115.312C525.385 115.696 525.481 116.112 525.481 116.56C525.481 117.264 525.161 118.88 524.521 121.408C523.881 123.904 522.889 127.616 521.545 132.544C522.793 132.256 524.169 131.984 525.673 131.728C527.177 131.472 528.681 131.232 530.185 131.008C531.721 130.784 533.129 130.592 534.409 130.432C535.721 130.24 536.809 130.096 537.673 130C538.569 129.904 539.113 129.856 539.305 129.856C539.529 129.856 539.801 129.92 540.121 130.048C540.633 128.096 541.129 126.288 541.609 124.624C542.089 122.96 542.505 121.568 542.857 120.448C543.209 119.296 543.449 118.528 543.577 118.144C544.249 116.544 545.049 115.744 545.977 115.744C546.521 115.744 546.969 115.936 547.321 116.32C547.673 116.704 547.849 117.264 547.849 118C547.849 118.608 547.721 119.632 547.465 121.072C547.209 122.512 546.857 124.208 546.409 126.16C545.993 128.112 545.513 130.192 544.969 132.4C544.457 134.576 543.929 136.752 543.385 138.928C542.873 141.072 542.377 143.088 541.897 144.976C541.449 146.832 541.065 148.4 540.745 149.68C540.457 150.96 540.281 151.792 540.217 152.176C540.089 152.976 539.881 153.712 539.593 154.384C539.305 155.088 538.761 155.44 537.961 155.44C537.321 155.44 536.889 155.024 536.665 154.192C536.473 153.36 536.377 152.288 536.377 150.976C536.377 149.504 536.505 147.824 536.761 145.936C537.017 144.016 537.353 142 537.769 139.888C538.217 137.776 538.697 135.68 539.209 133.6C538.313 133.824 537.113 134.08 535.609 134.368C534.137 134.656 532.505 134.96 530.713 135.28C528.921 135.6 527.129 135.904 525.337 136.192C523.545 136.48 521.897 136.72 520.393 136.912C519.529 140.368 518.841 143.296 518.329 145.696C517.849 148.064 517.417 149.872 517.033 151.12C516.649 152.336 516.153 152.944 515.545 152.944Z" fill="#FF5F5F"/>
<path d="M180.522 224.304C179.498 224.304 178.426 224.048 177.306 223.536C176.218 223.056 175.29 222.256 174.522 221.136C173.786 219.984 173.418 218.464 173.418 216.576C173.418 214.368 173.61 212.032 173.994 209.568C174.378 207.104 174.874 204.64 175.482 202.176C176.122 199.68 176.826 197.312 177.594 195.072C178.362 192.832 179.13 190.832 179.898 189.072C180.698 187.312 181.434 185.936 182.106 184.944C182.778 183.92 183.338 183.408 183.786 183.408C184.394 183.408 184.906 183.648 185.322 184.128C185.77 184.608 185.994 185.28 185.994 186.144C185.994 186.496 185.786 187.328 185.37 188.64C184.954 189.92 184.426 191.536 183.786 193.488C183.146 195.44 182.458 197.552 181.722 199.824C181.018 202.096 180.346 204.384 179.706 206.688C179.066 208.992 178.538 211.168 178.122 213.216C177.706 215.264 177.498 217.008 177.498 218.448C177.498 218.864 177.61 219.264 177.834 219.648C178.058 220 178.426 220.176 178.938 220.176C179.642 220.176 180.65 220.016 181.962 219.696C183.306 219.376 184.762 218.992 186.33 218.544C187.898 218.064 189.402 217.6 190.842 217.152C192.282 216.704 193.498 216.32 194.49 216C195.482 215.68 196.042 215.52 196.17 215.52C196.554 215.52 196.874 215.632 197.13 215.856C197.386 216.048 197.514 216.352 197.514 216.768C197.514 217.28 197.13 217.872 196.362 218.544C195.626 219.216 194.634 219.888 193.386 220.56C192.17 221.232 190.81 221.84 189.306 222.384C187.802 222.96 186.282 223.424 184.746 223.776C183.242 224.128 181.834 224.304 180.522 224.304Z" fill="#FF5F5F"/>
<path d="M170.379 134.008C169.867 134.008 169.451 133.832 169.131 133.48C168.811 133.128 168.651 132.504 168.651 131.608C168.651 130.936 168.859 129.848 169.275 128.344C169.723 126.808 170.315 125.016 171.051 122.968C171.819 120.92 172.667 118.76 173.595 116.488C174.555 114.184 175.547 111.896 176.571 109.624C177.595 107.352 178.603 105.256 179.595 103.336C180.587 101.384 181.499 99.736 182.331 98.392C183.163 97.048 183.867 96.168 184.443 95.752C185.115 95.272 185.739 95.032 186.315 95.032C186.635 95.032 186.955 95.064 187.275 95.128C187.595 95.192 187.867 95.304 188.091 95.464C188.667 95.816 189.163 96.6 189.579 97.816C190.027 99 190.411 100.456 190.731 102.184C191.051 103.88 191.307 105.704 191.499 107.656C191.723 109.576 191.915 111.48 192.075 113.368C193.035 113.24 193.835 113.144 194.475 113.08C195.115 113.016 195.579 112.984 195.867 112.984C196.955 112.984 197.643 113.128 197.931 113.416C198.219 113.704 198.379 114.04 198.411 114.424C198.475 115 198.315 115.512 197.931 115.96C197.547 116.408 197.003 116.744 196.299 116.968C196.075 117.032 195.595 117.144 194.859 117.304C194.155 117.432 193.307 117.592 192.315 117.784C192.347 118.744 192.363 119.64 192.363 120.472C192.395 121.272 192.411 121.96 192.411 122.536C192.411 125.448 192.235 127.64 191.883 129.112C191.531 130.552 191.099 131.528 190.587 132.04C190.075 132.552 189.579 132.808 189.099 132.808C188.523 132.808 188.123 132.648 187.899 132.328C187.675 131.976 187.563 131.48 187.563 130.84V127.432C187.563 126.248 187.547 124.904 187.515 123.4C187.515 121.864 187.499 120.248 187.467 118.552C185.579 118.872 183.659 119.176 181.707 119.464C179.787 119.752 178.123 120.008 176.715 120.232C176.011 122.056 175.403 123.704 174.891 125.176C174.379 126.616 174.027 127.72 173.835 128.488C173.355 130.088 172.923 131.288 172.539 132.088C172.155 132.856 171.787 133.368 171.435 133.624C171.115 133.88 170.763 134.008 170.379 134.008ZM178.347 115.96C180.011 115.576 181.595 115.224 183.099 114.904C184.635 114.584 186.043 114.312 187.323 114.088C187.227 111.208 187.051 108.456 186.795 105.832C186.571 103.176 186.235 101.08 185.787 99.544C185.179 100.6 184.459 102.008 183.627 103.768C182.795 105.528 181.915 107.48 180.987 109.624C180.091 111.736 179.211 113.848 178.347 115.96Z" fill="#FF5F5F"/>
<path d="M795.958 533.472C795.51 533.472 795.094 533.344 794.71 533.088C794.358 532.832 794.086 532.32 793.894 531.552C793.702 530.752 793.606 529.584 793.606 528.048C793.606 524.848 793.91 521.68 794.518 518.544C795.126 515.408 795.99 512.464 797.11 509.712C798.23 506.928 799.558 504.48 801.094 502.368C802.662 500.224 804.39 498.544 806.278 497.328C808.198 496.112 810.23 495.504 812.374 495.504C814.71 495.504 816.55 496.224 817.894 497.664C819.238 499.072 819.91 501.088 819.91 503.712C819.91 506.144 819.222 508.16 817.846 509.76C816.502 511.36 814.63 512.16 812.23 512.16C811.814 512.16 811.366 512.128 810.886 512.064C810.406 511.968 809.91 511.84 809.398 511.68C811.35 514.944 813.302 517.776 815.254 520.176C817.206 522.576 819.19 524.736 821.206 526.656C823.254 528.544 825.334 530.368 827.446 532.128C827.766 532.416 828.006 532.704 828.166 532.992C828.326 533.248 828.406 533.552 828.406 533.904C828.406 534.448 828.278 534.848 828.022 535.104C827.798 535.36 827.318 535.488 826.582 535.488C825.782 535.488 824.79 535.136 823.606 534.432C822.454 533.728 821.19 532.768 819.814 531.552C818.438 530.336 817.046 528.96 815.638 527.424C814.23 525.888 812.87 524.288 811.558 522.624C810.278 520.928 809.126 519.28 808.102 517.68C807.078 516.048 806.262 514.544 805.654 513.168C805.078 511.792 804.79 510.624 804.79 509.664C804.79 509.024 804.95 508.528 805.27 508.176C805.59 507.792 806.022 507.6 806.566 507.6C807.27 507.6 807.91 507.696 808.486 507.888C809.094 508.08 809.734 508.176 810.406 508.176C812.166 508.176 813.558 507.728 814.582 506.832C815.638 505.904 816.166 504.384 816.166 502.272C816.166 500.416 814.918 499.488 812.422 499.488C810.694 499.488 809.03 500.176 807.43 501.552C805.83 502.896 804.358 504.832 803.014 507.36C801.702 509.888 800.614 512.928 799.75 516.48C798.886 520 798.326 523.936 798.07 528.288C798.006 529.792 797.862 530.912 797.638 531.648C797.446 532.384 797.206 532.88 796.918 533.136C796.662 533.36 796.342 533.472 795.958 533.472Z" fill="#FF5F5F"/>
<path d="M992.118 456.336C991.542 456.336 991.046 456.08 990.63 455.568C990.246 455.056 990.054 454.16 990.054 452.88C990.054 452.144 990.198 451.28 990.486 450.288C991.126 448.272 991.782 446.112 992.454 443.808C993.158 441.504 993.814 439.152 994.422 436.752C995.062 434.352 995.574 432.032 995.958 429.792C996.342 427.52 996.534 425.44 996.534 423.552C996.534 422.912 996.502 422.288 996.438 421.68C996.406 421.072 996.326 420.496 996.198 419.952C992.966 423.024 989.974 427.2 987.222 432.48C984.502 437.728 982.022 443.84 979.782 450.816C979.398 451.872 978.918 452.608 978.342 453.024C977.766 453.44 977.222 453.648 976.71 453.648C976.262 453.648 975.83 453.472 975.414 453.12C974.998 452.736 974.79 452.16 974.79 451.392C974.79 450.88 974.918 450.16 975.174 449.232C975.43 448.272 975.878 447.392 976.518 446.592C976.87 444.48 977.158 442.24 977.382 439.872C977.638 437.504 977.766 435.312 977.766 433.296C977.766 432.368 977.718 431.504 977.622 430.704C977.558 429.872 977.446 429.152 977.286 428.544C975.622 430.304 974.07 432.512 972.63 435.168C971.222 437.792 969.974 440.624 968.886 443.664C967.798 446.672 966.886 449.616 966.15 452.496C965.574 454.576 964.646 455.616 963.366 455.616C962.854 455.616 962.422 455.344 962.07 454.8C961.75 454.256 961.59 453.44 961.59 452.352C961.59 451.296 961.846 449.872 962.358 448.08C962.87 446.288 963.558 444.32 964.422 442.176C965.318 440.032 966.31 437.904 967.398 435.792C968.518 433.648 969.67 431.696 970.854 429.936C972.07 428.144 973.254 426.704 974.406 425.616C975.558 424.528 976.598 423.984 977.526 423.984C978.134 423.984 978.678 424.096 979.158 424.32C979.638 424.544 980.054 425.008 980.406 425.712C980.758 426.384 981.014 427.424 981.174 428.832C981.366 430.208 981.462 432.048 981.462 434.352C981.462 434.768 981.462 435.248 981.462 435.792C982.39 433.232 983.462 430.752 984.678 428.352C985.926 425.92 987.238 423.744 988.614 421.824C989.99 419.904 991.366 418.384 992.742 417.264C994.118 416.144 995.414 415.584 996.63 415.584C998.006 415.584 999.126 416.336 999.99 417.84C1000.85 419.312 1001.29 421.632 1001.29 424.8C1001.29 427.808 1001.05 430.736 1000.57 433.584C1000.09 436.432 999.478 439.12 998.742 441.648C998.038 444.176 997.302 446.48 996.534 448.56C995.798 450.608 995.158 452.368 994.614 453.84C994.262 454.736 993.894 455.376 993.51 455.76C993.126 456.144 992.662 456.336 992.118 456.336Z" fill="#FF5F5F"/>
<path d="M1008.38 388.008C1007.87 388.008 1007.45 387.832 1007.13 387.48C1006.81 387.128 1006.65 386.504 1006.65 385.608C1006.65 384.936 1006.86 383.848 1007.28 382.344C1007.72 380.808 1008.32 379.016 1009.05 376.968C1009.82 374.92 1010.67 372.76 1011.6 370.488C1012.56 368.184 1013.55 365.896 1014.57 363.624C1015.6 361.352 1016.6 359.256 1017.6 357.336C1018.59 355.384 1019.5 353.736 1020.33 352.392C1021.16 351.048 1021.87 350.168 1022.44 349.752C1023.12 349.272 1023.74 349.032 1024.32 349.032C1024.64 349.032 1024.96 349.064 1025.28 349.128C1025.6 349.192 1025.87 349.304 1026.09 349.464C1026.67 349.816 1027.16 350.6 1027.58 351.816C1028.03 353 1028.41 354.456 1028.73 356.184C1029.05 357.88 1029.31 359.704 1029.5 361.656C1029.72 363.576 1029.92 365.48 1030.08 367.368C1031.04 367.24 1031.84 367.144 1032.48 367.08C1033.12 367.016 1033.58 366.984 1033.87 366.984C1034.96 366.984 1035.64 367.128 1035.93 367.416C1036.22 367.704 1036.38 368.04 1036.41 368.424C1036.48 369 1036.32 369.512 1035.93 369.96C1035.55 370.408 1035 370.744 1034.3 370.968C1034.08 371.032 1033.6 371.144 1032.86 371.304C1032.16 371.432 1031.31 371.592 1030.32 371.784C1030.35 372.744 1030.36 373.64 1030.36 374.472C1030.4 375.272 1030.41 375.96 1030.41 376.536C1030.41 379.448 1030.24 381.64 1029.88 383.112C1029.53 384.552 1029.1 385.528 1028.59 386.04C1028.08 386.552 1027.58 386.808 1027.1 386.808C1026.52 386.808 1026.12 386.648 1025.9 386.328C1025.68 385.976 1025.56 385.48 1025.56 384.84V381.432C1025.56 380.248 1025.55 378.904 1025.52 377.4C1025.52 375.864 1025.5 374.248 1025.47 372.552C1023.58 372.872 1021.66 373.176 1019.71 373.464C1017.79 373.752 1016.12 374.008 1014.72 374.232C1014.01 376.056 1013.4 377.704 1012.89 379.176C1012.38 380.616 1012.03 381.72 1011.84 382.488C1011.36 384.088 1010.92 385.288 1010.54 386.088C1010.16 386.856 1009.79 387.368 1009.44 387.624C1009.12 387.88 1008.76 388.008 1008.38 388.008ZM1016.35 369.96C1018.01 369.576 1019.6 369.224 1021.1 368.904C1022.64 368.584 1024.04 368.312 1025.32 368.088C1025.23 365.208 1025.05 362.456 1024.8 359.832C1024.57 357.176 1024.24 355.08 1023.79 353.544C1023.18 354.6 1022.46 356.008 1021.63 357.768C1020.8 359.528 1019.92 361.48 1018.99 363.624C1018.09 365.736 1017.21 367.848 1016.35 369.96Z" fill="#FF5F5F"/>
<path d="M772.379 622.008C771.867 622.008 771.451 621.832 771.131 621.48C770.811 621.128 770.651 620.504 770.651 619.608C770.651 618.936 770.859 617.848 771.275 616.344C771.723 614.808 772.315 613.016 773.051 610.968C773.819 608.92 774.667 606.76 775.595 604.488C776.555 602.184 777.547 599.896 778.571 597.624C779.595 595.352 780.603 593.256 781.595 591.336C782.587 589.384 783.499 587.736 784.331 586.392C785.163 585.048 785.867 584.168 786.443 583.752C787.115 583.272 787.739 583.032 788.315 583.032C788.635 583.032 788.955 583.064 789.275 583.128C789.595 583.192 789.867 583.304 790.091 583.464C790.667 583.816 791.163 584.6 791.579 585.816C792.027 587 792.411 588.456 792.731 590.184C793.051 591.88 793.307 593.704 793.499 595.656C793.723 597.576 793.915 599.48 794.075 601.368C795.035 601.24 795.835 601.144 796.475 601.08C797.115 601.016 797.579 600.984 797.867 600.984C798.955 600.984 799.643 601.128 799.931 601.416C800.219 601.704 800.379 602.04 800.411 602.424C800.475 603 800.315 603.512 799.931 603.96C799.547 604.408 799.003 604.744 798.299 604.968C798.075 605.032 797.595 605.144 796.859 605.304C796.155 605.432 795.307 605.592 794.315 605.784C794.347 606.744 794.363 607.64 794.363 608.472C794.395 609.272 794.411 609.96 794.411 610.536C794.411 613.448 794.235 615.64 793.883 617.112C793.531 618.552 793.099 619.528 792.587 620.04C792.075 620.552 791.579 620.808 791.099 620.808C790.523 620.808 790.123 620.648 789.899 620.328C789.675 619.976 789.563 619.48 789.563 618.84V615.432C789.563 614.248 789.547 612.904 789.515 611.4C789.515 609.864 789.499 608.248 789.467 606.552C787.579 606.872 785.659 607.176 783.707 607.464C781.787 607.752 780.123 608.008 778.715 608.232C778.011 610.056 777.403 611.704 776.891 613.176C776.379 614.616 776.027 615.72 775.835 616.488C775.355 618.088 774.923 619.288 774.539 620.088C774.155 620.856 773.787 621.368 773.435 621.624C773.115 621.88 772.763 622.008 772.379 622.008ZM780.347 603.96C782.011 603.576 783.595 603.224 785.099 602.904C786.635 602.584 788.043 602.312 789.323 602.088C789.227 599.208 789.051 596.456 788.795 593.832C788.571 591.176 788.235 589.08 787.787 587.544C787.179 588.6 786.459 590.008 785.627 591.768C784.795 593.528 783.915 595.48 782.987 597.624C782.091 599.736 781.211 601.848 780.347 603.96Z" fill="#FF5F5F"/>
<path d="M658.696 548.072C657.96 548.072 657.416 547.816 657.064 547.304C655.56 547.56 654.104 547.768 652.696 547.928C651.288 548.088 650.04 548.168 648.952 548.168C648.248 548.168 647.752 548.024 647.464 547.736C647.176 547.448 647.032 547 647.032 546.392C647.032 545.72 647.816 545.016 649.384 544.28C650.952 543.512 653.48 542.92 656.968 542.504C657.192 541 657.544 539.128 658.024 536.888C658.504 534.616 659.032 532.2 659.608 529.64C660.216 527.048 660.808 524.536 661.384 522.104C660.264 523.32 659.096 524.472 657.88 525.56C656.664 526.616 655.512 527.48 654.424 528.152C653.336 528.792 652.392 529.112 651.592 529.112C650.824 529.112 650.44 528.632 650.44 527.672C650.44 527.288 650.792 526.744 651.496 526.04C652.232 525.336 653.16 524.456 654.28 523.4C655.432 522.344 656.664 521.112 657.976 519.704C659.288 518.296 660.568 516.712 661.816 514.952C663.064 513.192 664.12 511.24 664.984 509.096C665.272 508.424 665.576 508.008 665.896 507.848C666.216 507.688 666.488 507.608 666.712 507.608C667.192 507.608 667.624 507.832 668.008 508.28C668.392 508.696 668.584 509.56 668.584 510.872C668.584 511.096 668.424 511.928 668.104 513.368C667.784 514.776 667.352 516.6 666.808 518.84C666.296 521.08 665.704 523.544 665.032 526.232C664.392 528.92 663.752 531.64 663.112 534.392C662.472 537.144 661.88 539.736 661.336 542.168C662.904 542.072 664.552 542.024 666.28 542.024C667.56 542.024 668.456 542.088 668.968 542.216C669.512 542.312 669.832 542.456 669.928 542.648C670.056 542.808 670.12 543 670.12 543.224C670.12 543.544 669.656 543.912 668.728 544.328C667.8 544.712 666.584 545.112 665.08 545.528C663.576 545.944 661.944 546.344 660.184 546.728C659.8 547.624 659.304 548.072 658.696 548.072Z" fill="#FF5F5F"/>
<path d="M975.394 409.272C975.394 410.552 974.93 411.864 974.002 413.208C973.106 414.552 971.922 415.88 970.45 417.192C968.978 418.504 967.378 419.736 965.65 420.888C963.954 422.04 962.274 423.048 960.61 423.912C958.946 424.808 957.474 425.496 956.194 425.976C954.914 426.488 954.002 426.744 953.458 426.744C952.53 426.744 951.826 426.536 951.346 426.12C950.898 425.736 950.674 425.384 950.674 425.064C950.674 424.712 950.754 424.36 950.914 424.008C951.106 423.688 951.538 423.384 952.21 423.096C954.066 422.264 955.938 421.336 957.826 420.312C959.714 419.256 961.49 418.184 963.154 417.096C964.85 416.008 966.354 414.92 967.666 413.832C968.978 412.744 970.018 411.736 970.786 410.808C971.554 409.848 971.938 409.016 971.938 408.312C971.938 407.256 971.394 406.472 970.306 405.96C969.25 405.416 967.49 405.144 965.026 405.144C963.586 405.144 962.386 405.208 961.426 405.336C960.466 405.464 959.634 405.592 958.93 405.72C958.258 405.816 957.634 405.864 957.058 405.864C956.034 405.864 955.522 405.336 955.522 404.28C955.522 403.8 955.682 403.304 956.002 402.792C956.322 402.28 956.834 401.912 957.538 401.688C961.058 400.568 963.858 399.224 965.938 397.656C968.018 396.056 969.058 394.28 969.058 392.328C969.058 391.144 968.034 390.552 965.986 390.552C965.026 390.552 963.938 390.648 962.722 390.84C961.506 391.032 960.322 391.272 959.17 391.56C958.05 391.816 957.09 392.04 956.29 392.232C955.49 392.424 954.994 392.52 954.802 392.52C954.482 392.52 954.242 392.424 954.082 392.232C953.922 392.008 953.842 391.784 953.842 391.56C953.842 391.272 954.082 390.84 954.562 390.264C955.042 389.688 955.73 389.096 956.626 388.488C957.522 387.848 958.594 387.32 959.842 386.904C961.122 386.456 962.546 386.232 964.114 386.232C965.714 386.232 967.122 386.552 968.338 387.192C969.554 387.8 970.514 388.648 971.218 389.736C971.922 390.824 972.274 392.072 972.274 393.48C972.274 394.888 971.826 396.28 970.93 397.656C970.034 399.032 968.946 400.184 967.666 401.112C969.202 401.368 970.546 401.896 971.698 402.696C972.882 403.464 973.794 404.424 974.434 405.576C975.074 406.696 975.394 407.928 975.394 409.272Z" fill="#FF5F5F"/>
<path d="M790.537 180.728C787.241 180.728 784.873 180.104 783.433 178.856C782.025 177.576 781.321 175.848 781.321 173.672C781.321 172.232 781.785 170.76 782.713 169.256C783.641 167.72 784.873 166.184 786.409 164.648C787.977 163.08 789.689 161.512 791.545 159.944C789.561 159.176 788.153 158.36 787.321 157.496C786.489 156.632 786.073 155.608 786.073 154.424C786.073 153.624 786.473 152.664 787.273 151.544C788.073 150.424 789.113 149.272 790.393 148.088C791.673 146.904 793.065 145.8 794.569 144.776C796.105 143.752 797.609 142.92 799.081 142.28C800.553 141.64 801.849 141.32 802.969 141.32C803.801 141.32 804.393 141.544 804.745 141.992C805.129 142.44 805.321 143.048 805.321 143.816C805.321 144.328 805.129 144.76 804.745 145.112C804.393 145.464 803.609 145.64 802.393 145.64C802.169 145.64 801.929 145.64 801.673 145.64C801.449 145.608 801.193 145.576 800.905 145.544C799.209 146.472 797.625 147.464 796.153 148.52C794.681 149.576 793.433 150.664 792.409 151.784C791.417 152.904 790.745 153.992 790.393 155.048C791.097 155.336 791.849 155.64 792.649 155.96C793.481 156.248 794.361 156.552 795.289 156.872C795.993 156.296 796.697 155.736 797.401 155.192C798.105 154.616 798.793 154.04 799.465 153.464C801.833 151.512 804.009 149.72 805.993 148.088C808.009 146.456 809.673 145.144 810.985 144.152C812.329 143.16 813.145 142.664 813.433 142.664C813.657 142.664 813.865 142.76 814.057 142.952C814.249 143.112 814.345 143.416 814.345 143.864C814.345 144.088 813.993 144.584 813.289 145.352C812.585 146.088 811.625 147.032 810.409 148.184C809.193 149.304 807.801 150.568 806.233 151.976C804.697 153.384 803.081 154.856 801.385 156.392C801.065 156.68 800.729 156.984 800.377 157.304C800.025 157.592 799.689 157.88 799.369 158.168C801.897 159.128 803.849 160.392 805.225 161.96C806.633 163.528 807.337 165.528 807.337 167.96C807.337 170.2 806.681 172.296 805.369 174.248C804.089 176.2 802.201 177.768 799.705 178.952C797.209 180.136 794.153 180.728 790.537 180.728ZM795.817 161.288C794.057 162.824 792.425 164.296 790.921 165.704C789.449 167.08 788.265 168.376 787.369 169.592C786.473 170.808 786.025 171.896 786.025 172.856C786.025 174.072 786.409 175.048 787.177 175.784C787.977 176.488 789.417 176.84 791.497 176.84C792.969 176.84 794.393 176.6 795.769 176.12C797.177 175.608 798.441 174.92 799.561 174.056C800.681 173.16 801.561 172.168 802.201 171.08C802.873 169.96 803.209 168.808 803.209 167.624C803.209 166.12 802.537 164.856 801.193 163.832C799.849 162.776 798.057 161.928 795.817 161.288Z" fill="#FF5F5F"/>
<path d="M351.659 626.872C350.667 626.872 349.947 626.616 349.499 626.104C349.051 625.624 348.827 625.096 348.827 624.52C348.827 623.88 348.939 623.368 349.163 622.984C349.419 622.6 349.899 622.312 350.603 622.12C351.339 621.928 352.411 621.816 353.819 621.784C355.579 620.888 357.355 619.784 359.147 618.472C360.971 617.128 362.715 615.64 364.379 614.008C366.043 612.376 367.531 610.664 368.843 608.872C370.155 607.08 371.195 605.272 371.963 603.448C372.731 601.624 373.115 599.848 373.115 598.12C373.115 596.488 372.603 595.224 371.579 594.328C370.587 593.4 369.115 592.936 367.163 592.936C365.307 592.936 363.659 593.176 362.219 593.656C360.811 594.104 359.659 594.552 358.763 595C357.899 595.448 357.291 595.672 356.939 595.672C356.075 595.672 355.643 595.096 355.643 593.944C355.643 593.528 355.947 592.984 356.555 592.312C357.195 591.64 358.059 590.968 359.147 590.296C360.235 589.592 361.499 589.016 362.939 588.568C364.379 588.088 365.915 587.848 367.547 587.848C370.299 587.848 372.539 588.728 374.267 590.488C375.995 592.216 376.859 594.84 376.859 598.36C376.859 600.888 376.331 603.288 375.275 605.56C374.251 607.832 372.891 609.976 371.195 611.992C369.499 613.976 367.643 615.832 365.627 617.56C363.611 619.256 361.627 620.776 359.675 622.12C362.203 622.088 364.283 622.008 365.915 621.88C367.547 621.72 368.875 621.56 369.899 621.4C370.923 621.208 371.787 621.064 372.491 620.968C373.195 620.84 373.899 620.776 374.603 620.776C375.403 620.776 375.979 621 376.331 621.448C376.715 621.864 376.907 622.376 376.907 622.984C376.907 623.496 376.779 623.96 376.523 624.376C376.299 624.76 375.819 625.08 375.083 625.336C374.347 625.624 373.227 625.832 371.723 625.96C370.219 626.12 368.203 626.2 365.675 626.2C363.947 626.2 362.155 626.184 360.299 626.152C358.475 626.12 356.699 626.072 354.971 626.008C353.371 626.584 352.267 626.872 351.659 626.872Z" fill="#FF5F5F"/>
<path d="M248.585 333.552C247.721 333.552 247.017 333.312 246.473 332.832C245.961 332.352 245.705 331.664 245.705 330.768C245.705 330 245.865 329.456 246.185 329.136C246.505 328.784 247.049 328.608 247.817 328.608C248.137 328.608 248.441 328.64 248.729 328.704C249.049 328.736 249.465 328.8 249.977 328.896C250.489 328.992 251.193 329.088 252.089 329.184C255.801 327.264 258.777 325.328 261.017 323.376C263.257 321.392 264.377 319.2 264.377 316.8C264.377 316.064 264.089 315.536 263.513 315.216C262.969 314.896 262.233 314.688 261.305 314.592C260.409 314.464 259.449 314.368 258.425 314.304C257.401 314.272 256.393 314.208 255.401 314.112C254.409 313.984 253.497 313.776 252.665 313.488C251.833 313.2 251.161 312.736 250.649 312.096C250.169 311.456 249.929 310.592 249.929 309.504C249.929 307.328 250.281 305.168 250.985 303.024C251.689 300.848 252.505 298.944 253.433 297.312C252.825 297.184 252.409 296.992 252.185 296.736C251.993 296.448 251.897 296.096 251.897 295.68C251.897 295.264 252.313 294.864 253.145 294.48C253.977 294.096 255.049 293.744 256.361 293.424C256.777 293.104 257.113 292.944 257.369 292.944C257.561 292.944 257.737 292.992 257.897 293.088C259.401 292.768 261.033 292.496 262.793 292.272C264.553 292.016 266.297 291.824 268.025 291.696C269.753 291.568 271.337 291.504 272.777 291.504C274.569 291.504 275.865 291.76 276.665 292.272C277.465 292.752 277.865 293.296 277.865 293.904C277.865 294.256 277.705 294.576 277.385 294.864C277.097 295.12 276.601 295.264 275.897 295.296C275.609 295.296 275.001 295.36 274.073 295.488C273.177 295.584 272.073 295.712 270.761 295.872C269.449 296.032 268.041 296.208 266.537 296.4C265.033 296.592 263.561 296.768 262.121 296.928C260.681 297.088 259.369 297.216 258.185 297.312C257.833 298.08 257.417 298.976 256.937 300C256.489 301.024 256.041 302.08 255.593 303.168C255.177 304.224 254.825 305.248 254.537 306.24C254.249 307.2 254.105 308.032 254.105 308.736C254.105 309.504 254.585 309.984 255.545 310.176C256.505 310.368 257.657 310.512 259.001 310.608C260.057 310.672 261.145 310.784 262.265 310.944C263.385 311.104 264.425 311.392 265.385 311.808C266.377 312.224 267.161 312.864 267.737 313.728C268.345 314.592 268.649 315.776 268.649 317.28C268.649 318.784 268.233 320.304 267.401 321.84C266.569 323.376 265.449 324.848 264.041 326.256C262.633 327.664 261.049 328.912 259.289 330C257.529 331.088 255.721 331.952 253.865 332.592C252.041 333.232 250.281 333.552 248.585 333.552Z" fill="#FF5F5F"/>
<path d="M95.9109 668.072C95.3989 668.072 94.9349 667.832 94.5189 667.352C94.1029 666.904 93.8949 666.184 93.8949 665.192C93.8949 664.68 94.0389 663.64 94.3269 662.072C94.6469 660.504 95.0309 658.648 95.4789 656.504C93.8149 656.664 92.1189 656.824 90.3909 656.984C88.6949 657.112 86.9989 657.208 85.3029 657.272C84.4389 658.072 83.7509 658.584 83.2389 658.808C82.7589 659 82.2149 659.096 81.6069 659.096C80.4869 659.096 79.7189 658.92 79.3029 658.568C78.8869 658.184 78.6789 657.688 78.6789 657.08C78.6789 656.312 79.0149 655.656 79.6869 655.112C80.3589 654.536 81.4309 654.152 82.9029 653.96C84.5029 651.912 86.1829 649.928 87.9429 648.008C89.7349 646.056 91.4949 644.104 93.2229 642.152C94.9829 640.168 96.5989 638.104 98.0709 635.96C99.5429 633.816 100.791 631.528 101.815 629.096C102.103 628.424 102.423 628.008 102.775 627.848C103.159 627.656 103.591 627.576 104.071 627.608C104.615 627.64 105.047 627.896 105.367 628.376C105.687 628.856 105.847 629.608 105.847 630.632C105.847 630.952 105.703 631.768 105.415 633.08C105.127 634.392 104.743 636.072 104.263 638.12C103.783 640.136 103.255 642.376 102.679 644.84C102.103 647.272 101.511 649.784 100.903 652.376C103.431 652.12 105.655 651.896 107.575 651.704C109.495 651.512 110.695 651.416 111.175 651.416C111.975 651.416 112.503 651.512 112.759 651.704C113.015 651.864 113.143 652.168 113.143 652.616C113.143 652.84 112.599 653.16 111.511 653.576C110.423 653.96 108.903 654.376 106.951 654.824C104.999 655.24 102.711 655.624 100.087 655.976C99.6709 657.704 99.2709 659.384 98.8869 661.016C98.5029 662.616 98.1669 664.12 97.8789 665.528C97.6869 666.456 97.4309 667.112 97.1109 667.496C96.8229 667.88 96.4229 668.072 95.9109 668.072ZM99.2229 640.136C98.0069 641.736 96.7429 643.368 95.4309 645.032C94.1509 646.696 92.8549 648.296 91.5429 649.832C90.2629 651.368 89.0149 652.728 87.7989 653.912C89.1429 653.752 90.5189 653.592 91.9269 653.432C93.3349 653.24 94.7749 653.064 96.2469 652.904L99.2229 640.136Z" fill="#FF5F5F"/>
<path d="M990.548 638.624C988.596 638.624 986.788 638.128 985.124 637.136C983.492 636.112 982.18 634.624 981.188 632.672C980.196 630.72 979.7 628.336 979.7 625.52C979.7 623.056 980.1 620.688 980.9 618.416C981.732 616.144 982.644 614.176 983.636 612.512C983.252 612.288 983.06 611.76 983.06 610.928C983.06 609.808 983.38 608.704 984.02 607.616C984.692 606.496 985.572 605.488 986.66 604.592C987.78 603.696 989.012 602.976 990.356 602.432C991.732 601.888 993.124 601.616 994.532 601.616C996.772 601.616 998.724 602.192 1000.39 603.344C1002.08 604.464 1003.4 606.016 1004.32 608C1005.28 609.984 1005.76 612.256 1005.76 614.816C1005.76 618.24 1005.36 621.408 1004.56 624.32C1003.76 627.2 1002.66 629.712 1001.25 631.856C999.876 634 998.26 635.664 996.404 636.848C994.58 638.032 992.628 638.624 990.548 638.624ZM989.3 607.904C989.62 608.064 989.78 608.32 989.78 608.672C989.78 608.832 989.732 609.024 989.636 609.248C989.572 609.44 989.364 609.744 989.012 610.16C988.532 610.672 988.02 611.52 987.476 612.704C986.932 613.888 986.404 615.248 985.892 616.784C985.38 618.32 984.964 619.92 984.644 621.584C984.324 623.216 984.164 624.768 984.164 626.24C984.164 628.864 984.692 630.864 985.748 632.24C986.804 633.584 988.244 634.256 990.068 634.256C991.476 634.256 992.852 633.776 994.196 632.816C995.54 631.824 996.756 630.464 997.844 628.736C998.932 626.976 999.796 624.944 1000.44 622.64C1001.11 620.336 1001.44 617.84 1001.44 615.152C1001.44 613.296 1001.17 611.664 1000.63 610.256C1000.08 608.848 999.332 607.744 998.372 606.944C997.444 606.144 996.372 605.744 995.156 605.744C993.876 605.744 992.756 605.952 991.796 606.368C990.836 606.784 990.004 607.296 989.3 607.904Z" fill="#FF5F5F"/>
<path d="M929.509 591.096C928.709 591.096 927.861 590.856 926.965 590.376C926.069 589.896 925.237 589.112 924.469 588.024C923.733 586.936 923.125 585.496 922.645 583.704C922.165 581.912 921.925 579.704 921.925 577.08C921.925 575 922.181 572.888 922.693 570.744C923.237 568.568 924.069 566.52 925.189 564.6C926.341 562.648 927.813 560.968 929.605 559.56C931.429 558.12 933.637 557.128 936.229 556.584C937.349 556.328 938.613 556.088 940.021 555.864C941.461 555.608 942.917 555.384 944.389 555.192C945.893 554.968 947.301 554.792 948.613 554.664C949.957 554.536 951.093 554.472 952.021 554.472C953.525 554.472 954.597 554.744 955.237 555.288C955.909 555.8 956.245 556.296 956.245 556.776C956.245 557.096 956.117 557.4 955.861 557.688C955.605 557.944 955.109 558.104 954.373 558.168C954.085 558.2 953.477 558.28 952.549 558.408C951.621 558.504 950.501 558.648 949.189 558.84C947.877 559.032 946.501 559.24 945.061 559.464C943.653 559.656 942.277 559.864 940.933 560.088C939.621 560.28 938.485 560.456 937.525 560.616C934.869 561.128 932.773 562.008 931.237 563.256C929.701 564.504 928.581 565.976 927.877 567.672C927.173 569.368 926.725 571.112 926.533 572.904C927.813 572.616 929.205 572.312 930.709 571.992C932.245 571.672 933.717 571.384 935.125 571.128C936.533 570.84 937.749 570.616 938.773 570.456C939.829 570.296 940.533 570.216 940.885 570.216C941.557 570.216 941.973 570.36 942.133 570.648C942.325 570.936 942.421 571.304 942.421 571.752C942.421 572.616 941.013 573.576 938.197 574.632C935.413 575.688 931.461 576.584 926.341 577.32C926.341 578.408 926.357 579.528 926.389 580.68C926.453 581.8 926.549 582.84 926.677 583.8C926.805 584.76 926.965 585.528 927.157 586.104C927.349 586.68 927.605 586.968 927.925 586.968C928.661 586.968 929.621 586.744 930.805 586.296C932.021 585.848 933.285 585.304 934.597 584.664C935.909 584.024 937.109 583.4 938.197 582.792C939.317 582.184 940.133 581.704 940.645 581.352C941.253 580.968 941.909 580.552 942.613 580.104C943.317 579.656 943.845 579.432 944.197 579.432C944.645 579.432 944.869 579.688 944.869 580.2C944.869 580.488 944.613 581.048 944.101 581.88C943.621 582.712 942.917 583.656 941.989 584.712C941.061 585.736 939.957 586.744 938.677 587.736C937.429 588.696 936.021 589.496 934.453 590.136C932.917 590.776 931.269 591.096 929.509 591.096Z" fill="#FF5F5F"/>
<path d="M665.448 604.352C664.072 604.352 663.144 604.16 662.664 603.776C662.216 603.392 661.992 603.024 661.992 602.672C661.992 602.16 662.248 601.696 662.76 601.28C663.304 600.864 663.96 600.576 664.728 600.416C665.656 600.224 666.776 600.032 668.088 599.84C669.432 599.616 670.824 599.424 672.264 599.264C673.704 599.072 675.112 598.928 676.488 598.832C677.864 598.736 679.064 598.688 680.088 598.688C681.432 598.688 682.456 598.944 683.16 599.456C683.896 599.936 684.264 600.384 684.264 600.8C684.264 600.832 684.264 600.896 684.264 600.992C684.264 601.248 684.216 601.472 684.12 601.664C684.024 601.856 683.704 602.048 683.16 602.24C682.648 602.4 681.768 602.576 680.52 602.768C679.304 602.928 677.576 603.104 675.336 603.296C674.888 603.328 674.392 603.376 673.848 603.44C673.72 604.304 673.528 605.44 673.272 606.848C673.016 608.256 672.728 609.824 672.408 611.552C672.088 613.28 671.752 615.056 671.4 616.88C671.048 618.672 670.696 620.384 670.344 622.016C670.024 623.648 669.736 625.088 669.48 626.336C669.256 627.584 669.08 628.528 668.952 629.168C670.616 628.944 672.088 628.8 673.368 628.736C674.68 628.64 675.56 628.592 676.008 628.592C677.192 628.592 677.784 629.04 677.784 629.936C677.784 630.192 677.24 630.56 676.152 631.04C675.064 631.52 673.672 632.016 671.976 632.528C670.28 633.04 668.52 633.52 666.696 633.968C665.192 634.32 663.704 634.592 662.232 634.784C660.792 634.976 659.752 635.072 659.112 635.072C658.408 635.072 657.912 634.944 657.624 634.688C657.336 634.464 657.192 634.128 657.192 633.68C657.192 633.232 657.32 632.784 657.576 632.336C657.864 631.888 658.248 631.568 658.728 631.376C659.592 631.056 660.552 630.768 661.608 630.512C662.664 630.224 663.736 629.968 664.824 629.744C664.824 629.584 664.824 629.392 664.824 629.168C664.824 628.72 664.904 627.872 665.064 626.624C665.256 625.376 665.496 623.888 665.784 622.16C666.072 620.4 666.392 618.576 666.744 616.688C667.096 614.768 667.432 612.944 667.752 611.216C668.072 609.456 668.36 607.936 668.616 606.656C668.872 605.344 669.064 604.464 669.192 604.016C668.392 604.112 667.672 604.192 667.032 604.256C666.392 604.32 665.864 604.352 665.448 604.352Z" fill="#FF5F5F"/>
<path d="M586.994 664.896C587.346 664.896 587.682 665.04 588.002 665.328C588.322 665.616 588.482 666.08 588.482 666.72C588.482 667.232 588.098 667.84 587.33 668.544C586.562 669.216 585.57 669.872 584.354 670.512C583.17 671.152 581.89 671.68 580.514 672.096C579.138 672.544 577.842 672.768 576.626 672.768C574.898 672.768 573.266 672.32 571.73 671.424C570.226 670.528 568.994 669.232 568.034 667.536C567.074 665.808 566.594 663.712 566.594 661.248C566.594 659.072 566.994 656.896 567.794 654.72C568.594 652.544 569.65 650.448 570.962 648.432C572.306 646.416 573.778 644.544 575.378 642.816C577.01 641.088 578.642 639.584 580.274 638.304C581.906 637.024 583.426 636.032 584.834 635.328C586.274 634.592 587.458 634.224 588.386 634.224C589.026 634.224 589.538 634.464 589.922 634.944C590.338 635.392 590.546 635.888 590.546 636.432C590.546 636.752 590.45 637.072 590.258 637.392C590.098 637.712 589.81 637.968 589.394 638.16C587.314 639.184 585.202 640.496 583.058 642.096C580.914 643.696 578.93 645.52 577.106 647.568C575.282 649.584 573.81 651.776 572.69 654.144C571.57 656.48 571.01 658.944 571.01 661.536C571.01 663.776 571.538 665.488 572.594 666.672C573.65 667.824 575.09 668.4 576.914 668.4C577.874 668.4 578.866 668.224 579.89 667.872C580.946 667.52 581.938 667.12 582.866 666.672C583.826 666.192 584.658 665.776 585.362 665.424C586.098 665.072 586.642 664.896 586.994 664.896Z" fill="#FF5F5F"/>
<path d="M892.379 424.008C891.867 424.008 891.451 423.832 891.131 423.48C890.811 423.128 890.651 422.504 890.651 421.608C890.651 420.936 890.859 419.848 891.275 418.344C891.723 416.808 892.315 415.016 893.051 412.968C893.819 410.92 894.667 408.76 895.595 406.488C896.555 404.184 897.547 401.896 898.571 399.624C899.595 397.352 900.603 395.256 901.595 393.336C902.587 391.384 903.499 389.736 904.331 388.392C905.163 387.048 905.867 386.168 906.443 385.752C907.115 385.272 907.739 385.032 908.315 385.032C908.635 385.032 908.955 385.064 909.275 385.128C909.595 385.192 909.867 385.304 910.091 385.464C910.667 385.816 911.163 386.6 911.579 387.816C912.027 389 912.411 390.456 912.731 392.184C913.051 393.88 913.307 395.704 913.499 397.656C913.723 399.576 913.915 401.48 914.075 403.368C915.035 403.24 915.835 403.144 916.475 403.08C917.115 403.016 917.579 402.984 917.867 402.984C918.955 402.984 919.643 403.128 919.931 403.416C920.219 403.704 920.379 404.04 920.411 404.424C920.475 405 920.315 405.512 919.931 405.96C919.547 406.408 919.003 406.744 918.299 406.968C918.075 407.032 917.595 407.144 916.859 407.304C916.155 407.432 915.307 407.592 914.315 407.784C914.347 408.744 914.363 409.64 914.363 410.472C914.395 411.272 914.411 411.96 914.411 412.536C914.411 415.448 914.235 417.64 913.883 419.112C913.531 420.552 913.099 421.528 912.587 422.04C912.075 422.552 911.579 422.808 911.099 422.808C910.523 422.808 910.123 422.648 909.899 422.328C909.675 421.976 909.563 421.48 909.563 420.84V417.432C909.563 416.248 909.547 414.904 909.515 413.4C909.515 411.864 909.499 410.248 909.467 408.552C907.579 408.872 905.659 409.176 903.707 409.464C901.787 409.752 900.123 410.008 898.715 410.232C898.011 412.056 897.403 413.704 896.891 415.176C896.379 416.616 896.027 417.72 895.835 418.488C895.355 420.088 894.923 421.288 894.539 422.088C894.155 422.856 893.787 423.368 893.435 423.624C893.115 423.88 892.763 424.008 892.379 424.008ZM900.347 405.96C902.011 405.576 903.595 405.224 905.099 404.904C906.635 404.584 908.043 404.312 909.323 404.088C909.227 401.208 909.051 398.456 908.795 395.832C908.571 393.176 908.235 391.08 907.787 389.544C907.179 390.6 906.459 392.008 905.627 393.768C904.795 395.528 903.915 397.48 902.987 399.624C902.091 401.736 901.211 403.848 900.347 405.96Z" fill="#FF5F5F"/>
<path d="M844.379 162.008C843.867 162.008 843.451 161.832 843.131 161.48C842.811 161.128 842.651 160.504 842.651 159.608C842.651 158.936 842.859 157.848 843.275 156.344C843.723 154.808 844.315 153.016 845.051 150.968C845.819 148.92 846.667 146.76 847.595 144.488C848.555 142.184 849.547 139.896 850.571 137.624C851.595 135.352 852.603 133.256 853.595 131.336C854.587 129.384 855.499 127.736 856.331 126.392C857.163 125.048 857.867 124.168 858.443 123.752C859.115 123.272 859.739 123.032 860.315 123.032C860.635 123.032 860.955 123.064 861.275 123.128C861.595 123.192 861.867 123.304 862.091 123.464C862.667 123.816 863.163 124.6 863.579 125.816C864.027 127 864.411 128.456 864.731 130.184C865.051 131.88 865.307 133.704 865.499 135.656C865.723 137.576 865.915 139.48 866.075 141.368C867.035 141.24 867.835 141.144 868.475 141.08C869.115 141.016 869.579 140.984 869.867 140.984C870.955 140.984 871.643 141.128 871.931 141.416C872.219 141.704 872.379 142.04 872.411 142.424C872.475 143 872.315 143.512 871.931 143.96C871.547 144.408 871.003 144.744 870.299 144.968C870.075 145.032 869.595 145.144 868.859 145.304C868.155 145.432 867.307 145.592 866.315 145.784C866.347 146.744 866.363 147.64 866.363 148.472C866.395 149.272 866.411 149.96 866.411 150.536C866.411 153.448 866.235 155.64 865.883 157.112C865.531 158.552 865.099 159.528 864.587 160.04C864.075 160.552 863.579 160.808 863.099 160.808C862.523 160.808 862.123 160.648 861.899 160.328C861.675 159.976 861.563 159.48 861.563 158.84V155.432C861.563 154.248 861.547 152.904 861.515 151.4C861.515 149.864 861.499 148.248 861.467 146.552C859.579 146.872 857.659 147.176 855.707 147.464C853.787 147.752 852.123 148.008 850.715 148.232C850.011 150.056 849.403 151.704 848.891 153.176C848.379 154.616 848.027 155.72 847.835 156.488C847.355 158.088 846.923 159.288 846.539 160.088C846.155 160.856 845.787 161.368 845.435 161.624C845.115 161.88 844.763 162.008 844.379 162.008ZM852.347 143.96C854.011 143.576 855.595 143.224 857.099 142.904C858.635 142.584 860.043 142.312 861.323 142.088C861.227 139.208 861.051 136.456 860.795 133.832C860.571 131.176 860.235 129.08 859.787 127.544C859.179 128.6 858.459 130.008 857.627 131.768C856.795 133.528 855.915 135.48 854.987 137.624C854.091 139.736 853.211 141.848 852.347 143.96Z" fill="#FF5F5F"/>
<path d="M891.971 306.656C891.971 308.736 891.843 310.944 891.587 313.28C891.331 315.616 890.915 317.968 890.339 320.336C889.763 322.672 889.011 324.896 888.083 327.008C887.187 329.088 886.083 330.96 884.771 332.624C883.459 334.256 881.923 335.552 880.163 336.512C878.435 337.472 876.451 337.952 874.211 337.952C871.139 337.952 868.707 336.976 866.915 335.024C865.123 333.072 864.227 330.144 864.227 326.24C864.227 324.032 864.451 321.872 864.899 319.76C865.347 317.616 865.875 315.664 866.483 313.904C867.091 312.144 867.619 310.688 868.067 309.536C867.939 309.28 867.875 308.976 867.875 308.624C867.875 307.664 868.099 306.768 868.547 305.936C868.995 305.072 869.539 304.368 870.179 303.824C870.851 303.28 871.491 303.008 872.099 303.008C872.579 303.008 872.963 303.184 873.251 303.536C873.571 303.888 873.731 304.432 873.731 305.168C873.731 305.968 873.459 307.056 872.915 308.432C872.403 309.808 871.811 311.44 871.139 313.328C870.467 315.184 869.859 317.28 869.315 319.616C868.803 321.92 868.547 324.4 868.547 327.056C868.547 329.104 869.091 330.672 870.179 331.76C871.267 332.816 872.883 333.344 875.027 333.344C876.787 333.344 878.323 332.784 879.635 331.664C880.947 330.544 882.051 329.024 882.947 327.104C883.875 325.152 884.627 322.944 885.203 320.48C885.811 318.016 886.275 315.44 886.595 312.752C886.947 310.064 887.203 307.424 887.363 304.832C887.427 304 887.667 303.392 888.083 303.008C888.531 302.592 889.075 302.384 889.715 302.384C890.195 302.384 890.595 302.48 890.915 302.672C891.267 302.832 891.523 303.216 891.683 303.824C891.875 304.432 891.971 305.376 891.971 306.656Z" fill="#FF5F5F"/>
<path d="M921.379 247.008C920.867 247.008 920.451 246.832 920.131 246.48C919.811 246.128 919.651 245.504 919.651 244.608C919.651 243.936 919.859 242.848 920.275 241.344C920.723 239.808 921.315 238.016 922.051 235.968C922.819 233.92 923.667 231.76 924.595 229.488C925.555 227.184 926.547 224.896 927.571 222.624C928.595 220.352 929.603 218.256 930.595 216.336C931.587 214.384 932.499 212.736 933.331 211.392C934.163 210.048 934.867 209.168 935.443 208.752C936.115 208.272 936.739 208.032 937.315 208.032C937.635 208.032 937.955 208.064 938.275 208.128C938.595 208.192 938.867 208.304 939.091 208.464C939.667 208.816 940.163 209.6 940.579 210.816C941.027 212 941.411 213.456 941.731 215.184C942.051 216.88 942.307 218.704 942.499 220.656C942.723 222.576 942.915 224.48 943.075 226.368C944.035 226.24 944.835 226.144 945.475 226.08C946.115 226.016 946.579 225.984 946.867 225.984C947.955 225.984 948.643 226.128 948.931 226.416C949.219 226.704 949.379 227.04 949.411 227.424C949.475 228 949.315 228.512 948.931 228.96C948.547 229.408 948.003 229.744 947.299 229.968C947.075 230.032 946.595 230.144 945.859 230.304C945.155 230.432 944.307 230.592 943.315 230.784C943.347 231.744 943.363 232.64 943.363 233.472C943.395 234.272 943.411 234.96 943.411 235.536C943.411 238.448 943.235 240.64 942.883 242.112C942.531 243.552 942.099 244.528 941.587 245.04C941.075 245.552 940.579 245.808 940.099 245.808C939.523 245.808 939.123 245.648 938.899 245.328C938.675 244.976 938.563 244.48 938.563 243.84V240.432C938.563 239.248 938.547 237.904 938.515 236.4C938.515 234.864 938.499 233.248 938.467 231.552C936.579 231.872 934.659 232.176 932.707 232.464C930.787 232.752 929.123 233.008 927.715 233.232C927.011 235.056 926.403 236.704 925.891 238.176C925.379 239.616 925.027 240.72 924.835 241.488C924.355 243.088 923.923 244.288 923.539 245.088C923.155 245.856 922.787 246.368 922.435 246.624C922.115 246.88 921.763 247.008 921.379 247.008ZM929.347 228.96C931.011 228.576 932.595 228.224 934.099 227.904C935.635 227.584 937.043 227.312 938.323 227.088C938.227 224.208 938.051 221.456 937.795 218.832C937.571 216.176 937.235 214.08 936.787 212.544C936.179 213.6 935.459 215.008 934.627 216.768C933.795 218.528 932.915 220.48 931.987 222.624C931.091 224.736 930.211 226.848 929.347 228.96Z" fill="#FF5F5F"/>
<path d="M979.379 145.008C978.867 145.008 978.451 144.832 978.131 144.48C977.811 144.128 977.651 143.504 977.651 142.608C977.651 141.936 977.859 140.848 978.275 139.344C978.723 137.808 979.315 136.016 980.051 133.968C980.819 131.92 981.667 129.76 982.595 127.488C983.555 125.184 984.547 122.896 985.571 120.624C986.595 118.352 987.603 116.256 988.595 114.336C989.587 112.384 990.499 110.736 991.331 109.392C992.163 108.048 992.867 107.168 993.443 106.752C994.115 106.272 994.739 106.032 995.315 106.032C995.635 106.032 995.955 106.064 996.275 106.128C996.595 106.192 996.867 106.304 997.091 106.464C997.667 106.816 998.163 107.6 998.579 108.816C999.027 110 999.411 111.456 999.731 113.184C1000.05 114.88 1000.31 116.704 1000.5 118.656C1000.72 120.576 1000.92 122.48 1001.08 124.368C1002.04 124.24 1002.84 124.144 1003.48 124.08C1004.12 124.016 1004.58 123.984 1004.87 123.984C1005.96 123.984 1006.64 124.128 1006.93 124.416C1007.22 124.704 1007.38 125.04 1007.41 125.424C1007.48 126 1007.32 126.512 1006.93 126.96C1006.55 127.408 1006 127.744 1005.3 127.968C1005.08 128.032 1004.6 128.144 1003.86 128.304C1003.16 128.432 1002.31 128.592 1001.32 128.784C1001.35 129.744 1001.36 130.64 1001.36 131.472C1001.4 132.272 1001.41 132.96 1001.41 133.536C1001.41 136.448 1001.24 138.64 1000.88 140.112C1000.53 141.552 1000.1 142.528 999.587 143.04C999.075 143.552 998.579 143.808 998.099 143.808C997.523 143.808 997.123 143.648 996.899 143.328C996.675 142.976 996.563 142.48 996.563 141.84V138.432C996.563 137.248 996.547 135.904 996.515 134.4C996.515 132.864 996.499 131.248 996.467 129.552C994.579 129.872 992.659 130.176 990.707 130.464C988.787 130.752 987.123 131.008 985.715 131.232C985.011 133.056 984.403 134.704 983.891 136.176C983.379 137.616 983.027 138.72 982.835 139.488C982.355 141.088 981.923 142.288 981.539 143.088C981.155 143.856 980.787 144.368 980.435 144.624C980.115 144.88 979.763 145.008 979.379 145.008ZM987.347 126.96C989.011 126.576 990.595 126.224 992.099 125.904C993.635 125.584 995.043 125.312 996.323 125.088C996.227 122.208 996.051 119.456 995.795 116.832C995.571 114.176 995.235 112.08 994.787 110.544C994.179 111.6 993.459 113.008 992.627 114.768C991.795 116.528 990.915 118.48 989.987 120.624C989.091 122.736 988.211 124.848 987.347 126.96Z" fill="#FF5F5F"/>
<path d="M501.379 563.008C500.867 563.008 500.451 562.832 500.131 562.48C499.811 562.128 499.651 561.504 499.651 560.608C499.651 559.936 499.859 558.848 500.275 557.344C500.723 555.808 501.315 554.016 502.051 551.968C502.819 549.92 503.667 547.76 504.595 545.488C505.555 543.184 506.547 540.896 507.571 538.624C508.595 536.352 509.603 534.256 510.595 532.336C511.587 530.384 512.499 528.736 513.331 527.392C514.163 526.048 514.867 525.168 515.443 524.752C516.115 524.272 516.739 524.032 517.315 524.032C517.635 524.032 517.955 524.064 518.275 524.128C518.595 524.192 518.867 524.304 519.091 524.464C519.667 524.816 520.163 525.6 520.579 526.816C521.027 528 521.411 529.456 521.731 531.184C522.051 532.88 522.307 534.704 522.499 536.656C522.723 538.576 522.915 540.48 523.075 542.368C524.035 542.24 524.835 542.144 525.475 542.08C526.115 542.016 526.579 541.984 526.867 541.984C527.955 541.984 528.643 542.128 528.931 542.416C529.219 542.704 529.379 543.04 529.411 543.424C529.475 544 529.315 544.512 528.931 544.96C528.547 545.408 528.003 545.744 527.299 545.968C527.075 546.032 526.595 546.144 525.859 546.304C525.155 546.432 524.307 546.592 523.315 546.784C523.347 547.744 523.363 548.64 523.363 549.472C523.395 550.272 523.411 550.96 523.411 551.536C523.411 554.448 523.235 556.64 522.883 558.112C522.531 559.552 522.099 560.528 521.587 561.04C521.075 561.552 520.579 561.808 520.099 561.808C519.523 561.808 519.123 561.648 518.899 561.328C518.675 560.976 518.563 560.48 518.563 559.84V556.432C518.563 555.248 518.547 553.904 518.515 552.4C518.515 550.864 518.499 549.248 518.467 547.552C516.579 547.872 514.659 548.176 512.707 548.464C510.787 548.752 509.123 549.008 507.715 549.232C507.011 551.056 506.403 552.704 505.891 554.176C505.379 555.616 505.027 556.72 504.835 557.488C504.355 559.088 503.923 560.288 503.539 561.088C503.155 561.856 502.787 562.368 502.435 562.624C502.115 562.88 501.763 563.008 501.379 563.008ZM509.347 544.96C511.011 544.576 512.595 544.224 514.099 543.904C515.635 543.584 517.043 543.312 518.323 543.088C518.227 540.208 518.051 537.456 517.795 534.832C517.571 532.176 517.235 530.08 516.787 528.544C516.179 529.6 515.459 531.008 514.627 532.768C513.795 534.528 512.915 536.48 511.987 538.624C511.091 540.736 510.211 542.848 509.347 544.96Z" fill="#FF5F5F"/>
<path d="M409.379 644.008C408.867 644.008 408.451 643.832 408.131 643.48C407.811 643.128 407.651 642.504 407.651 641.608C407.651 640.936 407.859 639.848 408.275 638.344C408.723 636.808 409.315 635.016 410.051 632.968C410.819 630.92 411.667 628.76 412.595 626.488C413.555 624.184 414.547 621.896 415.571 619.624C416.595 617.352 417.603 615.256 418.595 613.336C419.587 611.384 420.499 609.736 421.331 608.392C422.163 607.048 422.867 606.168 423.443 605.752C424.115 605.272 424.739 605.032 425.315 605.032C425.635 605.032 425.955 605.064 426.275 605.128C426.595 605.192 426.867 605.304 427.091 605.464C427.667 605.816 428.163 606.6 428.579 607.816C429.027 609 429.411 610.456 429.731 612.184C430.051 613.88 430.307 615.704 430.499 617.656C430.723 619.576 430.915 621.48 431.075 623.368C432.035 623.24 432.835 623.144 433.475 623.08C434.115 623.016 434.579 622.984 434.867 622.984C435.955 622.984 436.643 623.128 436.931 623.416C437.219 623.704 437.379 624.04 437.411 624.424C437.475 625 437.315 625.512 436.931 625.96C436.547 626.408 436.003 626.744 435.299 626.968C435.075 627.032 434.595 627.144 433.859 627.304C433.155 627.432 432.307 627.592 431.315 627.784C431.347 628.744 431.363 629.64 431.363 630.472C431.395 631.272 431.411 631.96 431.411 632.536C431.411 635.448 431.235 637.64 430.883 639.112C430.531 640.552 430.099 641.528 429.587 642.04C429.075 642.552 428.579 642.808 428.099 642.808C427.523 642.808 427.123 642.648 426.899 642.328C426.675 641.976 426.563 641.48 426.563 640.84V637.432C426.563 636.248 426.547 634.904 426.515 633.4C426.515 631.864 426.499 630.248 426.467 628.552C424.579 628.872 422.659 629.176 420.707 629.464C418.787 629.752 417.123 630.008 415.715 630.232C415.011 632.056 414.403 633.704 413.891 635.176C413.379 636.616 413.027 637.72 412.835 638.488C412.355 640.088 411.923 641.288 411.539 642.088C411.155 642.856 410.787 643.368 410.435 643.624C410.115 643.88 409.763 644.008 409.379 644.008ZM417.347 625.96C419.011 625.576 420.595 625.224 422.099 624.904C423.635 624.584 425.043 624.312 426.323 624.088C426.227 621.208 426.051 618.456 425.795 615.832C425.571 613.176 425.235 611.08 424.787 609.544C424.179 610.6 423.459 612.008 422.627 613.768C421.795 615.528 420.915 617.48 419.987 619.624C419.091 621.736 418.211 623.848 417.347 625.96Z" fill="#FF5F5F"/>
<path d="M228.379 638.008C227.867 638.008 227.451 637.832 227.131 637.48C226.811 637.128 226.651 636.504 226.651 635.608C226.651 634.936 226.859 633.848 227.275 632.344C227.723 630.808 228.315 629.016 229.051 626.968C229.819 624.92 230.667 622.76 231.595 620.488C232.555 618.184 233.547 615.896 234.571 613.624C235.595 611.352 236.603 609.256 237.595 607.336C238.587 605.384 239.499 603.736 240.331 602.392C241.163 601.048 241.867 600.168 242.443 599.752C243.115 599.272 243.739 599.032 244.315 599.032C244.635 599.032 244.955 599.064 245.275 599.128C245.595 599.192 245.867 599.304 246.091 599.464C246.667 599.816 247.163 600.6 247.579 601.816C248.027 603 248.411 604.456 248.731 606.184C249.051 607.88 249.307 609.704 249.499 611.656C249.723 613.576 249.915 615.48 250.075 617.368C251.035 617.24 251.835 617.144 252.475 617.08C253.115 617.016 253.579 616.984 253.867 616.984C254.955 616.984 255.643 617.128 255.931 617.416C256.219 617.704 256.379 618.04 256.411 618.424C256.475 619 256.315 619.512 255.931 619.96C255.547 620.408 255.003 620.744 254.299 620.968C254.075 621.032 253.595 621.144 252.859 621.304C252.155 621.432 251.307 621.592 250.315 621.784C250.347 622.744 250.363 623.64 250.363 624.472C250.395 625.272 250.411 625.96 250.411 626.536C250.411 629.448 250.235 631.64 249.883 633.112C249.531 634.552 249.099 635.528 248.587 636.04C248.075 636.552 247.579 636.808 247.099 636.808C246.523 636.808 246.123 636.648 245.899 636.328C245.675 635.976 245.563 635.48 245.563 634.84V631.432C245.563 630.248 245.547 628.904 245.515 627.4C245.515 625.864 245.499 624.248 245.467 622.552C243.579 622.872 241.659 623.176 239.707 623.464C237.787 623.752 236.123 624.008 234.715 624.232C234.011 626.056 233.403 627.704 232.891 629.176C232.379 630.616 232.027 631.72 231.835 632.488C231.355 634.088 230.923 635.288 230.539 636.088C230.155 636.856 229.787 637.368 229.435 637.624C229.115 637.88 228.763 638.008 228.379 638.008ZM236.347 619.96C238.011 619.576 239.595 619.224 241.099 618.904C242.635 618.584 244.043 618.312 245.323 618.088C245.227 615.208 245.051 612.456 244.795 609.832C244.571 607.176 244.235 605.08 243.787 603.544C243.179 604.6 242.459 606.008 241.627 607.768C240.795 609.528 239.915 611.48 238.987 613.624C238.091 615.736 237.211 617.848 236.347 619.96Z" fill="#FF5F5F"/>
<path d="M713.123 330.264C712.579 330.264 712.115 329.96 711.731 329.352C711.347 328.776 711.155 328.104 711.155 327.336C711.155 327.016 711.219 326.728 711.347 326.472C711.507 326.216 711.747 326.024 712.067 325.896C712.419 325.736 712.771 325.592 713.123 325.464C713.507 325.304 713.891 325.144 714.275 324.984C714.179 324.728 714.099 324.424 714.035 324.072C713.971 323.72 713.939 323.304 713.939 322.824C713.939 322.472 714.003 321.8 714.131 320.808C714.291 319.784 714.499 318.568 714.755 317.16C715.011 315.752 715.283 314.264 715.571 312.696C715.891 311.096 716.195 309.544 716.483 308.04C716.803 306.504 717.091 305.128 717.347 303.912C717.923 301.288 718.627 298.936 719.459 296.856C720.323 294.776 721.475 293.144 722.915 291.96C724.387 290.744 726.323 290.136 728.723 290.136C730.547 290.136 732.339 290.536 734.099 291.336C735.891 292.136 737.507 293.272 738.947 294.744C740.419 296.184 741.587 297.88 742.451 299.832C743.315 301.784 743.747 303.912 743.747 306.216C743.747 308.2 743.283 310.088 742.355 311.88C741.427 313.64 740.179 315.304 738.611 316.872C737.043 318.44 735.251 319.896 733.235 321.24C731.251 322.584 729.171 323.816 726.995 324.936C724.851 326.024 722.739 326.984 720.659 327.816C718.579 328.68 716.659 329.4 714.899 329.976C714.675 330.04 714.403 330.104 714.083 330.168C713.763 330.232 713.443 330.264 713.123 330.264ZM717.683 323.64C720.467 322.488 723.171 321.304 725.795 320.088C728.451 318.872 730.835 317.528 732.947 316.056C735.059 314.552 736.739 312.872 737.987 311.016C739.235 309.16 739.859 307.032 739.859 304.632C739.859 303.384 739.571 302.168 738.995 300.984C738.419 299.8 737.619 298.744 736.595 297.816C735.603 296.856 734.467 296.104 733.187 295.56C731.939 294.984 730.627 294.696 729.251 294.696C728.003 294.696 726.883 295.016 725.891 295.656C724.931 296.264 724.099 297.352 723.395 298.92C722.691 300.488 722.083 302.664 721.571 305.448C721.187 307.176 720.787 309.048 720.371 311.064C719.955 313.048 719.539 314.952 719.123 316.776C718.739 318.568 718.419 320.088 718.163 321.336C717.907 322.552 717.763 323.256 717.731 323.448C717.731 323.512 717.715 323.576 717.683 323.64Z" fill="#FF5F5F"/>
<path d="M742.536 237.88C741.832 237.88 741.24 237.608 740.76 237.064C740.312 236.52 740.088 235.624 740.088 234.376C740.088 233.96 740.136 233.512 740.232 233.032C740.328 232.52 740.504 232.008 740.76 231.496C739.16 227.528 737.816 223.672 736.728 219.928C735.64 216.184 734.712 212.264 733.944 208.168C732.92 210.28 731.944 212.472 731.016 214.744C730.12 216.984 729.272 219.176 728.472 221.32C727.672 223.464 726.952 225.464 726.312 227.32C725.672 229.176 725.112 230.776 724.632 232.12C724.12 233.72 723.608 234.792 723.096 235.336C722.584 235.912 722.056 236.2 721.512 236.2C720.776 236.2 720.216 236.024 719.832 235.672C719.48 235.32 719.304 234.696 719.304 233.8C719.304 233.128 719.48 232.088 719.832 230.68C720.184 229.272 720.664 227.64 721.272 225.784C721.912 223.928 722.632 221.976 723.432 219.928C724.232 217.88 725.08 215.88 725.976 213.928C726.904 211.976 727.832 210.216 728.76 208.648C729.688 207.048 730.568 205.784 731.4 204.856C732.264 203.896 733.048 203.416 733.752 203.416C734.488 203.416 735.112 203.56 735.624 203.848C736.168 204.136 736.76 204.888 737.4 206.104C737.816 206.936 738.296 208.152 738.84 209.752C739.384 211.32 739.928 213.096 740.472 215.08C741.016 217.032 741.544 219.048 742.056 221.128C742.568 223.176 743.016 225.08 743.4 226.84C744.68 220.92 745.8 215.736 746.76 211.288C747.72 206.808 748.456 203.304 748.968 200.776C749.512 198.248 749.8 196.92 749.832 196.792C750.024 195.96 750.232 195.448 750.456 195.256C750.68 195.064 751 194.968 751.416 194.968C751.992 194.968 752.552 195.208 753.096 195.688C753.672 196.136 753.96 196.76 753.96 197.56C753.96 197.944 753.864 198.824 753.672 200.2C753.512 201.576 753.256 203.304 752.904 205.384C752.584 207.432 752.168 209.72 751.656 212.248C751.144 214.744 750.552 217.352 749.88 220.072C749.208 222.76 748.456 225.432 747.624 228.088C746.824 230.712 745.944 233.192 744.984 235.528C744.632 236.424 744.216 237.032 743.736 237.352C743.288 237.704 742.888 237.88 742.536 237.88Z" fill="#FF5F5F"/>
<path d="M180.379 517.008C179.867 517.008 179.451 516.832 179.131 516.48C178.811 516.128 178.651 515.504 178.651 514.608C178.651 513.936 178.859 512.848 179.275 511.344C179.723 509.808 180.315 508.016 181.051 505.968C181.819 503.92 182.667 501.76 183.595 499.488C184.555 497.184 185.547 494.896 186.571 492.624C187.595 490.352 188.603 488.256 189.595 486.336C190.587 484.384 191.499 482.736 192.331 481.392C193.163 480.048 193.867 479.168 194.443 478.752C195.115 478.272 195.739 478.032 196.315 478.032C196.635 478.032 196.955 478.064 197.275 478.128C197.595 478.192 197.867 478.304 198.091 478.464C198.667 478.816 199.163 479.6 199.579 480.816C200.027 482 200.411 483.456 200.731 485.184C201.051 486.88 201.307 488.704 201.499 490.656C201.723 492.576 201.915 494.48 202.075 496.368C203.035 496.24 203.835 496.144 204.475 496.08C205.115 496.016 205.579 495.984 205.867 495.984C206.955 495.984 207.643 496.128 207.931 496.416C208.219 496.704 208.379 497.04 208.411 497.424C208.475 498 208.315 498.512 207.931 498.96C207.547 499.408 207.003 499.744 206.299 499.968C206.075 500.032 205.595 500.144 204.859 500.304C204.155 500.432 203.307 500.592 202.315 500.784C202.347 501.744 202.363 502.64 202.363 503.472C202.395 504.272 202.411 504.96 202.411 505.536C202.411 508.448 202.235 510.64 201.883 512.112C201.531 513.552 201.099 514.528 200.587 515.04C200.075 515.552 199.579 515.808 199.099 515.808C198.523 515.808 198.123 515.648 197.899 515.328C197.675 514.976 197.563 514.48 197.563 513.84V510.432C197.563 509.248 197.547 507.904 197.515 506.4C197.515 504.864 197.499 503.248 197.467 501.552C195.579 501.872 193.659 502.176 191.707 502.464C189.787 502.752 188.123 503.008 186.715 503.232C186.011 505.056 185.403 506.704 184.891 508.176C184.379 509.616 184.027 510.72 183.835 511.488C183.355 513.088 182.923 514.288 182.539 515.088C182.155 515.856 181.787 516.368 181.435 516.624C181.115 516.88 180.763 517.008 180.379 517.008ZM188.347 498.96C190.011 498.576 191.595 498.224 193.099 497.904C194.635 497.584 196.043 497.312 197.323 497.088C197.227 494.208 197.051 491.456 196.795 488.832C196.571 486.176 196.235 484.08 195.787 482.544C195.179 483.6 194.459 485.008 193.627 486.768C192.795 488.528 191.915 490.48 190.987 492.624C190.091 494.736 189.211 496.848 188.347 498.96Z" fill="#FF5F5F"/>
<path d="M297.379 546.008C296.867 546.008 296.451 545.832 296.131 545.48C295.811 545.128 295.651 544.504 295.651 543.608C295.651 542.936 295.859 541.848 296.275 540.344C296.723 538.808 297.315 537.016 298.051 534.968C298.819 532.92 299.667 530.76 300.595 528.488C301.555 526.184 302.547 523.896 303.571 521.624C304.595 519.352 305.603 517.256 306.595 515.336C307.587 513.384 308.499 511.736 309.331 510.392C310.163 509.048 310.867 508.168 311.443 507.752C312.115 507.272 312.739 507.032 313.315 507.032C313.635 507.032 313.955 507.064 314.275 507.128C314.595 507.192 314.867 507.304 315.091 507.464C315.667 507.816 316.163 508.6 316.579 509.816C317.027 511 317.411 512.456 317.731 514.184C318.051 515.88 318.307 517.704 318.499 519.656C318.723 521.576 318.915 523.48 319.075 525.368C320.035 525.24 320.835 525.144 321.475 525.08C322.115 525.016 322.579 524.984 322.867 524.984C323.955 524.984 324.643 525.128 324.931 525.416C325.219 525.704 325.379 526.04 325.411 526.424C325.475 527 325.315 527.512 324.931 527.96C324.547 528.408 324.003 528.744 323.299 528.968C323.075 529.032 322.595 529.144 321.859 529.304C321.155 529.432 320.307 529.592 319.315 529.784C319.347 530.744 319.363 531.64 319.363 532.472C319.395 533.272 319.411 533.96 319.411 534.536C319.411 537.448 319.235 539.64 318.883 541.112C318.531 542.552 318.099 543.528 317.587 544.04C317.075 544.552 316.579 544.808 316.099 544.808C315.523 544.808 315.123 544.648 314.899 544.328C314.675 543.976 314.563 543.48 314.563 542.84V539.432C314.563 538.248 314.547 536.904 314.515 535.4C314.515 533.864 314.499 532.248 314.467 530.552C312.579 530.872 310.659 531.176 308.707 531.464C306.787 531.752 305.123 532.008 303.715 532.232C303.011 534.056 302.403 535.704 301.891 537.176C301.379 538.616 301.027 539.72 300.835 540.488C300.355 542.088 299.923 543.288 299.539 544.088C299.155 544.856 298.787 545.368 298.435 545.624C298.115 545.88 297.763 546.008 297.379 546.008ZM305.347 527.96C307.011 527.576 308.595 527.224 310.099 526.904C311.635 526.584 313.043 526.312 314.323 526.088C314.227 523.208 314.051 520.456 313.795 517.832C313.571 515.176 313.235 513.08 312.787 511.544C312.179 512.6 311.459 514.008 310.627 515.768C309.795 517.528 308.915 519.48 307.987 521.624C307.091 523.736 306.211 525.848 305.347 527.96Z" fill="#FF5F5F"/>
<g opacity="0.1">
<path d="M343.215 678.822C472.086 675.636 524.454 615.964 630.783 622.661C650.939 623.931 720.891 657.194 717.887 641.78C689.176 494.373 618.456 491.615 577.085 486.441C507.481 551.764 368.672 452.187 343.215 678.827V678.822Z" fill="#DB2323"/>
<path d="M283.554 513.342L580.665 566.555L795.441 493.874L536.517 444.555L283.554 513.342Z" fill="#EF1F1F"/>
<path d="M536.475 500.482C578.38 515.268 648.7 529.69 656.285 537.236C666.565 547.467 667.113 595.256 660.504 664.82L641.89 714.591C659.434 733.006 685.628 728.12 696.311 712.479L679.909 665.242C687.644 622.995 686.101 542.078 677.8 530.897C664.315 512.74 592.865 501.606 550.398 486.961C543.789 488.932 543.085 498.508 536.476 500.48L536.475 500.482Z" fill="#FCF9F9"/>
<path d="M519.216 485.909C530.124 466.881 558.409 473.582 563.907 481.504C571.363 492.25 550.042 482.385 537.626 499.291C529.136 510.853 512.702 497.273 519.216 485.909Z" fill="white"/>
<path d="M658.228 639.988C648.285 645.565 647.887 658.011 654.052 665.679L686.567 668.368C695.616 663.19 695.417 647.854 688.656 642.975L658.228 639.988Z" fill="#F9F4F4"/>
</g>
</svg>
