<?xml version='1.0' encoding='utf-8'?>
<svg xmlns="http://www.w3.org/2000/svg" viewBox="0 0 724.87 329.04"> <g transform="matrix(5.1044 0 0 5.1044 -3829.3 560.38)"> <path transform="matrix(.40508 -.02123 .0087847 .16762 367.92 -193.51)" d="m1141.4 997.36a12.143 12.143 0 1 1-24.286 0 12.143 12.143 0 1 1 24.286 0z" fill="#162d50"/> <path d="m750.19-95.627 48.298-1.8878 35.813 47.845-65.112 4.3482-18.999-50.306z" fill="#162d50"/> <path d="m797.87-97.763 43.371-3.5228 50.409 43.19-57.481 8.4095-36.298-48.076z" fill="#162d50"/> <path d="m750.87-99.568s14.951-1.5338 21.941-1.3176 25.678 2.4191 25.678 2.4191l35.813 47.845s-22.535-1.0191-32.047-1.0191-32.047 2.0382-32.047 2.0382l-19.339-49.966z" fill="#afdde9" stroke="#003380"/> <path d="m797.92-98.652s17.579-5.4331 24.063-4.8526c6.5056 0.5824 19.987 0.92224 19.987 0.92224l49.729 40.132s-20.373 1.3875-29.93 1.691c-9.6019 0.30492-27.552 10.183-27.552 10.183l-36.298-48.076z" fill="#afdde9" stroke="#214478"/> <path d="m751.89-104.19s8.5457 2.3249 13.788 2.487 14.688-3.4505 19.706-3.2953c4.9512 0.15313 13.105 6.0541 13.105 6.0541l35.813 47.845s-15.145-4.7558-21.968-5.4352-17.212 4.0764-24.346 4.0764-17.1-2.4458-17.1-2.4458l-18.999-49.286z" fill="#f4eed7" stroke="#000" stroke-width="1.9023"/> <path d="m797.92-99.128s6.6153-5.1196 11.495-6.2114 14.874 1.2861 19.567 0.76445 12.649-4.2583 12.649-4.2583l42.935 35.037s-6.6266 7.7478-15.323 11.203c-8.9901 3.5716-17.186 0.74434-23.049 3.0824s-11.976 8.4598-11.976 8.4598l-36.298-48.076z" fill="#f4eed7" stroke="#000" stroke-width="1.9023"/> </g> </svg>