<?xml version='1.0' encoding='utf-8'?>
<svg xmlns="http://www.w3.org/2000/svg" viewBox="0 0 704.82 389.49"> <path d="m83.778 322.28c176.37-4.355 248.04-85.904 393.56-76.752 27.586 1.735 123.32 47.194 119.21 26.128-39.294-201.45-136.08-205.22-192.7-212.29-95.259 89.272-285.23-46.813-320.07 262.92z" fill="#db2323"/> <path d="m2.127 96.134 406.62 72.723 293.94-99.328-354.36-67.402-346.2 94.007z" fill="#ef1f1f"/> <path d="m348.27 78.557c57.351 20.208 153.59 39.917 163.97 50.23 14.069 13.982 14.819 79.291 5.774 174.36l-25.474 68.019c24.01 25.166 59.859 18.488 74.479-2.887l-22.447-64.555c10.585-57.736 8.474-168.32-2.887-183.6-18.455-24.815-116.24-40.03-174.36-60.045-9.045 2.694-10.008 15.781-19.053 18.475z" fill="#fcf9f9"/> <path d="m324.65 58.642c14.928-26.004 53.639-16.847 61.163-6.02 10.204 14.686-18.976 1.204-35.968 24.309-11.619 15.8-34.111-2.758-25.195-18.289z" fill="#fff"/> <path d="m514.9 269.21c-13.609 7.621-14.153 24.631-5.716 35.11l44.5 3.674c12.384-7.076 12.111-28.034 2.858-34.702l-41.642-4.082z" fill="#f9f4f4"/> <text transform="matrix(8.1179 0 0 2.3406 -2177 -27.857)" x="299.181" y="42.513" font-family="Arial" font-size="24" stroke-width="0" text-anchor="middle"/> </svg>