<svg width="612" height="196" viewBox="0 0 612 196" fill="none" xmlns="http://www.w3.org/2000/svg">
<path d="M608.005 91.3305L606.085 91.367C497.251 54.2984 420.972 46.6389 313.433 48.6837C300.306 48.9333 287.841 49.4877 276.052 50.3157C259.553 2.82904 179.912 2.11354 122.586 15.8898C144.488 26.5136 168.293 34.9383 167.626 71.6967C158.636 75.4316 151.154 79.5119 145.182 83.8497L144.704 96.1578C172.839 94.1777 199.781 93.2433 222.01 92.8206C243.582 92.7501 270.096 90.9617 269.358 98.1941C268.551 106.098 242.649 105.001 221.521 105.402C198.556 106.388 171.942 106.48 144.344 105.426L143.89 117.111C149.532 121.225 156.714 125.031 165.422 128.427C163.322 165.408 138.777 174.759 115.968 186.255C172.405 197.89 252.379 194.112 272.42 145.687C284.135 146.064 296.561 146.149 309.655 145.9C417.193 143.855 494.18 133.306 606.056 92.0402L607.976 92.0037L607.017 91.6734C607.343 91.553 607.676 91.4519 608.002 91.331L608.005 91.3305ZM472.79 94.3498C472.393 104.55 463.924 113.041 453.711 113.484L453.263 113.492C442.877 113.69 434.792 105.443 435.195 95.0646C435.599 84.6859 444.337 76.1196 454.722 75.9221C465.107 75.7246 473.193 83.971 472.79 94.3498Z" fill="#302975" fill-opacity="0.97255"/>
<path d="M262.207 98.3978C261.57 104.215 240.197 103.438 222.78 103.766C191.114 105.039 151.064 104.506 112.76 101.217C151.435 96.7009 192.638 95.0852 223.138 94.5099C240.922 94.4245 262.79 93.0748 262.207 98.3978Z" fill="#302975" fill-opacity="0.97255"/>
<path d="M3.53708 103.561L3.77569 103.556C16.8624 91.7301 43.478 83.2614 73.9113 82.6832C89.9163 82.3791 116.125 84.0959 128.32 87.6366C109.164 86.65 108.55 87.4372 104.154 87.5C84.4002 87.2609 55.167 93.2103 47.1466 103.047C54.3037 111.981 82.8029 116.36 103.049 115.968C109.55 115.673 109.163 115.785 127.259 114.972C114.77 118.982 88.3887 121.698 72.3846 122.002C41.9542 122.58 15.9565 115.109 3.76759 103.765L3.52898 103.769C3.57051 103.731 3.61109 103.686 3.65291 103.648C3.61813 103.615 3.57158 103.593 3.53708 103.561Z" fill="#FF6600" fill-opacity="0.97255"/>
<path d="M59.9162 102.639L60.0467 102.636C67.2 96.1718 81.7486 91.5423 98.3835 91.2262C107.132 91.06 121.458 91.9984 128.125 93.9339C117.654 93.3946 117.317 93.8248 114.915 93.8592C104.117 93.7285 88.1383 96.9804 83.754 102.357C87.6662 107.241 103.244 109.635 114.311 109.42C117.865 109.259 117.653 109.32 127.544 108.876C120.718 111.068 106.297 112.552 97.549 112.718C80.915 113.034 66.7037 108.951 60.0423 102.749L59.9118 102.752L59.9796 102.685C59.9606 102.668 59.9351 102.657 59.9162 102.639Z" fill="#FFFF00" fill-opacity="0.97255"/>
<path d="M270.926 49.4687C246.083 2.99105 164.12 12.551 155.531 14.668C267.663 11.1424 267.183 59.2088 270.926 49.4687Z" fill="#E6E6E6"/>
<path d="M592.229 92.1261C472.462 54.7503 378.264 51.1806 280.608 55.2731C277.224 59.4217 277.505 65.7657 246.521 66.7445L174.488 71.5246C310.21 68.8145 421.775 56.3923 592.235 92.1258L592.229 92.1261Z" fill="white"/>
<path d="M462.134 106.162C450.863 106.347 442.098 97.3867 442.536 86.1159C442.547 85.8374 442.565 85.5572 442.587 85.2811C440.828 87.734 439.726 90.6833 439.603 93.8435C439.28 102.154 445.769 108.772 454.084 108.613L454.456 108.588C457.252 108.466 459.867 107.588 462.134 106.162Z" fill="#B3B3B3" fill-opacity="0.97255"/>
<path d="M275.249 98.0569C275.727 87.5421 271.102 86.4965 253.972 86.4118L207.456 89.2671C260.751 87.6146 272.705 87.8337 275.249 98.0569Z" fill="white"/>
</svg>
