<?xml version='1.0' encoding='utf-8'?>
<svg xmlns:xlink="http://www.w3.org/1999/xlink" xmlns="http://www.w3.org/2000/svg" viewBox="0 0 276.07 535.19"> <defs> <filter id="ac"> <feGaussianBlur stdDeviation=".5546"/> </filter> <filter id="ab"> <feGaussianBlur stdDeviation=".4601"/> </filter> <filter id="aa"> <feGaussianBlur stdDeviation=".9808"/> </filter> <filter id="z"> <feGaussianBlur stdDeviation="1.0601"/> </filter> <filter id="y"> <feGaussianBlur stdDeviation="6.624"/> </filter> <filter id="ad" x="-.97748" y="-.12219" width="2.955" height="1.2444"> <feGaussianBlur stdDeviation="6.1736"/> </filter> <filter id="c" x="0" y="0" width="1" height="1"> <feColorMatrix in="SourceGraphic" result="result19" values="0.5 0 0 0 0.3 0 0.5 0 0 0.3 0 0 0.5 0 0.3 0 0 0 1 0"/> <feTurbulence baseFrequency="0.001 0.40000000000000002" numOctaves="10" result="result1" seed="12"/> <feMerge result="result18"/> <feTurbulence baseFrequency="0.001 0.40000000000000002" numOctaves="10" result="result1" seed="152"/> <feMerge result="result20"> <feMergeNode in="result1"/> <feMergeNode in="result18"/> </feMerge> <feComposite in="SourceGraphic" in2="result20" operator="in" result="result21"/> <feMerge result="result7"> <feMergeNode in="result19"/> <feMergeNode in="result21"/> </feMerge> <feTurbulence baseFrequency="0.001 0.40000000000000002" numOctaves="10" result="result1" seed="15"/> <feComposite in="SourceGraphic" in2="result1" operator="in" result="result15"/> <feColorMatrix result="result5" values="0.8 0 0 0 0 0 0.8 0 0 0 0 0 0.8 0 0 0 0 0 1 0"/> <feMerge result="result13"> <feMergeNode in="result7"/> <feMergeNode in="result5"/> </feMerge> <feComposite in2="SourceAlpha" operator="in" result="result16"/> </filter> <linearGradient id="b"> <stop offset="0"/> <stop stop-opacity="0" offset="1"/> </linearGradient> <linearGradient id="a"> <stop stop-color="#fff" offset="0"/> <stop stop-color="#fff" stop-opacity="0" offset="1"/> </linearGradient> <linearGradient id="x" x1="438.12" x2="534.43" gradientUnits="userSpaceOnUse"> <stop stop-color="#636666" stop-opacity=".1" offset="0"/> <stop stop-color="#e9f2f2" stop-opacity=".7" offset="1"/> </linearGradient> <linearGradient id="w" x2="0" y1="656.62" y2="582.55" gradientUnits="userSpaceOnUse"> <stop stop-color="#dae5da" offset="0"/> <stop stop-color="#494d49" offset="1"/> </linearGradient> <linearGradient id="v" x1="435.81" x2="563.96" gradientUnits="userSpaceOnUse"> <stop stop-color="#666" offset="0"/> <stop stop-color="#e5e5e5" offset="1"/> </linearGradient> <linearGradient id="u" x1="350.71" x2="466.74" gradientUnits="userSpaceOnUse"> <stop stop-color="#4d4d4d" offset="0"/> <stop stop-color="#ccc" offset="1"/> </linearGradient> <linearGradient id="t" x1="464.8" x2="466.74" y1="400.31" y2="347.59" gradientUnits="userSpaceOnUse"> <stop stop-color="#e5e5e5" stop-opacity=".6" offset="0"/> <stop stop-color="#f2f2f2" stop-opacity=".4" offset="1"/> </linearGradient> <linearGradient id="r" x2="0" y1="945.04" y2="843.55" gradientTransform="matrix(2.5961 1.7812e-8 0 2.5961 -699.91 -1519.2)" gradientUnits="userSpaceOnUse"> <stop stop-color="#ebebeb" offset="0"/> <stop stop-color="#ececec" stop-opacity="0" offset="1"/> </linearGradient> <linearGradient id="p" x1="355.24" x2="363.04" y1="645.5" y2="656.54" gradientTransform="matrix(-1.0215 0 0 .47632 722.08 69.017)" gradientUnits="userSpaceOnUse"> <stop stop-color="#1a1a1a" offset="0"/> <stop stop-color="#262626" stop-opacity="0" offset="1"/> </linearGradient> <linearGradient id="o" x2="0" y1="421.03" y2="518.18" gradientUnits="userSpaceOnUse" spreadMethod="reflect"> <stop stop-color="#fff" stop-opacity="0" offset="0"/> <stop stop-color="#fff" offset="1"/> </linearGradient> <linearGradient id="m" x1="498.09" x2="504.76" gradientUnits="userSpaceOnUse"> <stop stop-color="#a1a1a1" offset="0"/> <stop stop-color="#666" offset=".5"/> <stop stop-color="#fff" offset="1"/> </linearGradient> <linearGradient id="j" x1="450.02" x2="504.76" y1="669.61" y2="623.48" gradientUnits="userSpaceOnUse"> <stop stop-color="#fff" offset="0"/> <stop stop-color="#999" offset="1"/> </linearGradient> <linearGradient id="i" x1="437.5" x2="563.89" y1="656.46" y2="630.85" gradientUnits="userSpaceOnUse"> <stop stop-color="#fff" offset="0"/> <stop stop-color="#666" offset="1"/> </linearGradient> <linearGradient id="h" x2="0" y1="567.86" y2="287.79" gradientUnits="userSpaceOnUse"> <stop stop-color="#aeb2ae" offset="0"/> <stop stop-color="#e3e5e3" offset="1"/> </linearGradient> <linearGradient id="g" x2="0" y1="567.86" y2="287.79" gradientUnits="userSpaceOnUse"> <stop stop-color="#191a19" offset="0"/> <stop stop-color="#fdfffd" offset="1"/> </linearGradient> <linearGradient id="d" x1="487.06" x2="469.62" y1="642.37" y2="619.76" gradientUnits="userSpaceOnUse"> <stop stop-color="#ccc" offset="0"/> <stop stop-color="#fff" stop-opacity="0" offset=".49"/> <stop stop-opacity="0" offset=".51"/> <stop stop-color="#808780" offset="1"/> </linearGradient> <linearGradient id="s" x1="493.82" x2="435.37" y1="409.83" y2="333" gradientUnits="userSpaceOnUse" xlink:href="#a"/> <linearGradient id="q" x2="0" y1="659.32" y2="652.49" gradientUnits="userSpaceOnUse" xlink:href="#a"/> <linearGradient id="n" x1="-24.487" x2="-39.683" gradientUnits="userSpaceOnUse" xlink:href="#a"/> <linearGradient id="l" x1="452.91" x2="455.51" y1="607.66" y2="605.45" gradientUnits="userSpaceOnUse" xlink:href="#b"/> <linearGradient id="k" x1="471.72" x2="472.6" y1="592.15" y2="590.4" gradientUnits="userSpaceOnUse" xlink:href="#a"/> <linearGradient id="f" x1="446.74" x2="453.81" y1="593.86" y2="600.49" gradientUnits="userSpaceOnUse" xlink:href="#b"/> <linearGradient id="e" x1="482.89" x2="485.65" y1="565.88" y2="575.19" gradientUnits="userSpaceOnUse" xlink:href="#b"/> </defs> <g transform="translate(-348.54 -184.98)"> <path transform="matrix(.77955,-.62634,.62634,.77955,-8,26)" d="m-125.21 755.38h296.51a6.1774 6.1774 0 0 1 6.1774 6.1774 6.1774 6.1774 0 0 1-6.1774 6.1774h-296.51a6.1774 6.1774 0 0 1-6.1774-6.1774 6.1774 6.1774 0 0 1 6.1774-6.1774" filter="url(#y)" opacity=".3"/> <path d="m481.98 600.37c-1.9375 33.36 52.614 30.089 79.127 30.353 1.5366 0.0153 2.8092 3.0736 1.5999 4.022l-59.525 46.682c-1.2116 0.95021-3.3818 1.8375-4.9166 1.7618-36.752-1.8128-62.336-0.23668-62.336-48.435z" filter="url(#z)"/> <path d="m491.22 550.92-0.3244 0.16269c-0.0299 0.0499-0.0499 0.1118-0.0798 0.1627-8.44 13.455-15.236 27.897-19.227 40.726l-18.416 14.927-0.56795 2.1093 19.714-16.225c3.4913-13.03 10.316-27.789 18.903-41.862zm-38.211 29.774-0.56795 0.40525c-11.511 20.705-16.691 39.816-16.631 55.004 0.13176 33.693 6.1935 44.58 60.359 45.026 2.6972 0 6.2512 0.39028 8.275-1.217l59.385-47.459c0.24654-0.23357 0.12477-2.8122-0.1627-3.6508-0.0299 0.0699-0.17867 0.0998-0.3244 0.24355l-59.385 47.378c-2.0238 1.6067-2.7349 1.6225-5.76 1.6225-54.165-0.44517-60.226-11.332-60.359-45.026-0.0599-14.542 4.6746-32.645 15.171-52.327z" fill="url(#v)" stroke="url(#i)" stroke-width=".2"/> <path d="m504.04 540.86-12.818 9.9786c-0.01 0.02 0.01 0.0599 0 0.0798-8.5785 14.075-15.411 28.829-18.903 41.862l-19.633 16.063c4.2613-15.904 9.3714-28.83 16.063-40.401l-15.739 12.25c-10.513 19.696-15.228 37.776-15.171 52.327 0.13176 33.693 6.1935 44.58 60.359 45.026 2.7128 0 3.7363-0.02 5.76-1.6225l59.304-47.135c0.73364-0.69472 0.60188-0.89035-0.89235-0.89235-61.231-0.15771-79.586-7.38-79.586-32.045 0-18.658 8.5491-37.346 21.255-55.491z" fill="url(#w)"/> <path d="m437.66 641.88 46.498-34.55c1.897 8.4762 10.268 13.803 21.634 17.114l-53.924 45.529c-8.9623-4.6681-12.981-14.829-14.208-28.092z" fill="url(#d)" filter="url(#aa)" opacity=".45"/> <path d="m446.82 593.77 13.789-10.076-6.2756 16.882-12.64 8.5737z" fill="url(#f)" filter="url(#ac)" opacity=".6"/> <path d="m483.04 566.07 9.0386-6.8575-6.3381 16.07-9.0145 5.3862z" fill="url(#e)" filter="url(#ab)" opacity=".7"/> <path d="m504 540.92-12.818 9.9786c-0.01 0.02 0.01 0.0599 0 0.0798-8.5785 14.075-15.41 28.829-18.903 41.862l-19.633 16.063c4.2614-15.904 9.3714-28.83 16.063-40.401l-15.739 12.25c-10.513 19.696-15.228 37.776-15.171 52.327 0.13176 33.693 6.1935 44.58 60.359 45.026 2.7166 0 3.7363-0.02 5.76-1.6226l59.304-47.135c0.73364-0.69471 0.60188-0.89035-0.89235-0.89235-61.231-0.15771-79.586-7.38-79.586-32.045 0-18.658 8.5491-37.346 21.255-55.491z" fill="url(#x)" filter="url(#c)" stroke="url(#j)" stroke-width=".2"/> <path d="m583.15 190.21-222.82 176.54c-7.2563 5.7229-9.6213 5.8303-9.6213 21.515v264.88c0 8.117 0.1769 6.1585 14.848 6.1585-1.9687-3.6548-1.8656-7.1234-1.8676-11.904l-0.11379-256.2 9.9835-20.875 222.68-175.04c2.4578-1.9395 5.4174-6.7851 8.2315-5.4043-12.795-7.3872-14.443-5.1336-21.326 0.32617z" fill="url(#u)"/> <path d="m583.17 190.18-222.83 176.57c-7.2563 5.7229-9.6213 5.8303-9.6213 21.515v264.88c0 8.117 0.6144 6.1585 14.848 6.1585-1.9687-3.6548-1.8656-7.1234-1.8676-11.904l-0.11379-256.2 9.9835-20.875 222.68-175.04c2.4578-1.9395 5.5475-6.8579 8.3565-5.4668-14.231-8.2858-15.372-4.0801-21.434 0.36103z" fill="url(#t)" filter="url(#c)" stroke="#808080" stroke-width=".2"/> <path d="m603.66 189.26c-0.51904-0.0399-1.1094 0.19664-1.7848 0.73065l-235.11 185.62c-1.8011 1.422-3.2451 4.4389-3.2451 6.7336v274.7c0 2.2946 1.444 3.0445 3.2451 1.6225l235.11-185.62c1.8011-1.422 3.2451-4.4389 3.2451-6.7335v-274.7c0-1.4342-0.5959-2.2923-1.4603-2.3526zm-6.0846 15.171c0.25952-0.0599 0.40525 0.18666 0.40525 0.56795v261.64c0 0.50806-0.32939 1.1474-0.72965 1.4603l-226.02 176.45c-0.40126 0.31242-0.73065 0.10281-0.73065-0.40525v-261.64c0-0.50806 0.32939-1.1475 0.73065-1.4603l226.02-176.45c0.0998-0.0798 0.23756-0.14074 0.3244-0.1627z" fill="url(#h)" stroke="url(#g)" stroke-width=".2"/> <path transform="matrix(.78832,-.61527,0,1,0,0)" d="m470.94 670.79h286.74a0.9178 0.9178 0 0 1 0.9178 0.9178v261.66a0.9178 0.9178 0 0 1-0.9178 0.9178h-286.74a0.9178 0.9178 0 0 1-0.9178-0.9178v-261.66a0.9178 0.9178 0 0 1 0.9178-0.9178" stroke="url(#r)" stroke-width="1.7544"/> <path d="m594.88 208.15c-0.0798 0.02-0.2186 0.0798-0.31642 0.15871l-220.63 172.17c-0.39127 0.30543-0.71268 0.92928-0.71268 1.4255v126c19.71-2.7884 73.2-17.849 119.82-98.595 47.964-83.075 89.083-89.565 102.24-89.251v-111.42c0-0.37231-0.14274-0.538-0.39627-0.47512z" fill="url(#s)" opacity=".1"/> <path d="m363.07 652.66c0 3.2891 0.0509 4.9775 0.74778 6.6069-11.58 0-12.652 0.98376-12.652-4.1443l-0.1923-2.5824z" fill="url(#q)"/> <path d="m352.62 376.09c-0.90267 0.99149-1.0738 0.85194-1.3968 7.4667 0 3.3724 11.603 5.5977 11.809 0.69492 0.14587-1.8981-0.14423-3.6246 1.0433-5.9475z" fill="url(#p)" opacity=".4"/> <path d="m363.32 420.97v194.43" fill="none" stroke="url(#o)" stroke-width=".3"/> <path transform="matrix(.36088 0 0 1.4049 368.39 58.43)" d="m-25.028 337.56c0 33.486-3.3932 60.632-7.579 60.632s-7.579-27.146-7.579-60.632 3.3932-60.632 7.579-60.632 7.579 27.146 7.579 60.632z" fill="url(#n)" filter="url(#ad)" opacity=".8"/> <path d="m498.09 678.02c3.5881 0 3.305 0.45663 6.4188-2.0024l0.16116 3.5572c-1.8974 1.5736-2.0474 1.5499-6.5359 1.5446z" fill="url(#m)" opacity=".4"/> <path d="m452.86 608.56 0.44195-1.8562 2.2981-1.7236 0.66291 0.83968z" fill="url(#l)"/> <path d="m471.536,591.96092 .875.78125 .53125-2.125-.78125-.5z" fill="url(#k)"/> </g> </svg>