<?xml version='1.0' encoding='utf-8'?>
<svg xmlns="http://www.w3.org/2000/svg" viewBox="0 0 800 800"> <defs> <clipPath id="a"> <circle cx="400" cy="400" r="400" fill="none"/> </clipPath> <linearGradient id="b" x1="435.02" x2="221.52" y1="478.02" y2="691.52" gradientUnits="userSpaceOnUse"> <stop offset="0"/> <stop stop-opacity="0" offset="1"/> </linearGradient> </defs> <circle cx="400" cy="400" r="400" fill="#1c8adb"/> <g clip-path="url(#a)"> <path d="m477.61 344.54"/> <path d="m335.25 797.25 234.58-234.58v-215.76h-91.133l-62.315 62.312h-3.456l104.17-104.17 15.155-67.717-67.717 15.155-81.517 81.512-2.283-2.24a13.5 13.5 0 0 0-19 0.089l-303.19 303.2c55.328 83.749 144.93 139.94 276.71 162.21z" fill="url(#b)" opacity=".42"/> <path d="m426.84 290.18"/> <rect x="230.17" y="471.53" width="91.136" height="91.136" fill="#fff"/> <rect x="354.43" y="409.22" width="91.136" height="153.45" fill="#fff"/> <rect x="478.7" y="346.91" width="91.136" height="215.76" fill="#fff"/> <path d="M275.907,450.272a13.46,13.46,0,0,0,9.546-3.954L371.37,360.4l19.173,18.819a13.5,13.5,0,0,0,19-.088l90.817-90.817L517.1,305.05l15.155-67.717-67.717,15.155,16.735,16.735-81.359,81.36-19.174-18.82a13.5,13.5,0,0,0-19,.089l-95.375,95.375a13.5,13.5,0,0,0,9.546,23.045Z" fill="#fff"/> </g> </svg>