<?xml version='1.0' encoding='utf-8'?>
<svg xmlns="http://www.w3.org/2000/svg" version="1.1" viewBox="0 0 720 1424"> <g stroke-linejoin="miter"> <path fill='#blue' d="m539.1 224.69c-4.221 1.0226-5.483 1.5448-8.2898 3.3724-3.5464 2.3281-3.8293 2.4585-8.8988 4.3516-1.6754 0.60925-3.9164 1.5665-5.0044 2.1104-1.7623 0.89203-2.2192 1.262-4.5691 3.7206-1.436 1.5013-4.0904 4.1993-5.8963 6.0052-4.2428 4.1773-5.7441 6.2008-7.9416 10.596-0.50043 1.001-1.3707 2.4368-1.9364 3.2202-1.523 2.0885-2.3934 3.9382-3.416 7.2888-0.65267 2.1104-1.1314 8.7247-1.1531 15.818 0 4.7868 0.73978 14.708 1.5231 20.104 0.52212 3.6988 1.0878 5.3088 3.5682 10.248 3.0025 6.0488 3.6118 7.9854 4.8737 15.622 0.82674 4.9825 1.0226 7.1802 0.71798 8.3116-0.2829 1.0443-0.8486 1.3272-4.5909 2.4584-3.0025 0.8922-4.4168 0.9793-8.5944 0.58758-7.0712-0.69623-10.574-0.87036-16.166-0.73974-11.314 0.21753-13.055 1.1094-14.73 7.441-1.436 5.3307-1.8712 8.2679-2.067 13.49-0.13062 3.4596-0.36982 6.1577-0.73975 8.7032-0.65265 4.243-1.3708 8.3117-1.5232 8.551-0.06523 0.10883-0.34807 2.328-0.67442 4.9607-1.0009 8.5508-1.3926 10.574-3.7859 19.452-0.73969 2.6762-2.1104 8.3116-3.0895 12.511-2.1324 9.1817-2.1324 8.355-0.19592 18.059 1.7841 9.0512 2.3063 11.162 4.0904 16.645 1.7624 5.4178 2.9155 9.3996 5.0259 17.406 2.6546 10.052 3.6989 13.055 7.3979 21.301 1.0661 2.3499 2.1322 4.9173 2.3933 5.7223 0.26107 0.805 0.76152 1.8276 1.1096 2.3063 1.0008 1.3707 1.3272 2.1976 1.5448 3.7205 0.17405 1.175 0.41346 1.719 1.3708 3.1768 2.067 3.0896 9.6604 18.059 18.886 37.206 4.7649 9.8782 6.4621 13.621 9.3558 20.561 0.17408 0.43527 0.04356 1.9366-0.56563 6.4838l-0.80507 5.94-1.3925 2.154c-0.76142 1.1749-1.5447 2.4587-1.7624 2.872-0.19582 0.39166-0.67446 0.9792-1.0444 1.3055-0.39157 0.30466-0.87023 0.95743-1.066 1.4143-0.41343 0.9138-3.6336 20.387-3.6336 21.932 0 0.52227 0.10873 1.2186 0.23932 1.5666 0.45688 1.2619 2.3063 2.6762 3.4812 2.6762 0.21763 0 0.43513 0.06524 0.47867 0.15229 0.06531 0.10895-0.08701 1.5014-0.3046 3.1115-0.21756 1.61-1.0226 7.6805-1.8059 13.49-6.1792 45.953-10.966 81.418-13.294 98.781-5.5048 40.731-7.0714 52.719-6.9844 52.806 0.06522 0.0653 7.0931 1.9364 15.622 4.1342 8.5292 2.1974 15.579 4.0686 15.666 4.1556 0.06522 0.08704 0.95744 20.3 1.9365 44.908l1.8058 44.756-3.3072 31.07c-3.9816 37.141-4.3951 42.755-4.395 59.791 0 13.904 0.32633 22.019 1.0879 28.199 1.3055 10.661 2.4369 23.303 3.2418 36.532 0.52225 8.5945 0.78338 31.506 0.47882 45.474-0.19597 9.6822-0.19597 9.6822-0.78342 11.532-0.32633 1.0224-0.87027 2.415-1.2184 3.0896-0.60923 1.2182-0.63098 1.3489-0.63098 4.4602 0 1.7624 0.67453 13.077 1.5013 25.131l1.5013 21.91 0.9356 1.7844c1.0878 2.0234 2.9155 4.1123 4.5908 5.2651 1.1096 0.7617 2.2629 1.0664 34.878 8.856l33.725 8.0718 3.9164 0.196c7.2454 0.3696 24.674 0.5006 31.332 0.2396 10.683-0.4348 19.342-1.1098 21.431-1.6755 2.3933-0.6741 4.0469-2.1755 4.5691-4.1773 0.13036-0.5224 0.36974-0.914 0.5438-0.914 0.4569 0 0.54396 0.3047 0.3264 1.0661-0.17404 0.6092-0.1523 0.6963 0.1305 0.5874 0.19594-0.0651 0.3916-0.1306 0.4352-0.1306 0.04346 0 0.0869-0.1958 0.0869-0.435 0-0.2393 1.1751-2.1538 2.6328-4.2428 2.6327-3.8079 2.6327-3.8294 2.4805-4.8086-0.15234-1.1314-0.63111-2.3281-1.2402-3.1985-0.30456-0.4351-2.8066-1.7842-9.051-4.939-15.687-7.8764-35.204-18.908-41.688-23.564-6.5491-4.6999-11.227-8.8992-11.227-10.052 0-0.4565 0.08697-0.5439 0.50054-0.435 2.4804 0.5656 18.059 2.8503 24.303 3.5681 17.493 2.0239 32.659 2.3283 43.842 0.8706 3.242-0.4134 8.2462-1.523 11.205-2.502 5.4177-1.7624 9.2907-4.0686 12.206-7.2019 1.5666-1.7187 1.8928-2.4367 2.0887-4.7652 0.23927-2.8936-1.1749-5.94-3.7207-8.0288l-1.0224-0.8267-43.385-9.3125-3.2635-2.4587c-8.5946-6.5057-14.861-13.055-16.384-17.145l-0.43517-1.1748 1.2404-5.0042c2.3279-9.1822 2.2628-2.7198 0.52227-52.611l-1.5232-43.516 0.63084-2.067c4.939-16.406 14.861-68.472 28.612-150.13l2.3497-13.99 20.844 0.15244 20.822 0.174v-0.67434c0-1.4359-2.9156-32.071-5.1132-54.003-3.5246-34.682-7.7237-72.715-11.858-106.9-0.4785-3.9382-0.87023-7.2018-0.87023-7.267 0-0.0654 0.73973-0.0654 1.6536 0.02164 2.6544 0.23936 4.0469-0.4353 5.0043-2.4153l0.5657-1.153-1.5666-20.061c-0.87025-11.053-1.6536-20.452-1.7624-20.909-0.63096-2.4369-3.7424-3.8947-5.9616-2.7633-0.45691 0.2394-0.87035 0.41343-0.89209 0.37004-0.15236-0.17407-3.3942-19.821-4.3081-26.153-0.30456-2.0452-0.73976-4.9172-0.97926-6.4185-0.261-1.5013-0.69616-4.9607-1.0007-7.6803-0.3046-2.7199-0.8484-6.6363-1.1966-8.7031-0.34814-2.0671-1.0227-6.0924-1.523-8.9645-2.263-13.403-4.5258-22.65-9.2907-38.25l-2.3282-7.5934 0.4134-0.76153c0.2393-0.41334 1.7842-2.0888 3.4812-3.6988 3.7206-3.5901 5.7658-5.8311 7.8111-8.5508 2.1322-2.8503 3.2418-4.8303 5.6354-10.008 1.1315-2.4587 2.5891-5.5484 3.2636-6.8756 3.0897-6.1357 4.6128-10.661 5.2655-15.622 0.087-0.65295 0.3264-1.2403 0.631-1.545 0.7833-0.78315 3.5029-1.6971 11.662-3.9164 8.2463-2.2412 13.49-3.7858 17.189-5.0478 3.2854-1.1312 17.45-6.8317 20.779-8.3765 6.0486-2.8068 7.4845-3.416 10.226-4.3517 1.5666-0.54383 4.3952-1.3925 6.3098-1.9147 3.5248-0.93555 6.4184-2.1321 8.5072-3.5028 0.60914-0.41344 3.7206-2.7415 6.919-5.2002 3.1767-2.4587 6.5926-4.9172 7.5718-5.483 0.97901-0.56557 3.4594-1.7189 5.5047-2.5456 10.008-4.1341 11.88-4.9173 16.275-6.8538 2.6327-1.1531 5.4612-2.3497 6.3097-2.6326 5.2872-1.7841 10.466-4.0688 24.978-11.053 9.5515-4.5906 11.009-5.3524 11.227-5.9615 0.23937-0.60932-0.28285-2.0018-2.8501-7.5934-2.9592-6.4188-3.6554-8.4422-4.1775-11.88l-0.37-2.5457 1.1532-1.0444c3.4596-3.1113 6.6581-4.7215 11.749-5.9399 8.1156-1.9145 12.946-4.0249 16.927-7.3973 3.8076-3.2202 5.4612-3.7424 12.902-4.1342 5.6352-0.28283 6.8754-0.56548 10.748-2.415 3.96-1.8928 4.0253-1.9582 4.0253-5.1783v-2.2628l0.95714-1.7625c1.2402-2.2628 1.7841-3.9379 2.1976-6.6359 0.43505-2.9374 0.43505-3.0026-0.37-3.7425-1.6537-1.5229-1.9582-1.8275-2.6546-2.8938-1.0442-1.5665-1.5231-2.6325-1.3706-3.046 0.3263-0.82692 3.8075-1.9582 10.204-3.2854 5.3958-1.1095 7.006-1.6971 8.3767-3.0024 1.0226-0.95745 1.2619-1.8278 0.82664-3.0027-0.82676-2.241-0.8049-3.4595 0.0435-3.4595 0.2175 0 4.0251-0.39167 8.4421-0.8703 7.2451-0.78315 27.698-2.9591 35.792-3.8074 5.8745-0.60919 20.104-2.0672 25.456-2.611 2.9373-0.30456 6.0703-0.63098 6.9625-0.76147 0.89197-0.10883 3.7423-0.39166 6.3096-0.65266 6.7667-0.65276 13.185-1.2834 16.427-1.6315 1.5665-0.17408 4.3514-0.45716 6.2008-0.65296 1.8495-0.19574 5.5265-0.5874 8.159-0.87024 2.6328-0.3045 6.745-0.71795 9.1383-0.95728 2.3934-0.2611 7.92-0.8269 12.293-1.3054 10.444-1.1313 12.01-1.2404 13.49-0.8703 0.8269 0.19585 3.1332 0.28282 7.6152 0.30455 6.7667 0.04365 9.8347 0.32655 13.381 1.2185 2.3935 0.60931 3.5028 0.37006 5.2654-1.1749 1.8274-1.6101 3.3723-5.0478 4.0032-8.9642 0.1524-0.95728 0.2831-3.4593 0.2831-5.5482 0-4.3297-0.0871-4.8084-1.8495-8.9208-1.2838-2.9807-2.8068-5.3089-4.0906-6.2009-0.8485-0.5874-1.1096-0.65265-2.7849-0.69623-2.7416-0.06531-5.113 0.30457-7.2235 1.1096-3.2419 1.2403-6.8319 1.9801-11.184 2.3063-1.8495 0.13056-4.0251 0.45698-5.1999 0.73981-2.3283 0.60913-3.0029 0.7179-4.961 0.89191-3.5029 0.30475-12.206 1.088-16.645 1.5232-1.7842 0.17395-5.8964 0.56568-9.1384 0.87024-3.2198 0.30451-7.9197 0.73981-10.444 0.97889-2.5019 0.2395-5.635 0.5224-6.9621 0.65295-2.8937 0.28283-10.096 0.97888-14.578 1.4141-1.7843 0.17407-5.5046 0.52216-8.2679 0.76129-2.7415 0.2395-7.006 0.63117-9.4647 0.8703-5.026 0.47882-7.6804 0.73987-12.728 1.2186-1.9146 0.17413-5.2434 0.52222-7.3975 0.73962-2.154 0.23926-7.202 0.71784-11.205 1.0879-9.4212 0.82673-21.888 2.0017-30.134 2.8501-12.163 1.2183-17.384 1.7188-23.39 2.2626-5.2652 0.47876-16.731 1.6101-23.237 2.2847-3.3724 0.34809-10.313 1.0226-17.124 1.6318-3.3507 0.28271-7.2671 0.6308-8.7032 0.76123-1.4359 0.13074-4.3297 0.43525-6.4184 0.65283-2.0888 0.21759-6.7016 0.67438-10.226 0.97894-3.5248 0.30481-8.268 0.76166-10.552 1.0009-9.8345 1.0444-12.228 1.2837-16.862 1.7187-2.6979 0.2395-5.8744 0.54407-7.071 0.65277-8.6378 0.8269-12.293 1.175-19.582 1.8496-9.0512 0.8484-12.663 1.1964-18.929 1.8709-2.4805 0.2829-6.7233 0.52216-10.553 0.60931-8.3766 0.21747-8.8771 0.39154-10.639 3.6989-0.52237 0.95721-1.1969 1.9146-1.5015 2.1104-0.2827 0.19592-1.3271 0.5005-2.3063 0.67456-0.95737 0.17407-2.698 0.65271-3.8293 1.066-3.764 1.3489-10.161 2.8284-13.055 3.046-2.1759 0.15227-2.5023-0.0436-3.155-1.9582-0.80493-2.328-1.8277-3.1331-4.4603-3.5684-1.9581-0.34814-10.988-0.76166-13.424-0.65294-1.8494 0.10887-2.1105 0.17412-3.3724 0.9356-0.76159 0.45696-1.4795 0.8269-1.5884 0.8269-0.34816 0-5.3959-2.5676-6.7232-3.4162-1.4143-0.89197-1.9364-1.066-3.133-1.0225-1.5884 0.04364-2.8938 0.91382-6.1575 4.1122-4.7214 4.5691-9.0512 9.4645-10.639 12.01-1.2621 2.0018-2.1106 2.7852-3.3507 3.1549-1.6101 0.50049-5.7007 1.1968-6.8755 1.1968-1.1751 0-2.5893 0.69618-4.4388 2.1539-1.066 0.82675-1.3706 0.95725-2.589 1.0444-1.806 0.1524-4.852-0.26118-5.9182-0.8051-1.6754-0.84862-3.1332-0.45696-4.6996 1.2837-1.2402 1.3489-1.9365 1.5013-1.9365 0.36999 0-0.39166 0.21763-1.1967 0.45695-1.7842 0.41335-0.91386 0.45691-1.3055 0.34815-3.4378-0.1305-2.7633-0.5657-5.1782-2.2411-12.206-0.6527-2.7634-1.3273-5.6352-1.5013-6.375-0.30467-1.3056-1.1096-3.3071-3.0678-7.6588l-0.8486-1.8494-0.15236-5.4395c-0.08694-3.8513-0.23924-5.8527-0.47854-6.8538-1.1968-4.7432-7.2671-12.881-11.118-14.861-2.2192-1.1315-6.3316-2.0018-10.966-2.3283-3.6118-0.26099-5.4395-0.5874-9.5952-1.6754-1.6101-0.43512-3.6118-0.91369-4.4604-1.066-2.1975-0.43512-5.5264-0.36987-7.7239 0.1305-2.6109 0.5874-3.8947 0.544-7.8546-0.3263-3.3289-0.73974-6.1356-1.0662-7.0495-0.84863zm280.94 58.747c0.06517 0.17414-0.0219 0.58747-0.1742 0.9139-0.5874 1.1096-4.2647 4.7214-7.2671 7.1364-1.6753 1.3273-4.3733 3.6989-5.9834 5.2437-4.6342 4.4387-8.2897 7.2454-11.836 9.0948-1.4359 0.73974-1.5229 0.7614-4.1122 0.7614-3.4593 0-4.6561 0.30458-7.5935 1.98-1.3488 0.73974-3.7857 2.0886-5.3957 2.9808-1.6101 0.87037-4.6562 2.6326-6.745 3.9164-2.0888 1.2618-5.6135 3.1548-7.8328 4.1775-3.6551 1.6971-5.2435 2.3716-8.9205 3.7642-2.4586 0.91364-6.8755 3.1766-7.7893 3.9598-1.3272 1.1532-1.5884 1.8059-1.7188 4.2427l-0.1306 2.1323-4.2645 1.9583c-5.657 2.6108-11.162 4.8952-16.34 6.7883-10.27 3.7859-14.6 5.7006-18.277 8.1591-2.3715 1.5666-6.8102 3.8077-7.5718 3.8077-1.2402 0-5.9834 1.6535-8.6379 3.0025-0.71803 0.34807-2.2411 1.1967-3.3507 1.8712-1.1313 0.67438-2.1975 1.2184-2.35 1.2184-0.54395 0-0.30435-2.2847 0.58765-5.7442 0.47875-1.8494 0.87036-3.6771 0.87036-4.047 0-0.5656-0.28296-0.97918-1.6972-2.35-0.93566-0.93548-2.2411-2.0668-2.8938-2.5674-5.3087-4.0252-15.404-11.466-17.645-13.011-1.5232-1.0661-2.894-2.0668-3.0246-2.2192-0.30455-0.36987-0.1086-0.67462 2.4153-3.8946 2.241-2.8286 3.9814-5.4612 5.1129-7.7242 1.1532-2.2844 2.067-3.677 4.2211-6.3967 2.7196-3.4376 2.959-3.6769 3.6553-3.5029 0.32629 0.06531 0.979 0.41339 1.4576 0.76147 1.806 1.2837 4.3733 1.262 5.4612-0.04332 0.60923-0.71815 0.63096-1.001 0.3263-2.8938-0.1088-0.71815-0.3046-2.6763-0.41336-4.3515-0.13064-1.6757-0.28294-3.5467-0.36999-4.1561-0.1305-1.0225-0.08692-1.153 0.56579-1.9147 1.0009-1.1312 3.1767-2.6326 4.4386-3.0459 1.8277-0.60931 8.3551-1.8277 11.662-2.1756 1.7406-0.17408 5.1784-0.39166 7.6371-0.47876l4.482-0.15234 2.067 2.0018c1.5884 1.5013 2.2192 1.9798 2.6761 1.9798 1.5014 0 5.4395-0.7614 7.5066-1.436 2.6979-0.8919 4.8302-1.2836 9.247-1.7187 1.8059-0.17401 4.4167-0.45678 5.8312-0.65271 1.4142-0.17413 5.287-0.56555 8.5943-0.8703 3.307-0.30459 8.3766-0.8049 11.249-1.1096 2.8721-0.28282 6.5491-0.67437 8.159-0.84869 9.7692-1.0007 12.076-1.24 15.992-1.6315 2.3933-0.2395 6.8972-0.6745 10.009-0.97925 6.1357-0.58752 20.256-2.0016 21.323-2.1323 0.3699-0.04333 2.0017-0.10858 3.6554-0.13037 2.5457-0.02173 3.0243 0.02179 3.1332 0.32634zm-194.99 21.279c2.6978 1.1096 2.6108 1.0443 2.6762 2.067 0.04355 0.69598-0.30469 2.045-1.4578 5.4176-1.5883 4.678-2.1975 7.3541-2.1975 9.8129 0 0.78308-0.1089 2.3061-0.21756 3.3941-0.30468 2.6326-1.0227 4.1121-3.1114 6.4403-0.9137 1.0009-1.8276 2.1541-2.0234 2.5674-0.1958 0.39166-0.50036 2.0451-0.67446 3.6987-0.1742 1.6319-0.7397 6.5273-1.2838 10.901-0.5222 4.3734-1.088 9.5953-1.2621 11.64-0.1739 2.0235-0.4132 3.9599-0.5438 4.308-0.1305 0.32635-0.5005 0.69623-0.8268 0.82684-0.9574 0.36988-4.0687 0.06531-6.9408-0.69617-1.4142-0.37-3.4159-0.8487-4.4385-1.0663-2.698-0.56556-4.5909-1.4141-7.2236-3.1984-1.2838-0.8703-2.8939-1.8492-3.5902-2.2193-0.69617-0.3481-1.4576-0.8484-1.697-1.0879-0.6962-0.78326-0.21755-1.1531 2.3498-1.8058 4.0687-1.0662 5.94-2.263 7.0932-4.5257 1.0879-2.2192 1.2184-3.2418 0.7832-6.3532-0.1957-1.4578-0.3698-2.7197-0.3698-2.785-0.04356-0.93573 0.2393-1.5884 1.4361-3.3289 2.2409-3.2638 2.3933-3.6771 2.1974-5.483-0.26099-2.4804-0.19568-2.785 1.2402-5.9183l1.3708-3.0026-0.0654-3.9815c-0.0216-2.1975 0.0436-4.3515 0.1741-4.7868 0.28293-1.088 1.4579-2.1542 3.5902-3.3072 2.3063-1.2402 3.3288-2.1105 5.0043-4.2428 1.3924-1.784 1.3924-1.784 4.0686-3.0243 1.8493-0.84839 2.872-1.1966 3.329-1.1313 0.36986 0.04339 1.5448 0.43505 2.6109 0.8703z"/> <path d="m467.31 1090.3c-3.2489 5.1985-7.6673 12.216-9.8766 15.855-2.3392 3.509-13.126 20.533-24.042 37.687s-22.092 33.658-24.951 36.777c-20.143 21.963-14.685 57.181 10.786 71.086 3.8986 2.0791 10.007 4.4185 13.515 5.198l6.4978 1.5596-3.8987 2.0793c-5.978 3.1189-14.295 12.476-18.454 20.403-3.1189 6.238-3.6387 8.5771-3.6388 18.844 0 10.136 0.5199 12.736 3.7688 19.753 1.9492 4.4184 5.0682 9.3567 6.7576 10.916 1.6895 1.5594 3.119 3.2488 3.119 3.7688 0 0.3899-3.3789 1.8191-7.5376 3.1189-13.515 4.0286-26.641 16.894-30.41 29.76-1.9493 6.8877-1.9493 20.793-4e-5 27.681 2.2093 7.5373 8.837 16.894 16.115 22.742 12.086 9.4868 0.38986 8.9668 190.38 8.967l170.63-2e-4v-20.792h-20.793v-25.342l-1e-4 -25.342h20.793v-7.667l12.736-0.3899 12.606-0.3899 0.3899-10.007 0.38975-10.007-15.075-0.7798 1.4e-4 -25.341v-25.341l15.075-0.78-0.3899-10.006-0.3899-10.007-8.0573-0.3899-8.1871-0.3899v-8.5767c0-7.5376-0.6498-9.6167-5.718-19.104-3.1189-5.7178-8.7069-16.244-12.346-23.132l-6.7578-12.606 25.471-0.7798 0.3898-13.646 0.25986-13.645-11.566-14.295c-6.3677-7.9272-21.183-25.991-32.879-40.286l-21.313-25.991-237.69-0.5198-5.718 9.3564zm267.58 123.07v23.392l-151.27-0.26-151.27-0.3899-5.0682-4.0288c-7.2775-5.9778-10.137-11.566-10.007-20.013-4e-5 -7.9272 2.4691-13.645 7.9272-18.844l3.6388-3.2487 306.05 3e-4v23.392zm20.143 87.07-1e-4 25.341-148.15 0.3899c-167.9 0.26-157.64 0.9094-166.86-9.6164-2.9889-3.3792-5.5882-7.9278-6.1079-10.527-2.5991-13.775 5.9779-27.161 19.493-30.41 2.2093-0.5197 70.956-0.7795 152.83-0.6495l148.8 0.1301v25.341zm-30.8 80.183 0.26 25.081-148.8-3e-4c-163.87 0-153.74 0.5196-161.4-8.1872-9.2268-10.526-8.4471-25.341 1.8194-34.958 8.0573-7.6675 0.7798-7.4075 160.89-7.1475l146.85 0.2598 0.38996 24.952z"/> </g> <g fill="#fff" stroke-linejoin="miter"> <path d="m428.84 1189.7c-0.07413 0-0.14563 0.0272-0.20093 0.0766l-3.6388 3.2487-0.00713 0.0066c-5.5192 5.2565-8.0209 11.054-8.0209 19.062-0.13047 8.5501 2.7809 14.221 10.117 20.246l0.00379 0.0031 5.0682 4.0288c0.05317 0.0422 0.11905 0.0653 0.18696 0.0654l151.27 0.3899h3e-4l151.27 0.26h5e-4c0.0799 0 0.15654-0.0316 0.2131-0.0881 0.0567-0.0567 0.0886-0.1334 0.0886-0.2135v-46.784c0-0.1666-0.1351-0.3016-0.3017-0.3016l-306.05-4e-4z"/> <path d="m565.5 1274.7c-62.738 0-110.28 0.2492-112.16 0.6906l-0.0014 4e-4c-13.674 3.2866-22.348 16.828-19.719 30.759l6.2e-4 0.0033c0.5347 2.6742 3.1728 7.2703 6.1777 10.668h-3e-5c0.50463 0.5757 0.94088 1.1058 1.365 1.6212l3e-5 1e-4c0.37072 0.4503 0.73335 0.8909 1.09 1.2978 5.3017 6.0479 11.19 6.9102 87.726 6.9102 14.035 0 29.696-0.0285 48.751-0.0628h-6e-5l28.158-0.0482h3e-4l148.15-0.39c0.16633-4e-4 0.30093-0.1353 0.30093-0.3016l1e-4 -25.341v-25.341c0-0.1665-0.13495-0.3015-0.30146-0.3016l-148.8-0.1301h2.5e-4c-14.132-0.0225-27.648-0.0332-40.736-0.0332z"/> <path d="m505.39 1355c-81.846 0-82.923 0.8399-88.549 6.4062-0.29557 0.2923-0.60809 0.6015-0.9414 0.9187h-1.3e-4c-10.382 9.7269-11.173 24.726-1.8382 35.375l4.6e-4 5e-4c0.42326 0.4806 0.79589 0.9381 1.146 1.3679 0.30618 0.3759 0.61414 0.7536 0.91416 1.0943 4.8823 5.5443 11.421 5.8332 112.86 5.8332h7e-5l20.569-0.0027 26.144-0.0031 148.8 2e-4c0.0806 0 0.1578-0.0322 0.2144-0.0895 0.05667-0.0572 0.08816-0.1347 0.0873-0.2153l-0.26-25.081-7e-5 -0.0016-0.38993-24.952c-0.0026-0.1645-0.13656-0.2966-0.3011-0.2969l-146.85-0.2597h-6e-5l-29.609-0.0493c-16.26-0.0264-29.564-0.045-41.994-0.045z"/> </g> </svg>